<svg version="1" xmlns="http://www.w3.org/2000/svg" width="682.667" height="682.667" viewBox="0 0 512.000000 512.000000"><path d="M231.5 1c-9.6 1.1-15.4 2.4-26.4 5.9-9.7 3.2-30.1 12.8-30.1 14.3 0 .4-.6.8-1.2.8-.7 0-4.4 2.5-8.3 5.4l-7 5.3-6-5.7c-14-13.3-26.8-24.5-28-24.5-.8 0-3.6 2.7-6.2 6.1-10.4 13.2-16.7 21-18.4 22.6-.9.9-3.2 3.7-5 6.2-1.8 2.5-3.6 4.6-4.1 4.6-2.5 0 .2 3.5 7.9 10.6 4.8 4.3 12.4 11.5 17 15.9l8.2 8-3 7c-2.9 6.5-5.5 13.6-6.5 17.4-5.3 19.8-6.8 42.6-3.9 60 .9 5.8 2.3 12.3 3.1 14.3.8 2.1 1.2 3.8.9 3.8-.4 0 2.8 10 4.4 13.5 4.3 9.4 6 12.8 9.1 18 6.5 11.2 11.9 17.9 23.5 29.4l11.5 11.5-3.8 3c-7.4 6.1-23.2 22.8-23.2 24.7 0 .5-.3.9-.8.9-.4 0-1.6 1.7-2.7 3.7s-2.4 4.2-3 4.8c-3.6 4-13.5 25.4-15 32.5-.1.3-.6 2.3-1.3 4.5-3.8 13.3-4.5 19-4.5 36.9s.8 24.6 4.5 38.1c.6 2.2 1.2 4.5 1.4 5 .7 3.9 10.1 25.3 11.5 26.5.3.3 1.3 1.8 2.2 3.5 2.5 5 13.7 19.5 19.9 25.8 7.6 7.9 26.9 22.7 29.5 22.7.3 0 1.4.6 2.2 1.3 1.9 1.6 16.2 8.1 22.7 10.3 29.3 9.9 62.5 9.9 91.4-.1 2.5-.8 5.3-1.8 6.4-2.2 8.8-3 29.3-15 35.7-20.9l2.5-2.4 7.5 6.6c4.1 3.7 13.6 12.6 21.2 19.8 7.7 7.2 15 13.8 16.3 14.6 2.3 1.4 2.6 1.2 8.7-5 11-11.3 29.7-32.4 29.7-33.5 0-.5-2.8-3.7-6.3-7.1-7.3-7.1-39.3-36.5-41.1-37.8-1-.7-.8-1.8.9-5 1.2-2.3 2.4-5 2.7-6.1.4-1.1 1.6-4.4 2.7-7.4 2.2-5.9 5.9-19.7 5.9-22.1 0-.8.5-5 1.1-9.3 1.5-10.5 1.4-18.9-.4-32.7-1.9-14.2-3.2-19.9-7.8-32-4.4-11.6-10.2-22.7-15.4-29.5-.5-.6-1.7-2.4-2.7-4-1.1-1.7-7.5-8.6-14.2-15.4l-12.2-12.3 12.2-12.2c6.8-6.6 13.6-14.1 15.1-16.6 1.5-2.5 3.1-4.7 3.5-5 2.4-1.8 13.7-24.3 15.4-30.5.3-1.1 1.4-4.7 2.6-7.9 1.1-3.3 2.2-7.7 2.5-9.8.3-2 .9-5.6 1.5-8 1.4-6.4 1.2-37-.4-45.8-2.6-14.2-8.4-32-12.7-39-.5-.8-1.3-2.4-1.8-3.5-1.7-3.7-7.9-12.9-13.8-20.5C340.1 28 308.4 8.6 277 2.4 268.1.7 241.3-.2 231.5 1zm34.3 56.7c20.2 4.9 35 14 46.6 28.3 8.3 10.3 12.8 19.2 17 34.2 2.1 7.4 2.2 28.5.2 35.3-.8 2.6-1.4 5.1-1.3 5.4.2.6-1.1 4.2-4 11.1-2.4 5.9-4.7 10-5.5 10-.5 0-.8.5-.8 1 0 .6-1.8 3.4-3.9 6.3-9.5 12.7-24 22.7-41.1 28.3-7.8 2.6-9.8 2.8-24 2.8-14.4.1-16.1-.1-23.9-2.7-23.7-7.9-39.6-21.5-50.9-43.5-1.2-2.3-1.9-4.2-1.6-4.2.3 0-.1-1.2-.9-2.8-3.7-6.9-5-14.6-5-28.7 0-12.5.2-14.9 2.7-22.5 2.4-7.8 8.9-21.8 10.5-23 .4-.3 2.1-2.5 3.8-5 7.3-10.5 22.7-22 36.3-26.9 14.3-5.2 33.1-6.6 45.8-3.4z"/></svg>