<svg xmlns="http://www.w3.org/2000/svg" viewBox="0 0 91.35 66"><title>API-Gateway-and-Developer-Portal</title><path d="M90.35,48.22V44.86a.85.85,0,0,0-.84-.84H86.6a.84.84,0,0,1-.82-.67A14.28,14.28,0,0,0,84,39a.85.85,0,0,1,.1-1.05l2.06-2a.84.84,0,0,0,0-1.19L83.76,32.3a.84.84,0,0,0-1.19,0l-2.06,2.05a.85.85,0,0,1-1.05.11,14.06,14.06,0,0,0-4.39-1.82.84.84,0,0,1-.66-.81V28.92a.84.84,0,0,0-.84-.84H70.21a.84.84,0,0,0-.84.84v2.91a.84.84,0,0,1-.67.81,14.06,14.06,0,0,0-4.39,1.82.85.85,0,0,1-1.05-.11l-2-2.05a.84.84,0,0,0-1.19,0l-2.37,2.37a.84.84,0,0,0,0,1.19l2.05,2A.85.85,0,0,1,59.81,39,14.06,14.06,0,0,0,58,43.35a.84.84,0,0,1-.81.67H54.27a.84.84,0,0,0-.84.84v3.36a.84.84,0,0,0,.84.84h2.91a.84.84,0,0,1,.81.66,14.06,14.06,0,0,0,1.82,4.39.85.85,0,0,1-.11,1l-2.05,2.06a.84.84,0,0,0,0,1.19L60,60.78a.84.84,0,0,0,1.19,0l2-2.06a.85.85,0,0,1,1.05-.1,14.28,14.28,0,0,0,4.39,1.81.84.84,0,0,1,.67.82v2.91a.85.85,0,0,0,.84.84h3.36a.85.85,0,0,0,.84-.84V61.25a.85.85,0,0,1,.66-.82,14.28,14.28,0,0,0,4.39-1.81.84.84,0,0,1,1.05.1l2.06,2.06a.84.84,0,0,0,1.19,0l2.37-2.37a.84.84,0,0,0,0-1.19l-2.06-2.06a.84.84,0,0,1-.1-1,14.28,14.28,0,0,0,1.81-4.39.85.85,0,0,1,.82-.66h2.91A.85.85,0,0,0,90.35,48.22Z" style="fill:none;stroke:#4d606d;stroke-linejoin:round;stroke-width:2px"/><polyline points="67.12 42.52 63.39 46.59 67.12 50.55" style="fill:none;stroke:#9b00ee;stroke-miterlimit:10;stroke-width:2px"/><polyline points="76.65 42.52 80.39 46.59 76.65 50.55" style="fill:none;stroke:#9b00ee;stroke-miterlimit:10;stroke-width:2px"/><line x1="73.4" y1="42.8" x2="70.51" y2="50.16" style="fill:none;stroke:#9b00ee;stroke-miterlimit:10;stroke-width:2px"/><line x1="44.6" y1="34.01" x2="44.6" y2="59.22" style="fill:none;stroke:#4d606d;stroke-linecap:square;stroke-linejoin:round;stroke-width:2px"/><circle cx="44.6" cy="29.81" r="2.84" style="fill:none;stroke:#9b00ee;stroke-miterlimit:10;stroke-width:2px"/><line x1="35.2" y1="45.34" x2="35.2" y2="64.16" style="fill:none;stroke:#4d606d;stroke-linecap:square;stroke-linejoin:round;stroke-width:2px"/><circle cx="35.2" cy="41.14" r="2.84" style="fill:none;stroke:#9b00ee;stroke-miterlimit:10;stroke-width:2px"/><line x1="21.77" y1="16.56" x2="1" y2="16.56" style="fill:none;stroke:#4d606d;stroke-linecap:square;stroke-linejoin:round;stroke-width:2px"/><circle cx="25.98" cy="16.56" r="2.84" transform="translate(-0.62 1.01) rotate(-2.2)" style="fill:none;stroke:#9b00ee;stroke-miterlimit:10;stroke-width:2px"/><polyline points="37.97 12.32 27.89 7.34 10.37 7.34" style="fill:none;stroke:#4d606d;stroke-linecap:square;stroke-linejoin:round;stroke-width:2px"/><path d="M40.45,16.56a2.85,2.85,0,1,1,2.84-2.84A2.85,2.85,0,0,1,40.45,16.56Z" style="fill:none;stroke:#9b00ee;stroke-miterlimit:10;stroke-width:2px"/><path d="M30.37,2.54a17.34,17.34,0,0,1,3.05-1C52.11-2.67,60.71,18.05,57.29,24.76c0,0,5.45-.59,8,1.06" style="fill:none;stroke:#4d606d;stroke-linecap:square;stroke-linejoin:round;stroke-width:2px"/><path d="M29.11,52.07H14.43C-4.48,49.82-1.3,23,17.61,25.23a28.7,28.7,0,0,1-.11-3.71" style="fill:none;stroke:#4d606d;stroke-linecap:square;stroke-linejoin:round;stroke-width:2px"/></svg>