<svg xmlns="http://www.w3.org/2000/svg" viewBox="0 0 91.35 66">
  <path d="M90.35 48.22v-3.36a.85.85 0 0 0-.84-.84H86.6a.84.84 0 0 1-.82-.67A14.28 14.28 0 0 0 84 39a.85.85 0 0 1 .1-1.05l2.06-2a.84.84 0 0 0 0-1.19l-2.4-2.46a.84.84 0 0 0-1.19 0l-2.06 2.05a.85.85 0 0 1-1.05.11 14.06 14.06 0 0 0-4.39-1.82.84.84 0 0 1-.66-.81v-2.91a.84.84 0 0 0-.84-.84h-3.36a.84.84 0 0 0-.84.84v2.91a.84.84 0 0 1-.67.81 14.06 14.06 0 0 0-4.39 1.82.85.85 0 0 1-1.05-.11l-2-2.05a.84.84 0 0 0-1.19 0l-2.37 2.37a.84.84 0 0 0 0 1.19l2.05 2a.85.85 0 0 1 .06 1.14A14.06 14.06 0 0 0 58 43.35a.84.84 0 0 1-.81.67h-2.92a.84.84 0 0 0-.84.84v3.36a.84.84 0 0 0 .84.84h2.91a.84.84 0 0 1 .81.66 14.06 14.06 0 0 0 1.82 4.39.85.85 0 0 1-.11 1l-2.05 2.06a.84.84 0 0 0 0 1.19L60 60.78a.84.84 0 0 0 1.19 0l2-2.06a.85.85 0 0 1 1.05-.1 14.28 14.28 0 0 0 4.39 1.81.84.84 0 0 1 .67.82v2.91a.85.85 0 0 0 .84.84h3.36a.85.85 0 0 0 .84-.84v-2.91a.85.85 0 0 1 .66-.82 14.28 14.28 0 0 0 4.39-1.81.84.84 0 0 1 1.05.1l2.06 2.06a.84.84 0 0 0 1.19 0l2.37-2.37a.84.84 0 0 0 0-1.19L84 55.16a.84.84 0 0 1-.1-1 14.28 14.28 0 0 0 1.81-4.39.85.85 0 0 1 .82-.66h2.91a.85.85 0 0 0 .91-.89z" fill="none" stroke="#4d606d" stroke-linejoin="round" stroke-width="2"/>
  <path fill="none" stroke="#9b00ee" stroke-miterlimit="10" stroke-width="2" d="M67.12 42.52l-3.73 4.07 3.73 3.96M76.65 42.52l3.74 4.07-3.74 3.96M73.4 42.8l-2.89 7.36"/>
  <path fill="none" stroke="#4d606d" stroke-linecap="square" stroke-linejoin="round" stroke-width="2" d="M44.6 34.01v25.21"/>
  <circle cx="44.6" cy="29.81" r="2.84" fill="none" stroke="#9b00ee" stroke-miterlimit="10" stroke-width="2"/>
  <path fill="none" stroke="#4d606d" stroke-linecap="square" stroke-linejoin="round" stroke-width="2" d="M35.2 45.34v18.82"/>
  <circle cx="35.2" cy="41.14" r="2.84" fill="none" stroke="#9b00ee" stroke-miterlimit="10" stroke-width="2"/>
  <path fill="none" stroke="#4d606d" stroke-linecap="square" stroke-linejoin="round" stroke-width="2" d="M21.77 16.56H1"/>
  <circle cx="25.98" cy="16.56" r="2.84" transform="rotate(-2.2 25.99 16.65)" fill="none" stroke="#9b00ee" stroke-miterlimit="10" stroke-width="2"/>
  <path fill="none" stroke="#4d606d" stroke-linecap="square" stroke-linejoin="round" stroke-width="2" d="M37.97 12.32L27.89 7.34H10.37"/>
  <path d="M40.45 16.56a2.85 2.85 0 1 1 2.84-2.84 2.85 2.85 0 0 1-2.84 2.84z" fill="none" stroke="#9b00ee" stroke-miterlimit="10" stroke-width="2"/>
  <path d="M30.37 2.54a17.34 17.34 0 0 1 3.05-1c18.69-4.21 27.29 16.51 23.87 23.22 0 0 5.45-.59 8 1.06M29.11 52.07H14.43C-4.48 49.82-1.3 23 17.61 25.23a28.7 28.7 0 0 1-.11-3.71" fill="none" stroke="#4d606d" stroke-linecap="square" stroke-linejoin="round" stroke-width="2"/>
</svg>
