<svg xmlns="http://www.w3.org/2000/svg" viewBox="0 0 82.79 59.87"><defs><style>.a,.b,.c{fill:none;stroke-linejoin:round;stroke-width:2px;}.a{stroke:#4d606d;}.a,.b{stroke-linecap:square;}.b,.c{stroke:#00acee;}.c{stroke-linecap:round;}</style></defs><title>API Gateway &amp;amp; Developer Portal</title><path class="a" d="M81.79,43.69v-3A.76.76,0,0,0,81,39.9H78.4a.76.76,0,0,1-.74-.6,12.53,12.53,0,0,0-1.64-4,.76.76,0,0,1,.1-.95L78,32.52a.75.75,0,0,0,0-1.07L75.83,29.3a.75.75,0,0,0-1.07,0L72.9,31.16a.77.77,0,0,1-1,.09,13.11,13.11,0,0,0-4-1.64.77.77,0,0,1-.61-.74V26.24a.76.76,0,0,0-.75-.76h-3a.76.76,0,0,0-.76.76v2.63a.76.76,0,0,1-.6.74,13,13,0,0,0-4,1.64.77.77,0,0,1-1-.09L55.44,29.3a.75.75,0,0,0-1.07,0l-2.15,2.15a.75.75,0,0,0,0,1.07l1.86,1.86a.75.75,0,0,1,.09.95,13,13,0,0,0-1.64,4,.76.76,0,0,1-.73.6H49.16a.76.76,0,0,0-.76.76v3a.76.76,0,0,0,.76.76H51.8a.77.77,0,0,1,.73.61,13.22,13.22,0,0,0,1.64,4,.76.76,0,0,1-.09.95l-1.86,1.85a.76.76,0,0,0,0,1.08l2.15,2.14a.75.75,0,0,0,1.07,0l1.86-1.86a.77.77,0,0,1,1-.09,12.76,12.76,0,0,0,4,1.64.76.76,0,0,1,.6.74v2.63a.76.76,0,0,0,.76.76h3a.76.76,0,0,0,.75-.76V55.48a.77.77,0,0,1,.61-.74,12.86,12.86,0,0,0,4-1.64.77.77,0,0,1,1,.09l1.86,1.86a.75.75,0,0,0,1.07,0L78,52.91a.76.76,0,0,0,0-1.08L76.12,50A.76.76,0,0,1,76,49a12.72,12.72,0,0,0,1.64-4,.77.77,0,0,1,.74-.61H81A.76.76,0,0,0,81.79,43.69Z"/><polyline class="b" points="60.79 38.54 57.41 42.23 60.79 45.81"/><polyline class="b" points="69.41 38.54 72.78 42.23 69.41 45.81"/><line class="b" x1="66.46" y1="38.8" x2="63.85" y2="45.45"/><line class="a" x1="40.42" y1="30.85" x2="40.42" y2="53.65"/><circle class="c" cx="40.42" cy="27.05" r="2.57"/><line class="a" x1="31.92" y1="41.1" x2="31.92" y2="58.11"/><circle class="c" cx="31.92" cy="37.3" r="2.57"/><line class="a" x1="19.78" y1="15.07" x2="1" y2="15.07"/><circle class="c" cx="23.58" cy="15.07" r="2.57"/><polyline class="a" points="34.43 11.23 25.32 6.73 9.47 6.73"/><circle class="c" cx="36.67" cy="12.5" r="2.57"/><path class="a" d="M27.56,2.39a16.15,16.15,0,0,1,2.75-.88C47.22-2.32,55,16.42,51.9,22.49c0,0,4.92-.54,7.2,1"/><path class="a" d="M26.42,47.17H13.15C-4,45.15-1.08,20.89,16,22.91a25.55,25.55,0,0,1-.1-3.36"/></svg>