<svg xmlns="http://www.w3.org/2000/svg" viewBox="0 0 66 66"><title>Authentication-and-Authorization</title><polyline points="43.21 48.61 45.8 51.2 51.85 45.16" style="fill:none;stroke:#9b00ee;stroke-miterlimit:10;stroke-width:2px"/><path d="M31.43,37.31c4,0,6.58-5.35,7-6.7,0-.1.62-.41.67-.5,2.14-3.85-.2-4.29-.2-4.29a14.66,14.66,0,0,0-.39-3.94s-.32-4.73-7-4.73-7,4.73-7,4.73A14.66,14.66,0,0,0,24,25.82s-2.34.44-.2,4.29c.05.09.64.4.67.5C24.85,32,27.48,37.31,31.43,37.31Z" style="fill:none;stroke:#4d606d;stroke-linejoin:round;stroke-width:2px"/><path d="M15.57,48.49c0-5.82,3.8-8.58,7.86-9.89a11.53,11.53,0,0,0,4.38-2.44" style="fill:none;stroke:#4d606d;stroke-linecap:round;stroke-linejoin:round;stroke-width:2px"/><path d="M35.3,36.17a11.5,11.5,0,0,0,4.37,2.43,17.92,17.92,0,0,1,2.23.9" style="fill:none;stroke:#4d606d;stroke-linecap:round;stroke-linejoin:round;stroke-width:2px"/><path d="M65,51.76v11A2.21,2.21,0,0,1,62.79,65h-11" style="fill:none;stroke:#4d606d;stroke-linecap:square;stroke-linejoin:round;stroke-width:2px"/><path d="M51.76,1h11A2.21,2.21,0,0,1,65,3.21v11" style="fill:none;stroke:#4d606d;stroke-linecap:square;stroke-linejoin:round;stroke-width:2px"/><path d="M1,14.24v-11A2.21,2.21,0,0,1,3.21,1h11" style="fill:none;stroke:#4d606d;stroke-linecap:square;stroke-linejoin:round;stroke-width:2px"/><path d="M14.24,65h-11A2.21,2.21,0,0,1,1,62.79v-11" style="fill:none;stroke:#4d606d;stroke-linecap:square;stroke-linejoin:round;stroke-width:2px"/><path d="M38.06,41.45v7.1c0,7.56,8.82,10.86,9.2,11a.83.83,0,0,0,.54,0c.38-.13,9.19-3.43,9.19-11v-7.1a.77.77,0,0,0-.52-.74L47.8,37.55a.83.83,0,0,0-.54,0l-8.67,3.16A.77.77,0,0,0,38.06,41.45Z" style="fill:none;stroke:#4d606d;stroke-linejoin:round;stroke-width:2px"/><path d="M53.83,39.75a23.39,23.39,0,1,0-22,15.45,23.14,23.14,0,0,0,7.88-1.36" style="fill:none;stroke:#4d606d;stroke-linecap:round;stroke-linejoin:round;stroke-width:2px"/></svg>