<svg xmlns="http://www.w3.org/2000/svg" viewBox="0 0 58.32 58.32"><defs><style>.a,.b,.c{fill:none;stroke-linejoin:round;stroke-width:2px;}.a{stroke:#00acee;}.a,.b{stroke-linecap:round;}.b,.c{stroke:#4d606d;}.c{stroke-linecap:square;}</style></defs><title>Authentication and Authorization</title><polyline class="a" points="38.15 42.9 40.42 45.18 45.74 39.86"/><path class="b" d="M27.78,33c3.48,0,5.79-4.71,6.13-5.91,0-.08.54-.35.59-.43,1.88-3.39-.18-3.78-.18-3.78A12.78,12.78,0,0,0,34,19.38s-.28-4.17-6.2-4.17-6.2,4.17-6.2,4.17a12.78,12.78,0,0,0-.34,3.46s-2.06.39-.17,3.78c0,.08.56.35.58.43C22,28.25,24.3,33,27.78,33Z"/><path class="b" d="M13.82,42.79c0-5.12,3.34-7.55,6.92-8.7a10.15,10.15,0,0,0,3.85-2.15"/><path class="b" d="M31.18,32A10.11,10.11,0,0,0,35,34.09a15.14,15.14,0,0,1,2,.79"/><path class="c" d="M57.32,45.67v9.71a1.94,1.94,0,0,1-1.94,1.94H45.67"/><path class="c" d="M45.67,1h9.71a1.94,1.94,0,0,1,1.94,1.94v9.71"/><path class="c" d="M1,12.65V2.94A1.94,1.94,0,0,1,2.94,1h9.71"/><path class="c" d="M12.65,57.32H2.94A1.94,1.94,0,0,1,1,55.38V45.67"/><path class="b" d="M33.62,36.59v6.25c0,6.65,7.76,9.56,8.09,9.67a.64.64,0,0,0,.47,0c.33-.11,8.09-3,8.09-9.67V36.59a.69.69,0,0,0-.45-.65l-7.64-2.78a.76.76,0,0,0-.47,0l-7.64,2.78A.69.69,0,0,0,33.62,36.59Z"/><path class="b" d="M47.49,35.1A20.58,20.58,0,1,0,28.12,48.7a20.39,20.39,0,0,0,6.93-1.2"/></svg>