<svg xmlns="http://www.w3.org/2000/svg" viewBox="0 0 66 66">
  <path fill="none" stroke="#9b00ee" stroke-miterlimit="10" stroke-width="2" d="M43.21 48.61l2.59 2.59 6.05-6.04"/>
  <path d="M31.43 37.31c4 0 6.58-5.35 7-6.7 0-.1.62-.41.67-.5 2.14-3.85-.2-4.29-.2-4.29a14.66 14.66 0 0 0-.39-3.94s-.32-4.73-7-4.73-7 4.73-7 4.73a14.66 14.66 0 0 0-.51 3.94s-2.34.44-.2 4.29c.05.09.64.4.67.5.38 1.39 3.01 6.7 6.96 6.7z" fill="none" stroke="#4d606d" stroke-linejoin="round" stroke-width="2"/>
  <path d="M15.57 48.49c0-5.82 3.8-8.58 7.86-9.89a11.53 11.53 0 0 0 4.38-2.44M35.3 36.17a11.5 11.5 0 0 0 4.37 2.43 17.92 17.92 0 0 1 2.23.9" fill="none" stroke="#4d606d" stroke-linecap="round" stroke-linejoin="round" stroke-width="2"/>
  <path d="M65 51.76v11A2.21 2.21 0 0 1 62.79 65h-11M51.76 1h11A2.21 2.21 0 0 1 65 3.21v11M1 14.24v-11A2.21 2.21 0 0 1 3.21 1h11M14.24 65h-11A2.21 2.21 0 0 1 1 62.79v-11" fill="none" stroke="#4d606d" stroke-linecap="square" stroke-linejoin="round" stroke-width="2"/>
  <path d="M38.06 41.45v7.1c0 7.56 8.82 10.86 9.2 11a.83.83 0 0 0 .54 0c.38-.13 9.19-3.43 9.19-11v-7.1a.77.77 0 0 0-.52-.74l-8.67-3.16a.83.83 0 0 0-.54 0l-8.67 3.16a.77.77 0 0 0-.53.74z" fill="none" stroke="#4d606d" stroke-linejoin="round" stroke-width="2"/>
  <path d="M53.83 39.75a23.39 23.39 0 1 0-22 15.45 23.14 23.14 0 0 0 7.88-1.36" fill="none" stroke="#4d606d" stroke-linecap="round" stroke-linejoin="round" stroke-width="2"/>
</svg>
