<svg xmlns="http://www.w3.org/2000/svg" viewBox="0 0 85.7 66">
  <circle cx="63.16" cy="44.81" r="7.58" transform="rotate(-37.42 63.159 44.808)" fill="none" stroke="#9b00ee" stroke-miterlimit="10" stroke-width="2"/>
  <path fill="none" stroke="#9b00ee" stroke-miterlimit="10" stroke-width="2" d="M68.21 38.55l7.57-9.39M82.07 25.63a3.79 3.79 0 1 1-4.17-3.36 3.78 3.78 0 0 1 4.17 3.36zM84.66 58.71a5.68 5.68 0 1 1-6.25-5.05 5.68 5.68 0 0 1 6.25 5.05zM48.86 35.86a3.79 3.79 0 1 1-4.17-3.37 3.79 3.79 0 0 1 4.17 3.37zM53.74 59.16a2.37 2.37 0 1 1-2.61-2.1 2.37 2.37 0 0 1 2.61 2.1zM53.07 57.33l5.04-6.26M56.06 40.8l-7-3.06M69.42 49.86l5.32 5.15"/>
  <path d="M69.29 28.88a13.17 13.17 0 0 0-10-4.55 13.4 13.4 0 0 0-2.63.26 20.8 20.8 0 0 0 .3-3.37 20.22 20.22 0 1 0-40.43 0 20.8 20.8 0 0 0 .3 3.37 13.4 13.4 0 0 0-2.63-.26 13.22 13.22 0 1 0 0 26.43h36.53" fill="none" stroke="#4d606d" stroke-linecap="square" stroke-linejoin="round" stroke-width="2"/>
</svg>
