<svg xmlns="http://www.w3.org/2000/svg" viewBox="0 0 75.38 58.11"><defs><style>.a,.b{fill:none;stroke-linejoin:round;stroke-width:2px;}.a{stroke:#00acee;stroke-linecap:round;}.b{stroke:#4d606d;stroke-linecap:square;}</style></defs><title>Multitenancy</title><circle class="a" cx="55.5" cy="39.41" r="6.65"/><line class="a" x1="59.92" y1="33.92" x2="66.56" y2="25.69"/><circle class="a" cx="68.78" cy="22.95" r="3.32"/><circle class="a" cx="69.39" cy="52.12" r="4.98"/><circle class="a" cx="39.66" cy="31.91" r="3.32"/><circle class="a" cx="45.17" cy="52.21" r="2.08"/><line class="a" x1="46.65" y1="50.38" x2="51.07" y2="44.9"/><line class="a" x1="49.27" y1="35.9" x2="43.14" y2="33.21"/><line class="a" x1="60.99" y1="43.83" x2="65.65" y2="48.35"/><path class="b" d="M60.87,25.44a11.56,11.56,0,0,0-8.75-4,11.75,11.75,0,0,0-2.31.23,17,17,0,0,0,.27-3,17.73,17.73,0,0,0-35.45,0,18,18,0,0,0,.27,3,11.75,11.75,0,0,0-2.31-.23,11.59,11.59,0,0,0,0,23.18h32"/></svg>