<svg xmlns="http://www.w3.org/2000/svg" viewBox="0 0 85.7 66"><title>Multitenancy</title><circle cx="63.16" cy="44.81" r="7.58" transform="translate(-14.23 47.6) rotate(-37.42)" style="fill:none;stroke:#9b00ee;stroke-miterlimit:10;stroke-width:2px"/><line x1="68.21" y1="38.55" x2="75.78" y2="29.16" style="fill:none;stroke:#9b00ee;stroke-miterlimit:10;stroke-width:2px"/><path d="M82.07,25.63a3.79,3.79,0,1,1-4.17-3.36A3.78,3.78,0,0,1,82.07,25.63Z" style="fill:none;stroke:#9b00ee;stroke-miterlimit:10;stroke-width:2px"/><path d="M84.66,58.71a5.68,5.68,0,1,1-6.25-5.05A5.68,5.68,0,0,1,84.66,58.71Z" style="fill:none;stroke:#9b00ee;stroke-miterlimit:10;stroke-width:2px"/><path d="M48.86,35.86a3.79,3.79,0,1,1-4.17-3.37A3.79,3.79,0,0,1,48.86,35.86Z" style="fill:none;stroke:#9b00ee;stroke-miterlimit:10;stroke-width:2px"/><path d="M53.74,59.16a2.37,2.37,0,1,1-2.61-2.1A2.37,2.37,0,0,1,53.74,59.16Z" style="fill:none;stroke:#9b00ee;stroke-miterlimit:10;stroke-width:2px"/><line x1="53.07" y1="57.33" x2="58.11" y2="51.07" style="fill:none;stroke:#9b00ee;stroke-miterlimit:10;stroke-width:2px"/><line x1="56.06" y1="40.8" x2="49.06" y2="37.74" style="fill:none;stroke:#9b00ee;stroke-miterlimit:10;stroke-width:2px"/><line x1="69.42" y1="49.86" x2="74.74" y2="55.01" style="fill:none;stroke:#9b00ee;stroke-miterlimit:10;stroke-width:2px"/><path d="M69.29,28.88a13.17,13.17,0,0,0-10-4.55,13.4,13.4,0,0,0-2.63.26,20.8,20.8,0,0,0,.3-3.37,20.22,20.22,0,1,0-40.43,0,20.8,20.8,0,0,0,.3,3.37,13.4,13.4,0,0,0-2.63-.26,13.22,13.22,0,1,0,0,26.43H50.73" style="fill:none;stroke:#4d606d;stroke-linecap:square;stroke-linejoin:round;stroke-width:2px"/></svg>