<svg xmlns="http://www.w3.org/2000/svg" viewBox="0 0 66 66"><title>SaaS-Integration</title><path d="M65,35.91V30.09a1.45,1.45,0,0,0-1.45-1.45h-5a1.47,1.47,0,0,1-1.42-1.16,24.43,24.43,0,0,0-3.14-7.61,1.46,1.46,0,0,1,.18-1.82l3.56-3.56a1.45,1.45,0,0,0,0-2.06L53.57,8.32a1.45,1.45,0,0,0-2.06,0L48,11.88a1.46,1.46,0,0,1-1.82.18,24.43,24.43,0,0,0-7.61-3.14A1.47,1.47,0,0,1,37.36,7.5v-5A1.45,1.45,0,0,0,35.91,1H30.09a1.45,1.45,0,0,0-1.45,1.45V7.5a1.47,1.47,0,0,1-1.16,1.42,24.43,24.43,0,0,0-7.61,3.14,1.46,1.46,0,0,1-1.82-.18L14.49,8.32a1.45,1.45,0,0,0-2.06,0L8.32,12.43a1.45,1.45,0,0,0,0,2.06l3.56,3.56a1.46,1.46,0,0,1,.18,1.82,24.43,24.43,0,0,0-3.14,7.61A1.47,1.47,0,0,1,7.5,28.64h-5A1.45,1.45,0,0,0,1,30.09v5.82a1.45,1.45,0,0,0,1.45,1.45H7.5a1.47,1.47,0,0,1,1.42,1.16,24.43,24.43,0,0,0,3.14,7.61A1.46,1.46,0,0,1,11.88,48L8.32,51.51a1.45,1.45,0,0,0,0,2.06l4.11,4.11a1.45,1.45,0,0,0,2.06,0l3.56-3.56a1.46,1.46,0,0,1,1.82-.18,24.43,24.43,0,0,0,7.61,3.14,1.47,1.47,0,0,1,1.16,1.42v5A1.45,1.45,0,0,0,30.09,65h5.82a1.45,1.45,0,0,0,1.45-1.45v-5a1.47,1.47,0,0,1,1.16-1.42,24.43,24.43,0,0,0,7.61-3.14,1.46,1.46,0,0,1,1.82.18l3.56,3.56a1.45,1.45,0,0,0,2.06,0l4.11-4.11a1.45,1.45,0,0,0,0-2.06L54.12,48a1.46,1.46,0,0,1-.18-1.82,24.43,24.43,0,0,0,3.14-7.61,1.47,1.47,0,0,1,1.42-1.16h5A1.45,1.45,0,0,0,65,35.91Z" style="fill:none;stroke:#4d606d;stroke-linejoin:round;stroke-width:2px"/><line x1="43.15" y1="23.67" x2="43.15" y2="42.19" style="fill:none;stroke:#00acee;stroke-linecap:square;stroke-linejoin:round;stroke-width:2px"/><line x1="22.85" y1="23.67" x2="22.85" y2="42.19" style="fill:none;stroke:#9b00ee;stroke-miterlimit:10;stroke-width:2px"/><line x1="42.89" y1="32.93" x2="22.85" y2="32.93" style="fill:none;stroke:#9b00ee;stroke-miterlimit:10;stroke-width:2px"/><rect x="28.22" y="20.08" width="9.9" height="8.19" style="fill:none;stroke:#9b00ee;stroke-miterlimit:10;stroke-width:2px"/><line x1="33.17" y1="12.27" x2="33.17" y2="20.08" style="fill:none;stroke:#9b00ee;stroke-miterlimit:10;stroke-width:2px"/><rect x="27.59" y="37.69" width="11.18" height="8.19" style="fill:none;stroke:#9b00ee;stroke-miterlimit:10;stroke-width:2px"/><line x1="33.17" y1="53.16" x2="33.17" y2="45.88" style="fill:none;stroke:#9b00ee;stroke-miterlimit:10;stroke-width:2px"/></svg>