<svg xmlns="http://www.w3.org/2000/svg" viewBox="0 0 66 66">
  <path d="M65 35.91v-5.82a1.45 1.45 0 0 0-1.45-1.45h-5a1.47 1.47 0 0 1-1.42-1.16 24.43 24.43 0 0 0-3.14-7.61 1.46 1.46 0 0 1 .18-1.82l3.56-3.56a1.45 1.45 0 0 0 0-2.06l-4.16-4.11a1.45 1.45 0 0 0-2.06 0L48 11.88a1.46 1.46 0 0 1-1.82.18 24.43 24.43 0 0 0-7.61-3.14 1.47 1.47 0 0 1-1.21-1.42v-5A1.45 1.45 0 0 0 35.91 1h-5.82a1.45 1.45 0 0 0-1.45 1.45V7.5a1.47 1.47 0 0 1-1.16 1.42 24.43 24.43 0 0 0-7.61 3.14 1.46 1.46 0 0 1-1.82-.18l-3.56-3.56a1.45 1.45 0 0 0-2.06 0l-4.11 4.11a1.45 1.45 0 0 0 0 2.06l3.56 3.56a1.46 1.46 0 0 1 .18 1.82 24.43 24.43 0 0 0-3.14 7.61 1.47 1.47 0 0 1-1.42 1.16h-5A1.45 1.45 0 0 0 1 30.09v5.82a1.45 1.45 0 0 0 1.45 1.45H7.5a1.47 1.47 0 0 1 1.42 1.16 24.43 24.43 0 0 0 3.14 7.61 1.46 1.46 0 0 1-.18 1.87l-3.56 3.51a1.45 1.45 0 0 0 0 2.06l4.11 4.11a1.45 1.45 0 0 0 2.06 0l3.56-3.56a1.46 1.46 0 0 1 1.82-.18 24.43 24.43 0 0 0 7.61 3.14 1.47 1.47 0 0 1 1.16 1.42v5a1.45 1.45 0 0 0 1.45 1.5h5.82a1.45 1.45 0 0 0 1.45-1.45v-5a1.47 1.47 0 0 1 1.16-1.42 24.43 24.43 0 0 0 7.61-3.14 1.46 1.46 0 0 1 1.82.18l3.56 3.56a1.45 1.45 0 0 0 2.06 0l4.11-4.11a1.45 1.45 0 0 0 0-2.06L54.12 48a1.46 1.46 0 0 1-.18-1.82 24.43 24.43 0 0 0 3.14-7.61 1.47 1.47 0 0 1 1.42-1.16h5a1.45 1.45 0 0 0 1.5-1.5z" fill="none" stroke="#4d606d" stroke-linejoin="round" stroke-width="2"/>
  <path fill="#00acee" d="M43.15 23.67v18.52"/>
  <path fill="none" stroke="#9b00ee" stroke-linecap="square" stroke-linejoin="round" stroke-width="2" d="M43.15 23.67v18.52"/>
  <path fill="none" stroke="#9b00ee" stroke-miterlimit="10" stroke-width="2" d="M22.85 23.67v18.52M42.89 32.93H22.85M28.22 20.08h9.9v8.19h-9.9zM33.17 12.27v7.81M27.59 37.69h11.18v8.19H27.59zM33.17 53.16v-7.28"/>
</svg>
