<svg xmlns="http://www.w3.org/2000/svg" viewBox="0 0 64.83 64.83"><defs><style>.a,.b,.c,.d{fill:none;stroke-width:2px;}.a{stroke:#4d606d;}.a,.b{stroke-linecap:square;}.a,.b,.c{stroke-linejoin:round;}.b,.c,.d{stroke:#00acee;}.c,.d{stroke-linecap:round;}.d{stroke-miterlimit:10;}</style></defs><title>SaaS Integration</title><path class="a" d="M63.83,35.27V29.56a1.43,1.43,0,0,0-1.43-1.43H57.45A1.43,1.43,0,0,1,56.06,27,24.23,24.23,0,0,0,53,19.52a1.42,1.42,0,0,1,.18-1.78l3.5-3.5a1.44,1.44,0,0,0,0-2l-4-4a1.42,1.42,0,0,0-2,0l-3.5,3.5a1.42,1.42,0,0,1-1.78.18,24.19,24.19,0,0,0-7.48-3.09A1.43,1.43,0,0,1,36.7,7.38V2.43A1.43,1.43,0,0,0,35.27,1H29.56a1.43,1.43,0,0,0-1.43,1.43V7.38A1.43,1.43,0,0,1,27,8.77a24.23,24.23,0,0,0-7.47,3.09,1.42,1.42,0,0,1-1.78-.18l-3.5-3.5a1.42,1.42,0,0,0-2,0l-4,4a1.42,1.42,0,0,0,0,2l3.5,3.5a1.42,1.42,0,0,1,.18,1.78A24.23,24.23,0,0,0,8.77,27a1.43,1.43,0,0,1-1.39,1.14H2.43A1.43,1.43,0,0,0,1,29.56v5.71A1.43,1.43,0,0,0,2.43,36.7H7.38a1.43,1.43,0,0,1,1.39,1.13,24.19,24.19,0,0,0,3.09,7.48,1.42,1.42,0,0,1-.18,1.78l-3.5,3.5a1.42,1.42,0,0,0,0,2l4,4a1.44,1.44,0,0,0,2,0l3.5-3.5A1.42,1.42,0,0,1,19.52,53,24.23,24.23,0,0,0,27,56.06a1.43,1.43,0,0,1,1.14,1.39V62.4a1.43,1.43,0,0,0,1.43,1.43h5.71A1.43,1.43,0,0,0,36.7,62.4V57.45a1.43,1.43,0,0,1,1.13-1.39A24.19,24.19,0,0,0,45.31,53a1.42,1.42,0,0,1,1.78.18l3.5,3.5a1.44,1.44,0,0,0,2,0l4-4a1.44,1.44,0,0,0,0-2l-3.5-3.5A1.42,1.42,0,0,1,53,45.31a24.19,24.19,0,0,0,3.09-7.48,1.43,1.43,0,0,1,1.39-1.13H62.4A1.43,1.43,0,0,0,63.83,35.27Z"/><line class="b" x1="42.38" y1="23.25" x2="42.38" y2="41.44"/><line class="b" x1="22.45" y1="23.25" x2="22.45" y2="41.44"/><line class="c" x1="42.13" y1="32.34" x2="22.45" y2="32.34"/><rect class="d" x="28.57" y="18.89" width="8.04" height="9.72" transform="translate(56.34 -8.83) rotate(90)"/><line class="b" x1="32.59" y1="12.06" x2="32.59" y2="19.73"/><rect class="d" x="28.57" y="35.55" width="8.04" height="10.97" transform="translate(-8.45 73.62) rotate(-90)"/><line class="b" x1="32.59" y1="52.2" x2="32.59" y2="45.05"/></svg>