<svg xmlns="http://www.w3.org/2000/svg" viewBox="0 0 70.67 66">
  <path fill="#4d606d" d="M22.11 20.75h4.2v4.2h-4.2z"/>
  <path fill="none" stroke="#4d606d" stroke-miterlimit="10" stroke-width="2" d="M22.11 20.75h4.2v4.2h-4.2z"/>
  <path fill="#4d606d" d="M11.62 20.75h4.2v4.2h-4.2z"/>
  <path fill="none" stroke="#4d606d" stroke-miterlimit="10" stroke-width="2" d="M11.62 20.75h4.2v4.2h-4.2z"/>
  <path fill="#4d606d" d="M32.69 20.75h4.2v4.2h-4.2z"/>
  <path fill="none" stroke="#4d606d" stroke-miterlimit="10" stroke-width="2" d="M32.69 20.75h4.2v4.2h-4.2z"/>
  <path fill="#4d606d" d="M43.27 20.75h4.2v4.2h-4.2z"/>
  <path fill="none" stroke="#4d606d" stroke-miterlimit="10" stroke-width="2" d="M43.27 20.75h4.2v4.2h-4.2z"/>
  <path fill="#4d606d" d="M22.11 30.57h4.2v4.2h-4.2z"/>
  <path fill="none" stroke="#4d606d" stroke-miterlimit="10" stroke-width="2" d="M22.11 30.57h4.2v4.2h-4.2z"/>
  <path fill="#4d606d" d="M32.69 30.57h4.2v4.2h-4.2z"/>
  <path fill="none" stroke="#4d606d" stroke-miterlimit="10" stroke-width="2" d="M32.69 30.57h4.2v4.2h-4.2z"/>
  <path fill="#4d606d" d="M22.11 40.39h4.2v4.2h-4.2z"/>
  <path fill="none" stroke="#4d606d" stroke-miterlimit="10" stroke-width="2" d="M22.11 40.39h4.2v4.2h-4.2z"/>
  <path fill="#4d606d" d="M11.62 30.57h4.2v4.2h-4.2z"/>
  <path fill="none" stroke="#4d606d" stroke-miterlimit="10" stroke-width="2" d="M11.62 30.57h4.2v4.2h-4.2z"/>
  <path fill="#4d606d" d="M11.62 40.39h4.2v4.2h-4.2z"/>
  <path fill="none" stroke="#4d606d" stroke-miterlimit="10" stroke-width="2" d="M11.62 40.39h4.2v4.2h-4.2z"/>
  <path fill="#4d606d" d="M32.69 40.39h4.2v4.2h-4.2z"/>
  <path fill="none" stroke="#4d606d" stroke-miterlimit="10" stroke-width="2" d="M32.69 40.39h4.2v4.2h-4.2z"/>
  <path fill="#4d606d" d="M43.27 30.57h4.2v4.2h-4.2z"/>
  <path fill="none" stroke="#4d606d" stroke-miterlimit="10" stroke-width="2" d="M43.27 30.57h4.2v4.2h-4.2z"/>
  <path fill="#4d606d" d="M43.27 40.39h4.2v4.2h-4.2z"/>
  <path fill="none" stroke="#4d606d" stroke-miterlimit="10" stroke-width="2" d="M43.27 40.39h4.2v4.2h-4.2z"/>
  <path d="M41.15 59.42H3.66A2.66 2.66 0 0 1 1 56.76V3.66A2.66 2.66 0 0 1 3.66 1h53.1a2.66 2.66 0 0 1 2.66 2.66v35.47" fill="none" stroke="#4d606d" stroke-linecap="square" stroke-linejoin="round" stroke-width="2"/>
  <path d="M7 6.31a.66.66 0 1 1-.66-.66.65.65 0 0 1 .66.66zM12.29 6.31a.67.67 0 1 1-.67-.66.66.66 0 0 1 .67.66zM17.6 6.31a.67.67 0 1 1-.67-.66.66.66 0 0 1 .67.66z" fill="none" stroke="#4d606d" stroke-linejoin="round" stroke-width="2"/>
  <path fill="none" stroke="#4d606d" stroke-linecap="round" stroke-linejoin="round" stroke-width="2" d="M1 11.62h58.42"/>
  <path d="M47.66 57.68A10.61 10.61 0 0 0 68 57M67.81 51a10.61 10.61 0 0 0-20.34.7" fill="none" stroke="#9b00ee" stroke-miterlimit="10" stroke-width="2"/>
  <path fill="none" stroke="#9b00ee" stroke-miterlimit="10" stroke-width="2" d="M63.06 50.4l5.31 1.32 1.33-5.31M45.8 62.34l1.32-5.31 5.32 1.33"/>
</svg>
