<svg xmlns="http://www.w3.org/2000/svg" viewBox="0 0 70.67 66"><title>Subscription-Management</title><rect x="22.11" y="20.75" width="4.2" height="4.2" style="fill:#4d606d"/><rect x="22.11" y="20.75" width="4.2" height="4.2" style="fill:none;stroke:#4d606d;stroke-miterlimit:10;stroke-width:2px"/><rect x="11.62" y="20.75" width="4.2" height="4.2" style="fill:#4d606d"/><rect x="11.62" y="20.75" width="4.2" height="4.2" style="fill:none;stroke:#4d606d;stroke-miterlimit:10;stroke-width:2px"/><rect x="32.69" y="20.75" width="4.2" height="4.2" style="fill:#4d606d"/><rect x="32.69" y="20.75" width="4.2" height="4.2" style="fill:none;stroke:#4d606d;stroke-miterlimit:10;stroke-width:2px"/><rect x="43.27" y="20.75" width="4.2" height="4.2" style="fill:#4d606d"/><rect x="43.27" y="20.75" width="4.2" height="4.2" style="fill:none;stroke:#4d606d;stroke-miterlimit:10;stroke-width:2px"/><rect x="22.11" y="30.57" width="4.2" height="4.2" style="fill:#4d606d"/><rect x="22.11" y="30.57" width="4.2" height="4.2" style="fill:none;stroke:#4d606d;stroke-miterlimit:10;stroke-width:2px"/><rect x="32.69" y="30.57" width="4.2" height="4.2" style="fill:#4d606d"/><rect x="32.69" y="30.57" width="4.2" height="4.2" style="fill:none;stroke:#4d606d;stroke-miterlimit:10;stroke-width:2px"/><rect x="22.11" y="40.39" width="4.2" height="4.2" style="fill:#4d606d"/><rect x="22.11" y="40.39" width="4.2" height="4.2" style="fill:none;stroke:#4d606d;stroke-miterlimit:10;stroke-width:2px"/><rect x="11.62" y="30.57" width="4.2" height="4.2" style="fill:#4d606d"/><rect x="11.62" y="30.57" width="4.2" height="4.2" style="fill:none;stroke:#4d606d;stroke-miterlimit:10;stroke-width:2px"/><rect x="11.62" y="40.39" width="4.2" height="4.2" style="fill:#4d606d"/><rect x="11.62" y="40.39" width="4.2" height="4.2" style="fill:none;stroke:#4d606d;stroke-miterlimit:10;stroke-width:2px"/><rect x="32.69" y="40.39" width="4.2" height="4.2" style="fill:#4d606d"/><rect x="32.69" y="40.39" width="4.2" height="4.2" style="fill:none;stroke:#4d606d;stroke-miterlimit:10;stroke-width:2px"/><rect x="43.27" y="30.57" width="4.2" height="4.2" style="fill:#4d606d"/><rect x="43.27" y="30.57" width="4.2" height="4.2" style="fill:none;stroke:#4d606d;stroke-miterlimit:10;stroke-width:2px"/><rect x="43.27" y="40.39" width="4.2" height="4.2" style="fill:#4d606d"/><rect x="43.27" y="40.39" width="4.2" height="4.2" style="fill:none;stroke:#4d606d;stroke-miterlimit:10;stroke-width:2px"/><path d="M41.15,59.42H3.66A2.66,2.66,0,0,1,1,56.76V3.66A2.66,2.66,0,0,1,3.66,1h53.1a2.66,2.66,0,0,1,2.66,2.66V39.13" style="fill:none;stroke:#4d606d;stroke-linecap:square;stroke-linejoin:round;stroke-width:2px"/><path d="M7,6.31a.66.66,0,1,1-.66-.66A.65.65,0,0,1,7,6.31Z" style="fill:none;stroke:#4d606d;stroke-linejoin:round;stroke-width:2px"/><path d="M12.29,6.31a.67.67,0,1,1-.67-.66A.66.66,0,0,1,12.29,6.31Z" style="fill:none;stroke:#4d606d;stroke-linejoin:round;stroke-width:2px"/><path d="M17.6,6.31a.67.67,0,1,1-.67-.66A.66.66,0,0,1,17.6,6.31Z" style="fill:none;stroke:#4d606d;stroke-linejoin:round;stroke-width:2px"/><line x1="1" y1="11.62" x2="59.42" y2="11.62" style="fill:none;stroke:#4d606d;stroke-linecap:round;stroke-linejoin:round;stroke-width:2px"/><path d="M47.66,57.68A10.61,10.61,0,0,0,68,57" style="fill:none;stroke:#9b00ee;stroke-miterlimit:10;stroke-width:2px"/><path d="M67.81,51a10.61,10.61,0,0,0-20.34.7" style="fill:none;stroke:#9b00ee;stroke-miterlimit:10;stroke-width:2px"/><polyline points="63.06 50.4 68.37 51.72 69.7 46.41" style="fill:none;stroke:#9b00ee;stroke-miterlimit:10;stroke-width:2px"/><polyline points="45.8 62.34 47.12 57.03 52.44 58.36" style="fill:none;stroke:#9b00ee;stroke-miterlimit:10;stroke-width:2px"/></svg>