<svg xmlns="http://www.w3.org/2000/svg" viewBox="0 0 65.62 61.27"><defs><style>.a{fill:#4d606d;}.b,.c,.d,.e{fill:none;stroke-linejoin:round;stroke-width:2px;}.b,.c{stroke:#4d606d;}.b,.d{stroke-linecap:square;}.c,.e{stroke-linecap:round;}.d,.e{stroke:#9b00ee;}</style></defs><title>Subscription-Management</title><rect class="a" x="20.55" y="19.29" width="3.89" height="3.89"/><rect class="a" x="10.84" y="19.29" width="3.89" height="3.89"/><rect class="a" x="30.35" y="19.29" width="3.89" height="3.89"/><rect class="a" x="40.15" y="19.29" width="3.89" height="3.89"/><rect class="a" x="20.55" y="28.39" width="3.89" height="3.89"/><rect class="a" x="30.35" y="28.39" width="3.89" height="3.89"/><rect class="a" x="20.55" y="37.48" width="3.89" height="3.89"/><rect class="a" x="10.84" y="28.39" width="3.89" height="3.89"/><rect class="a" x="10.84" y="37.48" width="3.89" height="3.89"/><rect class="a" x="30.35" y="37.48" width="3.89" height="3.89"/><rect class="a" x="40.15" y="28.39" width="3.89" height="3.89"/><rect class="a" x="40.15" y="37.48" width="3.89" height="3.89"/><path class="b" d="M38.19,55.11H3.46A2.46,2.46,0,0,1,1,52.65V3.46A2.46,2.46,0,0,1,3.46,1H52.65a2.46,2.46,0,0,1,2.46,2.46V36.32"/><circle class="c" cx="5.92" cy="5.92" r="0.61"/><circle class="c" cx="10.84" cy="5.92" r="0.61"/><circle class="c" cx="15.76" cy="5.92" r="0.61"/><line class="c" x1="1" y1="10.84" x2="55.11" y2="10.84"/><path class="d" d="M44.22,53.5a9.82,9.82,0,0,0,18.85-.6"/><path class="d" d="M62.88,47.33A9.82,9.82,0,0,0,44,48"/><polyline class="e" points="58.48 46.75 63.39 47.98 64.62 43.06"/><polyline class="e" points="42.49 57.82 43.72 52.9 48.64 54.13"/></svg>