<svg xmlns="http://www.w3.org/2000/svg" viewBox="0 0 67.26 66"><title>Training</title><path d="M25.07,54.24c1.19-3.5,4.21-5.83,7.68-5.56" style="fill:none;stroke:#9b00ee;stroke-miterlimit:10;stroke-width:2px"/><path d="M24.83,1a8.85,8.85,0,0,0-8.38,6.82C11.33,8,7.28,13.1,7.28,19.38c0,.49.07,1,.11,1.43C3.67,22.65,1,27.71,1,33.68a17,17,0,0,0,2.83,9.69,13.73,13.73,0,0,0-.22,4.41c.67,6.34,5.43,11,10.62,10.34A9.84,9.84,0,0,0,23.56,65a10,10,0,0,0,9.89-10.21V10.53C33.45,5.27,29.72,1,24.83,1Z" style="fill:none;stroke:#4d606d;stroke-miterlimit:10;stroke-width:2px"/><path d="M25.06,20.06c-4.89,0-8.86-4.26-8.86-9.53a10.15,10.15,0,0,1,.37-2.72" style="fill:none;stroke:#4d606d;stroke-miterlimit:10;stroke-width:2px"/><path d="M13.67,33.22c2.77,1.78,6,.22,8.3-2.73,2.93-3.72,7.74-5.17,10.66-1.45a2.36,2.36,0,0,1,.43,1" style="fill:none;stroke:#9b00ee;stroke-miterlimit:10;stroke-width:2px"/><path d="M25.07,9.17c1.19,3.48,4.18,5.8,7.62,5.57" style="fill:none;stroke:#9b00ee;stroke-miterlimit:10;stroke-width:2px"/><path d="M18.12,17.53c-2.31.82-4.45,2.7-4.45,5.26" style="fill:none;stroke:#4d606d;stroke-miterlimit:10;stroke-width:2px"/><path d="M14.94,48.66C12.41,48,9.88,46,9.88,43.21" style="fill:none;stroke:#4d606d;stroke-miterlimit:10;stroke-width:2px"/><path d="M14.94,59.74a10.32,10.32,0,0,1-1.38-5,10.06,10.06,0,0,1,10-10.22V43.21c0-2.38,3.16-5.44,5.17-5.44" style="fill:none;stroke:#4d606d;stroke-miterlimit:10;stroke-width:2px"/><path d="M8.61,28.23a4.78,4.78,0,0,1,0,9.54" style="fill:none;stroke:#9b00ee;stroke-miterlimit:10;stroke-width:2px"/><path d="M42.11,17.75c2.09.91,3.89,2.69,3.89,5" style="fill:none;stroke:#9b00ee;stroke-miterlimit:10;stroke-width:2px"/><path d="M34.61,20.83a8.89,8.89,0,0,0,8.86-8.94" style="fill:none;stroke:#9b00ee;stroke-miterlimit:10;stroke-width:2px"/><path d="M51.07,44.57c-5.17,0-7.6,3.58-7.6,9.54" style="fill:none;stroke:#9b00ee;stroke-miterlimit:10;stroke-width:2px"/><path d="M34.1,44.59c4.19-.47,8,.79,10.28,3.12" style="fill:none;stroke:#9b00ee;stroke-miterlimit:10;stroke-width:2px"/><path d="M42.26,1c4,0,7,2.88,8.11,6.83,5.12.17,10,5.85,10,12.13a13.39,13.39,0,0,1-.09,1.43c3.73,1.84,6,6.32,6,12.29a17,17,0,0,1-2.83,9.69,13.72,13.72,0,0,1,.23,4.41C63,54.12,58.23,58.74,53,58.12a10.05,10.05,0,0,1-19.59-3.33V10.53C33.45,5.27,37.36,1,42.26,1Z" style="fill:none;stroke:#4d606d;stroke-miterlimit:10;stroke-width:2px"/><path d="M52.33,59.74a10.28,10.28,0,0,0,0-9.9" style="fill:none;stroke:#4d606d;stroke-miterlimit:10;stroke-width:2px"/><path d="M52.56,16.71c0,2.64,1.76,4.77,4.2,4.77h3.48" style="fill:none;stroke:#4d606d;stroke-miterlimit:10;stroke-width:2px"/><path d="M58,29.6a4.78,4.78,0,0,0,0,9.53" style="fill:none;stroke:#9b00ee;stroke-miterlimit:10;stroke-width:2px"/><path d="M38.41,28.23a4.78,4.78,0,0,1,0,9.54" style="fill:none;stroke:#9b00ee;stroke-miterlimit:10;stroke-width:2px"/><path d="M43.47,32.32c2.33-1.68,7.4-2,9.74.82" style="fill:none;stroke:#9b00ee;stroke-miterlimit:10;stroke-width:2px"/><path d="M63.42,43.36a8.59,8.59,0,0,1-5.52,3.12" style="fill:none;stroke:#4d606d;stroke-miterlimit:10;stroke-width:2px"/><line x1="50.37" y1="7.83" x2="50.37" y2="12.38" style="fill:none;stroke:#4d606d;stroke-miterlimit:10;stroke-width:2px"/></svg>