<svg xmlns="http://www.w3.org/2000/svg" viewBox="0 0 505.75 175.52">
    <defs>
        <style>.a{fill:none;stroke:#f5f5f2;stroke-width:12.19px}.b{fill:#f5f5f2}</style>
    </defs>
    <path class="a" d="M135.86 102.82a40.38 40.38 0 1 1-40.38-40.38 40.38 40.38 0 0 1 40.38 40.38z"/>
    <path class="b" d="M141.81 104c0 12-1.06 41.28-3.16 46.86a34.37 34.37 0 0 1-15.07 18.23q-10.74 6.39-25.81 6.39a58.9 58.9 0 0 1-19.85-3.13A39.6 39.6 0 0 1 63.59 164q-5.52-5.25-10.18-15.39h12a31.71 31.71 0 0 0 12.64 12.63q7.74 4.1 19.2 4.1t19.09-4.21q7.79-4.21 11.1-10.58t3.32-20.55v-5.52L141.81 104zM222.12 117.26l9.31 6.59c-3.05 6-6.58 9.14-10.58 12.83a42.19 42.19 0 0 1-13.51 8.4 47.18 47.18 0 0 1-17 2.88q-21 0-32.86-13.77t-11.85-31.14a45.9 45.9 0 0 1 10-29.12q12.72-16.26 34.05-16.26 22 0 35.08 16.66 9.31 11.76 9.48 29.36H157q.3 15 9.56 24.53a30.5 30.5 0 0 0 22.83 9.56 36.75 36.75 0 0 0 12.77-2.28 33.56 33.56 0 0 0 10.55-6q4.33-3.78 9.4-12.19zm0-23.12q-2.21-8.85-6.44-14.13a30.54 30.54 0 0 0-11.18-8.53 34.37 34.37 0 0 0-14.62-3.23 31.46 31.46 0 0 0-21.73 8.13q-6.64 5.92-10 17.76z"/>
    <path class="a" d="M324.37 102.82A40.38 40.38 0 1 1 284 62.44a40.38 40.38 0 0 1 40.38 40.38z"/>
    <path class="b" d="M330.31 147.96h-11.04v-23.51l11.04-20.41v43.92zM493.17 98.6l.11.08h-64q2.22-8.83 6.45-14.13A30.31 30.31 0 0 1 446.89 76a34.17 34.17 0 0 1 14.54-3.24V62.22q-21.78.09-34.84 16.65-9.32 11.76-9.48 29.36h77.27q-.32 15-9.56 24.53a30.47 30.47 0 0 1-22.82 9.57 36.49 36.49 0 0 1-12.78-2.33 33.37 33.37 0 0 1-10.55-6q-4.35-3.76-9.41-12.19l-9.3 4.9a50.67 50.67 0 0 0 10.58 14.52 42.11 42.11 0 0 0 13.51 8.41 47.13 47.13 0 0 0 17 2.88q21 0 32.87-13.78t11.85-31.13a50 50 0 0 0-.81-9z"/>
    <path class="b" d="M353.52 94c2.15-5.66 5-10.09 8.52-13.24a31.46 31.46 0 0 1 21.73-8.13 34.23 34.23 0 0 1 14.62 3.24 30.31 30.31 0 0 1 11.18 8.52 32.29 32.29 0 0 1 5.09 9.61l.08.23c.46 1.36.89 2.78 1.26 4.29a50.76 50.76 0 0 1 1.4 9.55h10.82q-.15-17.61-9.47-29.36Q405.58 62 383.62 62q-21.33 0-34 16.26a45.91 45.91 0 0 0-10 29.13v41.93h11.39v-39c0-.28-.65-9.06 2.61-16.4zM39.58 59.93A19.53 19.53 0 0 0 34 35.32 19.59 19.59 0 1 0 9.57 4.73L4.79.26 0 6.09l4.85 4.54a19.53 19.53 0 0 0 5.62 24.61 19.59 19.59 0 1 0 24.44 30.6l6.53 6.06 5.11-5.5zM22.22 31.12A11.72 11.72 0 1 1 33.93 19.4a11.72 11.72 0 0 1-11.71 11.72z"/>
    <circle cx="249.22" cy="412.4" r="11.72" transform="rotate(-13.28 -1552.2 1190.95)" stroke-miterlimit="10" fill="none" stroke="#f5f5f2"/>
</svg>