<svg xmlns="http://www.w3.org/2000/svg" xmlns:xlink="http://www.w3.org/1999/xlink" viewBox="0 0 490.27 762.96">
  <defs>
    <style>
      .cls-1{isolation:isolate}.cls-2{fill:none;stroke:#ccc;stroke-miterlimit:10;stroke-width:1.41px}.cls-3{fill:#ccc}.cls-7{mix-blend-mode:multiply;fill:#0096ee;opacity:.4}.cls-8{fill:#8200e6}.cls-10{fill:#ef6c00}.cls-12{fill:#fff}.cls-37{fill:#00acee}
    </style>
    <linearGradient id="linear-gradient" x1="420.62" y1="359.43" x2="471.27" y2="660.45" gradientUnits="userSpaceOnUse">
      <stop offset="0" stop-color="#38cbff"/>
      <stop offset="1" stop-color="#00abee"/>
    </linearGradient>
    <linearGradient id="linear-gradient-2" x1="474.88" y1="713.88" x2="492.14" y2="778.74" gradientUnits="userSpaceOnUse">
      <stop offset="0" stop-color="#c81eff"/>
      <stop offset="1" stop-color="#9b00ee"/>
    </linearGradient>
    <linearGradient id="linear-gradient-3" x1="328.14" y1="329.59" x2="353.58" y2="425.23" gradientUnits="userSpaceOnUse">
      <stop offset="0" stop-color="#ff8f00"/>
      <stop offset="1" stop-color="#f57c00"/>
    </linearGradient>
    <linearGradient id="linear-gradient-4" x1="349.91" y1="411.42" x2="371.8" y2="411.42" xlink:href="#linear-gradient-2"/>
    <linearGradient id="linear-gradient-5" x1="349.78" y1="402.35" x2="371.65" y2="402.35" xlink:href="#linear-gradient-2"/>
    <linearGradient id="linear-gradient-6" x1="364.81" y1="408.06" x2="373.17" y2="408.06" xlink:href="#linear-gradient-2"/>
    <linearGradient id="linear-gradient-7" x1="348.41" y1="405.74" x2="356.77" y2="405.74" xlink:href="#linear-gradient-2"/>
    <linearGradient id="linear-gradient-8" x1="471.23" y1="413.48" x2="496.67" y2="509.12" xlink:href="#linear-gradient-3"/>
    <linearGradient id="linear-gradient-9" x1="490.78" y1="477.49" x2="500.63" y2="477.49" xlink:href="#linear-gradient-2"/>
    <linearGradient id="linear-gradient-10" x1="328.14" y1="502.61" x2="353.58" y2="598.26" xlink:href="#linear-gradient-3"/>
    <linearGradient id="linear-gradient-11" x1="317.57" y1="532.91" x2="324.35" y2="532.91" xlink:href="#linear-gradient-2"/>
    <linearGradient id="linear-gradient-12" x1="327.75" y1="529.83" x2="334.53" y2="529.83" xlink:href="#linear-gradient-2"/>
    <linearGradient id="linear-gradient-13" x1="345.16" y1="542.31" x2="351.95" y2="542.31" xlink:href="#linear-gradient-2"/>
    <linearGradient id="linear-gradient-14" x1="336.53" y1="547.07" x2="343.31" y2="547.07" xlink:href="#linear-gradient-2"/>
    <linearGradient id="linear-gradient-15" x1="355.35" y1="557.95" x2="362.13" y2="557.95" xlink:href="#linear-gradient-2"/>
    <linearGradient id="linear-gradient-16" x1="471.23" y1="586.51" x2="496.67" y2="682.15" xlink:href="#linear-gradient-3"/>
    <linearGradient id="linear-gradient-17" x1="492.99" y1="654.31" x2="508.64" y2="654.31" xlink:href="#linear-gradient-2"/>
    <linearGradient id="linear-gradient-18" x1="504.33" y1="649.02" x2="513.18" y2="649.02" xlink:href="#linear-gradient-2"/>
    <linearGradient id="linear-gradient-19" x1="510.01" y1="645.25" x2="518.85" y2="645.25" xlink:href="#linear-gradient-2"/>
    <linearGradient id="linear-gradient-20" x1="508.88" y1="675.61" x2="521.12" y2="675.61" xlink:href="#linear-gradient-2"/>
    <linearGradient id="linear-gradient-21" x1="480.2" y1="637.22" x2="489.05" y2="637.22" xlink:href="#linear-gradient-2"/>
    <linearGradient id="linear-gradient-22" x1="487.08" y1="661.35" x2="493.37" y2="661.35" xlink:href="#linear-gradient-2"/>
    <linearGradient id="linear-gradient-23" x1="490.71" y1="658.83" x2="497.3" y2="658.83" xlink:href="#linear-gradient-2"/>
    <linearGradient id="linear-gradient-24" x1="487.16" y1="643.81" x2="495.48" y2="643.81" xlink:href="#linear-gradient-2"/>
    <linearGradient id="linear-gradient-25" x1="505.39" y1="665.81" x2="512.2" y2="665.81" xlink:href="#linear-gradient-2"/>
    <linearGradient id="linear-gradient-26" x1="320.94" y1="521.05" x2="432.4" y2="521.05" xlink:href="#linear-gradient-2"/>
    <linearGradient id="linear-gradient-27" x1="331.8" y1="630.47" x2="349.05" y2="695.33" xlink:href="#linear-gradient-2"/>
  </defs>
  <g class="cls-1">
    <g id="Layer_2" data-name="Layer 2">
      <path class="cls-2" d="M56.74 638.34V482.2l232.5 137.28M116.4 599.09v-190M6.93 402.34l211.65 124.98V425.98l70.66 41.72"/>
      <path class="cls-2" d="M162.77 665.7v-39.24L14.59 538.97v39.23"/>
      <path class="cls-3" d="M255.56 702.43c0 3.83-3.1 5.1-6.93 2.84s-6.92-7.19-6.92-11 3.1-5.09 6.92-2.83 6.93 7.17 6.93 10.99zM403.74 789.93c0 3.82-3.1 5.1-6.93 2.84s-6.92-7.2-6.92-11 3.1-5.1 6.92-2.84 6.93 7.18 6.93 11zM247.9 526.57c0 3.83-3.11 5.1-6.93 2.84s-6.93-7.19-6.93-11 3.1-5.09 6.93-2.83 6.93 7.17 6.93 10.99zM357.37 534.3c0 3.83-3.1 5.09-6.92 2.84s-6.93-7.19-6.93-11 3.1-5.09 6.93-2.84 6.92 7.17 6.92 11zM414 425.45c0 3.83-3.1 5.1-6.93 2.84s-6.92-7.19-6.92-11 3.1-5.09 6.92-2.83 6.93 7.17 6.93 10.99zM474.17 356.17c0 3.83-3.1 5.1-6.93 2.84s-6.92-7.19-6.92-11 3.1-5.09 6.92-2.84 6.93 7.18 6.93 11zM309.68 420.61c0 3.82-3.1 5.09-6.93 2.83s-6.93-7.19-6.93-11 3.11-5.1 6.93-2.84 6.93 7.18 6.93 11.01zM316.6 132.28c0 3.82-3.1 5.09-6.92 2.83s-6.93-7.19-6.93-11 3.1-5.1 6.93-2.84 6.92 7.18 6.92 11.01zM445.23 137.2c0 3.82-3.1 5.1-6.92 2.84s-6.93-7.19-6.93-11 3.1-5.09 6.93-2.84 6.92 7.18 6.92 11zM257 178.77c0 3.82-3.1 5.09-6.93 2.83s-6.92-7.19-6.92-11 3.1-5.1 6.92-2.84 6.93 7.18 6.93 11.01zM257 322.48c0 3.82-3.1 5.09-6.93 2.84s-6.92-7.2-6.92-11 3.1-5.1 6.92-2.84 6.93 7.17 6.93 11zM297.71 762.57c0 3.83-3.1 5.1-6.93 2.84s-6.92-7.19-6.92-11 3.1-5.09 6.92-2.83 6.93 7.17 6.93 10.99z" transform="translate(-234.04 -120.14)"/>
      <path class="cls-2" d="M172.99 501.54V301.22M258.42 450.99V408.4L68.71 296.38M125 328.32V102.39l79.26 46.8V12.97M289.24 296.58L16.06 135.28M16.06 201.63V54.54M204.26 83.4L75.63 7.45M233.2 392.21v-167.2"/>
      <path class="cls-2" d="M433.53 124.35v156.14L201.04 147.28M373.87 164.65v190M483.35 359.48L271.69 238.21v101.33l-70.65-40.48"/>
      <path class="cls-2" d="M327.5 98.85v39.23l148.18 84.9v-39.23"/>
      <path class="cls-3" d="M702.8 299.92c0-3.82 3.1-5.15 6.92-3s6.93 7.07 6.93 10.9-3.1 5.15-6.93 3-6.92-7.07-6.92-10.9zM554.62 215c0-3.82 3.1-5.15 6.93-3s6.92 7.07 6.92 10.9-3.1 5.15-6.92 3-6.93-7.05-6.93-10.9zM710.46 475.65c0-3.83 3.11-5.15 6.93-3s6.93 7.07 6.93 10.9-3.11 5.15-6.93 3-6.93-7.08-6.93-10.9zM601 469.84c0-3.83 3.1-5.15 6.92-3s6.93 7.07 6.93 10.9-3.1 5.14-6.93 3-6.92-7.08-6.92-10.9zM544.4 579.68c0-3.83 3.1-5.15 6.93-3s6.92 7.07 6.92 10.89-3.1 5.15-6.92 3-6.93-7.07-6.93-10.89zM484.19 650c0-3.82 3.1-5.15 6.93-3s6.88 7.12 6.88 11-3.1 5.15-6.92 3-6.89-7.16-6.89-11zM648.68 582.7c0-3.83 3.1-5.15 6.93-3s6.92 7.07 6.92 10.89-3.1 5.15-6.92 3-6.93-7.07-6.93-10.89zM641.75 871.15c0-3.83 3.11-5.15 6.93-3s6.93 7.07 6.93 10.9-3.1 5.15-6.93 2.95-6.93-7-6.93-10.85zM513.12 868.48c0-3.83 3.11-5.15 6.93-3s6.93 7.07 6.93 10.89-3.1 5.15-6.93 3-6.93-7.07-6.93-10.89zM701.33 823.62c0-3.83 3.1-5.15 6.93-3s6.92 7.07 6.92 10.89-3.1 5.15-6.92 3-6.93-7.07-6.93-10.89zM701.33 679.9c0-3.82 3.1-5.15 6.93-2.95s6.92 7.07 6.92 10.89-3.1 5.15-6.92 3-6.93-7.11-6.93-10.94zM660.65 240.52c0-3.82 3.1-5.15 6.93-3s6.92 7.07 6.92 10.9-3.1 5.15-6.92 3-6.93-7.07-6.93-10.9z" transform="translate(-234.04 -120.14)"/>
      <path class="cls-2" d="M317.28 263.18V463.5M231.85 315.23v42.59l189.71 108.7M365.27 435.56V661.5l-79.26-45.41V752.3M201.04 470.18L474.21 626.7M474.21 560.34v147.1M286.01 681.87l128.63 73.7M257.07 373.57v167.2"/>
      <path d="M638.19 313.52v492.94a6.25 6.25 0 0 1-2 5 4.5 4.5 0 0 1-1.06.63 6.25 6.25 0 0 1-3.69.26 12.22 12.22 0 0 1-3.82-1.49l-126.79-73.31-14.7-8.55-107.58-62.23c-5.86-3.39-10.61-10.89-10.61-16.75V157.08c0-2.5.86-4.3 2.31-5.27l.44-.26c1.94-1 4.75-.74 7.86 1.06l249 144.16c5.89 3.4 10.64 10.89 10.64 16.75z" transform="translate(-234.04 -120.14)" style="mix-blend-mode:multiply" fill="#e6e6e6"/>
      <path d="M583.45 320.1l-249-144.17c-3.18-1.84-6-2.08-8-1l-.14.08-.09.06-12.61 7.6 10.22 8.12v482.55c0 5.86 4.75 13.36 10.6 16.75L580 832.25l-4 8 2.38 2.83 12.62-7.62a4.4 4.4 0 0 0 1-.58h.08a6.18 6.18 0 0 0 2-5V336.84c-.02-5.84-4.77-13.35-10.63-16.74z" transform="translate(-234.04 -120.14)" fill="#0096ee"/>
      <path d="M581.53 344.38v493a6.25 6.25 0 0 1-2 5 4.37 4.37 0 0 1-1.07.63 6.25 6.25 0 0 1-3.69.26 12.51 12.51 0 0 1-3.82-1.5l-126.78-73.35-14.7-8.51-107.59-62.28c-5.85-3.39-10.6-10.88-10.6-16.74V188c0-2.51.86-4.3 2.31-5.27l.44-.26c1.94-1 4.74-.74 7.85 1.06l249 144.16c5.9 3.31 10.65 10.84 10.65 16.69z" transform="translate(-234.04 -120.14)" fill="url(#linear-gradient)"/>
      <path class="cls-7" d="M563 732.74v41.86a4.29 4.29 0 0 1-1.84 3.94c-1.42.85-3.54.68-5.9-.68l-25.58-14.69-56.83-32.64c-4.27-2.47-7.73-7.94-7.73-12.21v-41.86a4.43 4.43 0 0 1 1.62-3.81l.32-.2c1.42-.77 3.49-.58 5.79.75l82.41 47.33c4.25 2.47 7.74 7.94 7.74 12.21zM419.89 331v104.23a4.28 4.28 0 0 1-1.85 3.93c-1.42.85-3.53.69-5.89-.68l-25.59-14.69-56.82-32.64c-4.28-2.47-7.74-7.94-7.74-12.21v-104.2a4.41 4.41 0 0 1 1.63-3.8 3.53 3.53 0 0 1 .32-.21c1.42-.77 3.48-.58 5.79.75l82.41 47.33c4.27 2.48 7.74 7.95 7.74 12.19zM563 414.92v104.2a4.29 4.29 0 0 1-1.84 3.94c-1.42.85-3.54.68-5.9-.68l-25.58-14.69-56.83-32.64c-4.27-2.47-7.73-7.95-7.73-12.21v-104.2a4.42 4.42 0 0 1 1.62-3.81l.32-.2c1.42-.77 3.49-.58 5.79.75l82.41 47.33c4.25 2.47 7.74 7.94 7.74 12.21zM419.89 504.05v104.2a4.29 4.29 0 0 1-1.85 3.94c-1.42.85-3.53.69-5.89-.68l-25.59-14.69-56.82-32.64c-4.28-2.47-7.74-7.94-7.74-12.21v-104.2a4.44 4.44 0 0 1 1.63-3.81l.32-.2c1.42-.77 3.48-.58 5.79.75l82.41 47.33c4.27 2.47 7.74 7.94 7.74 12.21zM563 588v104.2a4.3 4.3 0 0 1-1.84 3.94c-1.42.85-3.54.68-5.9-.69l-25.58-14.69-56.83-32.63c-4.27-2.48-7.73-8-7.73-12.22V531.67a4.42 4.42 0 0 1 1.62-3.81 2.8 2.8 0 0 1 .32-.2c1.42-.78 3.49-.59 5.79.74l82.41 47.33c4.25 2.48 7.74 7.95 7.74 12.27zM419.89 649.33v41.86a4.29 4.29 0 0 1-1.85 3.94c-1.42.85-3.53.68-5.89-.68l-25.59-14.69-56.82-32.64c-4.28-2.48-7.74-8-7.74-12.21v-41.86a4.43 4.43 0 0 1 1.63-3.81l.32-.2c1.42-.77 3.48-.58 5.79.75l82.41 47.33c4.27 2.47 7.74 7.94 7.74 12.21z" transform="translate(-234.04 -120.14)"/>
      <path class="cls-8" d="M539.19 745.35v41.86a4.5 4.5 0 0 1-1.47 3.67h-.06a3.29 3.29 0 0 1-.7.41l-7.22 4.58v-.06l-4.38-4.59-25.96-14.82-54-31c-4.27-2.48-7.74-7.95-7.74-12.22v-34.26l-2.39-8.92.32-.19 7.46-4.58h.07l.1-.06c1.42-.8 3.49-.62 5.81.72l82.41 47.33c4.29 2.39 7.75 7.86 7.75 12.13z" transform="translate(-234.04 -120.14)"/>
      <path d="M531.53 750.06v41.86a4.29 4.29 0 0 1-1.84 3.94c-1.42.85-3.54.68-5.9-.68l-25.58-14.7-56.83-32.63c-4.27-2.47-7.73-8-7.73-12.22v-41.85a4.42 4.42 0 0 1 1.62-3.81l.32-.2c1.42-.77 3.49-.58 5.79.75l82.41 47.33c4.28 2.47 7.74 7.94 7.74 12.21z" transform="translate(-234.04 -120.14)" fill="url(#linear-gradient-2)"/>
      <path class="cls-10" d="M396.1 343.63v104.2a4.5 4.5 0 0 1-1.47 3.67h-.06a3.22 3.22 0 0 1-.69.41l-7.22 4.57h-.06l-4.38-4.59-19.76-11.35-6.14-3.54-54-31c-4.27-2.48-7.73-7.95-7.73-12.22V297.2l-2.42-8.95.11-.06.21-.13 7.46-4.58.07-.05.1-.06c1.42-.8 3.5-.62 5.81.72l82.41 47.33c4.3 2.47 7.76 7.94 7.76 12.21z" transform="translate(-234.04 -120.14)"/>
      <path d="M388.44 348.34v104.2a4.29 4.29 0 0 1-1.84 3.94c-1.42.85-3.54.68-5.9-.68l-20.45-11.75-5.13-2.95-56.83-32.63c-4.27-2.48-7.73-8-7.73-12.22V292.06a4.45 4.45 0 0 1 1.62-3.81l.11-.07.21-.13c1.42-.77 3.49-.59 5.79.75l82.41 47.33c4.3 2.47 7.74 7.94 7.74 12.21z" transform="translate(-234.04 -120.14)" fill="url(#linear-gradient-3)"/>
      <path class="cls-12" d="M96.87 241.5l-3.99-2.31v-3.98l3.99 2.3v3.99zM86.9 235.73l-3.99-2.3v-3.99l3.99 2.31v3.98zM106.92 247.32l-3.98-2.31v-3.99l3.98 2.31v3.99zM116.98 253.14l-3.99-2.31v-3.99l3.99 2.31v3.99zM96.87 250.83l-3.99-2.3v-3.99l3.99 2.3v3.99zM106.92 256.65l-3.98-2.31v-3.98l3.98 2.3v3.99zM96.87 260.17l-3.99-2.31v-3.99l3.99 2.31v3.99zM86.9 245.07l-3.99-2.31v-3.99l3.99 2.31v3.99zM86.9 254.4l-3.99-2.31v-3.99l3.99 2.31v3.99zM106.92 265.98l-3.98-2.3v-3.99l3.98 2.3v3.99zM116.98 262.47l-3.99-2.31v-3.99l3.99 2.31v3.99zM116.98 271.8l-3.99-2.3v-4l3.99 2.31v3.99z"/>
      <path class="cls-12" d="M346.05 404.19L309.38 383a7.42 7.42 0 0 1-3.55-5.6v-50.5c0-1.95 1.6-2.62 3.55-1.49l50.48 29.2a7.39 7.39 0 0 1 3.55 5.6V395l-2.06-1.19V359a3.13 3.13 0 0 0-1.49-2.36l-50.48-29.2c-.82-.48-1.49-.2-1.49.63v50.47a3.13 3.13 0 0 0 1.49 2.37l36.67 21.21z" transform="translate(-234.04 -120.14)"/>
      <path class="cls-12" d="M311.9 331.28c-.91-.53-1.65-.22-1.65.7a3.45 3.45 0 0 0 1.65 2.61c.92.53 1.66.22 1.66-.7a3.43 3.43 0 0 0-1.66-2.61zm0 2.05a.83.83 0 0 1-.39-.62c0-.22.18-.3.39-.17a.84.84 0 0 1 .4.62c0 .22-.18.3-.4.17zM317 334.2c-.91-.53-1.66-.22-1.66.7a3.46 3.46 0 0 0 1.66 2.61c.92.53 1.66.22 1.66-.7a3.43 3.43 0 0 0-1.66-2.61zm0 2.05a.79.79 0 0 1-.39-.62c0-.22.17-.3.39-.17a.84.84 0 0 1 .4.63c-.05.21-.23.29-.4.16zM322 337.12c-.91-.53-1.66-.22-1.66.7a3.46 3.46 0 0 0 1.66 2.61c.91.53 1.66.22 1.66-.7a3.46 3.46 0 0 0-1.66-2.61zm0 2.05a.82.82 0 0 1-.4-.62c0-.22.18-.3.4-.17a.82.82 0 0 1 .39.62c0 .22-.17.3-.39.17zM362.38 368.21l-55.52-32.12a2.11 2.11 0 0 1-1-1.61c0-.57.46-.77 1-.44l55.52 32.12a2.13 2.13 0 0 1 1 1.62c.03.57-.38.76-1 .43z" transform="translate(-234.04 -120.14)"/>
      <path d="M360.79 418a24.4 24.4 0 0 1-10.56-13.77l-.32-1.16 1.95.49.32 1.16a19.91 19.91 0 0 0 8.61 11.28c4.13 2.39 7.74 1.68 8.77-1.73l.26-.85 2 1.67-.25.84c-1.29 4.15-5.71 5.07-10.78 2.07z" transform="translate(-234.04 -120.14)" fill="url(#linear-gradient-4)"/>
      <path d="M351.76 400.4l-2-1.66.25-.84c1.27-4.18 5.69-5 10.76-2.12a24.42 24.42 0 0 1 10.54 13.7l.32 1.17-1.94-.48-.33-1.16a19.91 19.91 0 0 0-8.59-11.18c-4.13-2.39-7.74-1.68-8.77 1.73z" transform="translate(-234.04 -120.14)" fill="url(#linear-gradient-5)"/>
      <path d="M370.88 411.24l-.25-.17-5-4.19a1.85 1.85 0 0 1-.75-1.67c.14-.47.7-.48 1.24 0l4.06 3.36 1-3.47c.14-.47.7-.48 1.24 0a1.85 1.85 0 0 1 .75 1.67l-1.29 4.23c-.12.44-.54.51-1 .24z" transform="translate(-234.04 -120.14)" fill="url(#linear-gradient-6)"/>
      <path d="M349.43 408.93l-.25-.18a1.86 1.86 0 0 1-.74-1.68l1.26-4.31a.45.45 0 0 1 .47-.36 1.2 1.2 0 0 1 .77.33l5.05 4.18a1.88 1.88 0 0 1 .75 1.68c-.14.47-.7.48-1.25 0l-4.05-3.36-1 3.46c-.13.43-.55.5-1.01.24z" transform="translate(-234.04 -120.14)" fill="url(#linear-gradient-7)"/>
      <path class="cls-10" d="M539.19 427.53v104.2a4.5 4.5 0 0 1-1.47 3.67h-.06a3.29 3.29 0 0 1-.7.41l-7.22 4.58v-.06l-4.38-4.59-25.96-14.82-54-31c-4.27-2.48-7.74-7.95-7.74-12.22v-96.6l-2.41-9 .32-.19 7.46-4.58.07-.05.1-.06c1.42-.8 3.49-.62 5.81.72l82.41 47.33c4.31 2.52 7.77 7.99 7.77 12.26z" transform="translate(-234.04 -120.14)"/>
      <path d="M531.53 432.23v104.2a4.32 4.32 0 0 1-1.85 4c-1.42.84-3.53.68-5.89-.69L498.2 525l-36.73-21.1-20.09-11.54c-4.28-2.47-7.74-7.94-7.74-12.21V376a4.41 4.41 0 0 1 1.63-3.8 2.2 2.2 0 0 1 .32-.21c1.42-.77 3.48-.58 5.79.75L523.79 420c4.27 2.49 7.74 8 7.74 12.23z" transform="translate(-234.04 -120.14)" fill="url(#linear-gradient-8)"/>
      <path d="M494.15 480.36a2.09 2.09 0 0 1-.73-.72l-2.34-3.64c-.4-.64-.4-1.29 0-1.46s1.05.21 1.45.84l1.62 2.55 4.73-2c.4-.17 1.05.21 1.45.84s.4 1.29 0 1.46l-5.46 2.29a.85.85 0 0 1-.72-.16z" transform="translate(-234.04 -120.14)" fill="url(#linear-gradient-9)"/>
      <path class="cls-12" d="M489.66 454.07a5.39 5.39 0 0 0-.74-1.32 17 17 0 0 0-.38-3.34c-.12-.88-1-5.71-7.37-9.38s-7.25.1-7.37.83a11.45 11.45 0 0 0-.38 2.91 1.05 1.05 0 0 0-.74.46c-.48.75-.24 2.27.71 4.53a3.5 3.5 0 0 0 .61.92 27.48 27.48 0 0 0 2.56 5.64 20.61 20.61 0 0 0 1.58 2.28 11.27 11.27 0 0 0 3 2.69 5.17 5.17 0 0 0 3.12.79 4.31 4.31 0 0 0 1.56-.47 6.17 6.17 0 0 0 2.48-2.63c.26 0 .47 0 .62-.21a3.6 3.6 0 0 0 .74-3.7zm-2.39 1.54c-.33 0-.65 0-.77.4-.32.94-2.45 3.89-5.3 2.23s-5-7.07-5.3-8.38a3.26 3.26 0 0 0-.77-1.28c-.73-1.82-.58-2.28-.54-2.35s.12-.07.12-.08c.5.2.86-.05.83-.58a10.8 10.8 0 0 1 .32-3.06.41.41 0 0 0 0-.16c0-.13.31-3.15 5.34-.23s5.31 6.06 5.34 6.41a.76.76 0 0 0 0 .21 14.32 14.32 0 0 1 .32 3.43 2.07 2.07 0 0 0 .83 1.54.9.9 0 0 1 .11.19c.04.1.2.73-.53 1.71z" transform="translate(-234.04 -120.14)"/>
      <path class="cls-12" d="M466.85 462.09a2.14 2.14 0 0 1-1-1.63c0-4.83 2.7-6.69 7.81-5.37a6.23 6.23 0 0 0 3.54.1c.4-.17 1.05.21 1.45.84s.4 1.28 0 1.45a7.23 7.23 0 0 1-4.37-.07c-4.24-1.09-6.38.33-6.38 4.24-.02.57-.48.76-1.05.44zM490.62 467.75a2.1 2.1 0 0 1-.45-.37c-.56-.6-1.19-1.22-1.88-1.84a27 27 0 0 1-4.36-5c-.4-.63-.39-1.28 0-1.45s1.05.22 1.45.85a22.6 22.6 0 0 0 3.53 4c.79.71 1.51 1.42 2.16 2.12.51.54.71 1.28.46 1.64s-.53.3-.91.05zM509.49 501.71l-11-6.37v-2l11 6.37c.53.31 1 .12 1-.41v-11l2.05 1.19v11c-.03 1.61-1.39 2.18-3.05 1.22zM512.51 457.63l-2.05-1.19v-11a2 2 0 0 0-1-1.53l-11-6.37v-2.04l11 6.37a6.3 6.3 0 0 1 3 4.77zM454.72 424.13l-2.05-1.13v-11c0-1.67 1.35-2.24 3-1.27l11 6.37v2.05l-11-6.37c-.54-.31-1-.13-1 .41zM466.68 476.89l-11-6.36a6.29 6.29 0 0 1-3-4.77v-11l2.05 1.19v11a2 2 0 0 0 1 1.52l11 6.37z" transform="translate(-234.04 -120.14)"/>
      <path class="cls-12" d="M504.13 474.67l-1.45-1.37-1.93-1.82-4.46-4.2a2.72 2.72 0 0 0-1.18-.68l-4.44-1-2.95-.63-.44-.1a.88.88 0 0 0-1.15 1v6.41a13.26 13.26 0 0 0 1 4.76 21.68 21.68 0 0 0 1.14 2.45 39.56 39.56 0 0 0 6.85 8.88 3.42 3.42 0 0 0 .59.45 2.16 2.16 0 0 0 .59.24c.08 0 9 2 9-5.69V477a3.51 3.51 0 0 0-1.17-2.33zm-.91 7.52c0 5.8-6.58 4.75-7.52 4.57-.89-.87-7.52-7.47-7.52-13.29v-6.18l2.72.58h.12l4.68 1 5.2 4.9.15.15h.05l2.12 2z" transform="translate(-234.04 -120.14)"/>
      <path class="cls-12" d="M481.52 476.65c-12.2-7.07-22.13-22.75-22.13-35s9.93-16.37 22.13-9.3 22.15 22.76 22.15 35a16.21 16.21 0 0 1-1.31 6.74c-.19.42-.77.36-1.31-.14a1.73 1.73 0 0 1-.62-1.67 14.75 14.75 0 0 0 1.18-6.12c0-11.07-9-25.31-20.09-31.73s-20.08-2.63-20.08 8.44 9 25.31 20.08 31.72a23.66 23.66 0 0 0 6.76 2.75 2.07 2.07 0 0 1 1.32 1.38c.19.64-.08 1.07-.62 1a26.2 26.2 0 0 1-7.46-3.07z" transform="translate(-234.04 -120.14)"/>
      <path class="cls-10" d="M396.1 516.66v104.19a4.54 4.54 0 0 1-1.47 3.69h-.06a3.69 3.69 0 0 1-.69.41l-7.22 4.57h-.06l-4.38-4.59-25.9-14.87-54-31c-4.27-2.47-7.73-7.93-7.73-12.21v-96.62l-2.42-9 .11-.06.21-.13 7.46-4.59h.07l.1-.06c1.42-.81 3.5-.63 5.81.72l50.69 29.1 31.72 18.22c4.3 2.49 7.76 7.95 7.76 12.23z" transform="translate(-234.04 -120.14)"/>
      <path d="M388.45 521.37v104.2a4.29 4.29 0 0 1-1.85 3.94c-1.42.85-3.53.68-5.89-.68l-25.59-14.69-56.82-32.64c-4.28-2.47-7.74-8-7.74-12.21v-104.2a4.43 4.43 0 0 1 1.63-3.81l.32-.2c1.42-.77 3.48-.58 5.79.75l82.41 47.33c4.29 2.47 7.74 7.94 7.74 12.21z" transform="translate(-234.04 -120.14)" fill="url(#linear-gradient-10)"/>
      <path class="cls-12" d="M317.79 547.72l-1-.72c-6.62-4.69-11.62-13.27-11.62-20 0-7.35 6-9.87 13.35-5.62.41.24.83.5 1.25.79-.07-.71-.11-1.37-.11-2 0-11 8.91-14.7 19.86-8.37s19.86 20.4 19.86 31.35a16.61 16.61 0 0 1-.1 1.87c.41.2.83.43 1.25.67 7.36 4.25 13.34 13.7 13.34 21.06 0 6.58-4.71 9.39-11.2 6.69l-1-.42-.33-2.22 1 .42c5.49 2.29 9.47-.09 9.47-5.66 0-6.22-5.06-14.22-11.29-17.82a14.86 14.86 0 0 0-2.25-1.08 2 2 0 0 1-.92-.8 1.64 1.64 0 0 1-.3-1.08 15.26 15.26 0 0 0 .27-2.81c0-9.82-8-22.44-17.81-28.12s-17.8-2.31-17.8 7.51a20.57 20.57 0 0 0 .26 3.13.63.63 0 0 1-.29.74 1 1 0 0 1-.92-.27 20.34 20.34 0 0 0-2.25-1.53c-6.23-3.6-11.29-1.46-11.29 4.76 0 5.66 4.22 12.92 9.83 16.88l1 .72z" transform="translate(-234.04 -120.14)"/>
      <path class="cls-12" d="M106.91 461.75l-2.05-1.19v-28.84l2.05 1.19v28.84z"/>
      <path class="cls-12" d="M332.33 570.5l-2.05-1.18v-1c0-.93.11-6.19.14-7.89l-10-13.24a1.89 1.89 0 0 1-.41-1.07v-8.55l2 1.18v8l10 13.26a1.89 1.89 0 0 1 .42 1.09c0 .07-.16 7.3-.16 8.37zM349.47 580.41l-2.06-1.18v-1c0-1.06-.15-8.47-.15-8.55a.53.53 0 0 1 .41-.6l10-1.64v-4.69l2.06 1.18v5.21a.54.54 0 0 1-.42.59l-10 1.63c0 1.75.15 7.13.15 8.06z" transform="translate(-234.04 -120.14)"/>
      <path class="cls-12" d="M98.13 436.17l-2.06-1.19v-20.54l2.06 1.19v20.54zM115.54 446.24l-2.05-1.18v-18.53l2.05 1.18v18.53z"/>
      <path d="M321 529.52c-1.87-1.09-3.39-.45-3.39 1.42a7.08 7.08 0 0 0 3.39 5.36c1.87 1.08 3.39.44 3.39-1.42a7 7 0 0 0-3.39-5.36zm0 4.72a2.75 2.75 0 0 1-1.34-2.11c0-.74.6-1 1.34-.56a2.79 2.79 0 0 1 1.33 2.11c-.04.74-.64.99-1.33.56z" transform="translate(-234.04 -120.14)" fill="url(#linear-gradient-11)"/>
      <path d="M331.14 526.43c-1.87-1.08-3.39-.43-3.39 1.43a7.08 7.08 0 0 0 3.39 5.36c1.87 1.08 3.39.44 3.39-1.43a7.08 7.08 0 0 0-3.39-5.36zm0 4.74a2.79 2.79 0 0 1-1.34-2.12c0-.74.6-1 1.34-.56a2.76 2.76 0 0 1 1.34 2.11c0 .74-.6.99-1.34.57z" transform="translate(-234.04 -120.14)" fill="url(#linear-gradient-12)"/>
      <path d="M348.55 538.92c-1.87-1.08-3.39-.44-3.39 1.43a7.08 7.08 0 0 0 3.39 5.36c1.87 1.08 3.4.43 3.4-1.44a7.06 7.06 0 0 0-3.4-5.35zm0 4.73a2.81 2.81 0 0 1-1.33-2.11c0-.74.6-1 1.33-.57a2.78 2.78 0 0 1 1.34 2.11c0 .74-.6.99-1.34.57z" transform="translate(-234.04 -120.14)" fill="url(#linear-gradient-13)"/>
      <path d="M339.92 543.67c-1.87-1.08-3.39-.44-3.39 1.43a7.06 7.06 0 0 0 3.39 5.36c1.87 1.08 3.39.44 3.39-1.42a7.08 7.08 0 0 0-3.39-5.37zm0 4.73a2.75 2.75 0 0 1-1.34-2.11c0-.74.6-1 1.34-.56a2.76 2.76 0 0 1 1.34 2.11c0 .74-.6.99-1.34.56z" transform="translate(-234.04 -120.14)" fill="url(#linear-gradient-14)"/>
      <path d="M358.74 554.56c-1.87-1.08-3.39-.44-3.39 1.43a7 7 0 0 0 3.39 5.35c1.87 1.08 3.39.45 3.39-1.43a7 7 0 0 0-3.39-5.35zm0 4.73a2.78 2.78 0 0 1-1.34-2.11c0-.74.6-1 1.34-.56a2.76 2.76 0 0 1 1.34 2.1c0 .74-.6 1-1.34.57z" transform="translate(-234.04 -120.14)" fill="url(#linear-gradient-15)"/>
      <path class="cls-10" d="M539.19 600.55v104.2a4.51 4.51 0 0 1-1.48 3.67h-.06a2.68 2.68 0 0 1-.69.41l-7.22 4.58-.06-.06-4.37-4.58-25.91-14.83-54-31c-4.28-2.49-7.74-8-7.74-12.23v-96.59l-2.41-9 .33-.19 7.45-4.58h.08l.1-.06c1.42-.8 3.5-.62 5.82.72l14.89 8.55 67.52 38.78c4.28 2.47 7.75 7.95 7.75 12.21z" transform="translate(-234.04 -120.14)"/>
      <path d="M531.53 605.26v104.2a4.28 4.28 0 0 1-1.85 3.94c-1.42.85-3.53.68-5.89-.68L498.2 698l-56.82-32.65c-4.28-2.47-7.74-7.95-7.74-12.21V549a4.43 4.43 0 0 1 1.63-3.81l.32-.2c1.42-.76 3.48-.59 5.79.75l19.52 11.21 62.89 36.12c4.27 2.45 7.74 7.93 7.74 12.19z" transform="translate(-234.04 -120.14)" fill="url(#linear-gradient-16)"/>
      <path d="M508.59 658a14.21 14.21 0 0 0-2.11-5.81 16.6 16.6 0 0 0-1.59-2.22A14.79 14.79 0 0 0 500 646c-2.26-1.06-4.19-1-5.44 0a3.57 3.57 0 0 0-1 1.23 6.07 6.07 0 0 0-.52 3.43 14.22 14.22 0 0 0 2.09 5.8 18.69 18.69 0 0 0 1.6 2.22 15.72 15.72 0 0 0 4.06 3.5c.28.16.56.31.85.44a5.81 5.81 0 0 0 4.51.52 2.88 2.88 0 0 0 .75-.36 3.67 3.67 0 0 0 .56-.47 5.31 5.31 0 0 0 1.13-4.31zm-7.18 2.46a12.22 12.22 0 0 1-6.35-8.84c-.33-3.37 2-4.91 5.15-3.42l.62.33a12.3 12.3 0 0 1 5.72 8.51 3.59 3.59 0 0 1-1.25 3.54 4 4 0 0 1-3.89-.15z" transform="translate(-234.04 -120.14)" fill="url(#linear-gradient-17)"/>
      <path d="M505.35 652.31a1.81 1.81 0 0 1-.64-.6c-.44-.61-.51-1.29-.15-1.53l6.8-4.53c.36-.24 1 .06 1.44.68s.51 1.3.15 1.53l-6.8 4.53a.75.75 0 0 1-.8-.08z" transform="translate(-234.04 -120.14)" fill="url(#linear-gradient-18)"/>
      <path d="M518.82 647.32a9.33 9.33 0 0 0-4.86-6.77 3 3 0 0 0-3-.09 2.73 2.73 0 0 0-1 2.71 7.47 7.47 0 0 0 .89 2.77 10.12 10.12 0 0 0 1.6 2.21 8.25 8.25 0 0 0 1.89 1.53 4.33 4.33 0 0 0 .47.25 3 3 0 0 0 3 .09 2.73 2.73 0 0 0 1.01-2.7zm-2.55.49a1.61 1.61 0 0 1-1.6 0 5 5 0 0 1-2.61-3.63 1.48 1.48 0 0 1 .52-1.46 1.59 1.59 0 0 1 1.59.05 1.35 1.35 0 0 1 .26.15 5 5 0 0 1 2.36 3.48 1.48 1.48 0 0 1-.52 1.41z" transform="translate(-234.04 -120.14)" fill="url(#linear-gradient-19)"/>
      <path d="M521.08 678.47a12.86 12.86 0 0 0-6.72-9.35 5.09 5.09 0 0 0-2.89-.58 2.87 2.87 0 0 0-1.45.61 3.93 3.93 0 0 0-1.11 3.58 13 13 0 0 0 6.07 9c.22.13.43.24.66.35a4.14 4.14 0 0 0 4.11.13c1.03-.67 1.5-2 1.33-3.74zm-2.91 1.53a2.78 2.78 0 0 1-2.75-.08 8.63 8.63 0 0 1-4.48-6.24c-.23-2.38 1.39-3.46 3.63-2.4a3 3 0 0 1 .44.22 8.69 8.69 0 0 1 4 6 2.54 2.54 0 0 1-.84 2.5z" transform="translate(-234.04 -120.14)" fill="url(#linear-gradient-20)"/>
      <path d="M489 639.29a9.33 9.33 0 0 0-4.86-6.77 3 3 0 0 0-3-.09 2.76 2.76 0 0 0-1 2.71 9.41 9.41 0 0 0 4.38 6.51c.16.09.32.18.48.25a2.84 2.84 0 0 0 3.19-.07 2.43 2.43 0 0 0 .73-1.5 4 4 0 0 0 .08-1.04zm-4.15.44a5 5 0 0 1-2.62-3.63 1.49 1.49 0 0 1 .52-1.46 1.63 1.63 0 0 1 1.6.05l.26.14a5.08 5.08 0 0 1 2.35 3.5c.16 1.39-.79 2.02-2.09 1.4z" transform="translate(-234.04 -120.14)" fill="url(#linear-gradient-21)"/>
      <path d="M493.35 662.82a5 5 0 0 0-.46-1.61 7.39 7.39 0 0 0-1.6-2.22 5.38 5.38 0 0 0-1.4-1 2.17 2.17 0 0 0-2.12-.07 2 2 0 0 0-.68 1.94 6.72 6.72 0 0 0 3.12 4.63l.34.17c1.72.84 2.98 0 2.8-1.84zm-3-.31a2.31 2.31 0 0 1-1.2-1.68.7.7 0 0 1 .23-.68.78.78 0 0 1 .74 0 1.33 1.33 0 0 0 .12.06 2.33 2.33 0 0 1 1.1 1.63c.04.67-.4.96-1.01.67z" transform="translate(-234.04 -120.14)" fill="url(#linear-gradient-22)"/>
      <path d="M491.73 661.37a2.11 2.11 0 0 1-.64-.6c-.44-.61-.5-1.29-.15-1.53l4.54-3c.35-.24 1 .06 1.44.68s.5 1.29.15 1.53l-4.54 3a.77.77 0 0 1-.8-.08z" transform="translate(-234.04 -120.14)" fill="url(#linear-gradient-23)"/>
      <path d="M494.45 648a1.75 1.75 0 0 1-.41-.33l-6.27-6.39a1.62 1.62 0 0 1-.53-1.66c.23-.39.83-.28 1.35.25l6.27 6.39c.52.53.76 1.27.53 1.66s-.55.35-.94.08z" transform="translate(-234.04 -120.14)" fill="url(#linear-gradient-24)"/>
      <path d="M511.17 670.54a2.28 2.28 0 0 1-.71-.71l-4.76-7.4c-.4-.63-.41-1.29 0-1.47s1.05.19 1.45.82l4.76 7.4c.4.63.41 1.29 0 1.47a.86.86 0 0 1-.74-.11z" transform="translate(-234.04 -120.14)" fill="url(#linear-gradient-25)"/>
      <path class="cls-12" d="M490.68 654.84l-33.78-19.56c-7.1-4.11-12.86-13.26-12.85-20.4s5.8-9.6 12.91-5.49c.38.23.77.47 1.16.73-.06-.67-.09-1.29-.09-1.88 0-10.62 8.63-14.28 19.19-8.16s19.13 19.73 19.11 30.34a15 15 0 0 1-.1 1.77 27.17 27.17 0 0 1 10.88 10.71l.67 1.17-1.54.45-.67-1.16c-2.53-4.4-6.5-8.08-10.34-9.53a2 2 0 0 1-.91-.79A1.66 1.66 0 0 1 494 632a14.33 14.33 0 0 0 .27-2.72c0-9.48-7.64-21.64-17.08-27.1s-17.12-2.19-17.14 7.28a19.25 19.25 0 0 0 .26 3c.05.37-.06.64-.3.74a1 1 0 0 1-.91-.26 19.77 19.77 0 0 0-2.17-1.47c-6-3.46-10.84-1.39-10.85 4.61s4.84 13.71 10.81 17.16l33.77 19.56z" transform="translate(-234.04 -120.14)"/>
      <g style="mix-blend-mode:multiply" opacity=".4">
        <path class="cls-10" d="M388.44 429.05a42 42 0 0 1 7.66 1.34v17.44a4.5 4.5 0 0 1-1.47 3.67h-.06a3.22 3.22 0 0 1-.69.41l-7.22 4.57h-.06c-1.42.85-3.54.68-5.9-.68l-20.45-11.75a29.4 29.4 0 0 1 2.21-3.51c5.98-8.25 15.08-12.33 25.98-11.49zM396.1 516.66v37.68q-4-3.48-7.66-7.45a133 133 0 0 1-29.05-50 106.27 106.27 0 0 1-2.75-10.69l31.72 18.22c4.28 2.5 7.74 7.96 7.74 12.24zM433.64 480.15v-24.62q2.07 2.28 4 4.68A134.05 134.05 0 0 1 459.42 498c.75 2 1.43 4 2.05 5.94l-20.09-11.54c-4.28-2.51-7.74-7.98-7.74-12.25zM463.93 549.56a38.92 38.92 0 0 1-3 7.37c-5 9.25-13.13 14.58-23.22 15.3a33.92 33.92 0 0 1-4 0V549a4.43 4.43 0 0 1 1.63-3.81l.33-.19 7.45-4.58h.08l.1-.06c1.42-.8 3.5-.62 5.82.72z" transform="translate(-234.04 -120.14)"/>
      </g>
      <g class="cls-1">
        <path class="cls-8" d="M386.51 451.39c-15.49-8.94-29.53-9.77-39.66-3.88l-9.65 5.62c10.13-5.89 24.17-5.06 39.66 3.88 30.77 17.77 55.64 60.85 55.54 96.22 0 17.57-6.25 29.93-16.25 35.74l9.65-5.62c10-5.81 16.2-18.17 16.25-35.74.1-35.37-24.77-78.45-55.54-96.22z" transform="translate(-234.04 -120.14)"/>
        <path d="M376.86 457c30.77 17.77 55.64 60.85 55.54 96.22s-25.13 49.63-55.91 31.86-55.65-60.85-55.55-96.21 25.13-49.63 55.92-31.87z" transform="translate(-234.04 -120.14)" fill="url(#linear-gradient-26)"/>
      </g>
      <path class="cls-12" d="M376.67 559.88a5.29 5.29 0 0 1-1.35-1.12L344.2 523.4a5 5 0 0 1-1.35-3.09V484c0-1 .51-1.57 1.35-1.58a3.9 3.9 0 0 1 2.7 1.51l31.1 35.34a5 5 0 0 1 1.35 3.1v36.32c0 1-.51 1.57-1.35 1.58a2.72 2.72 0 0 1-1.33-.39zm-28.43-38.11L374 551v-30.09l-25.73-29.23z" transform="translate(-234.04 -120.14)"/>
      <path class="cls-12" d="M376.67 559.88a5.29 5.29 0 0 1-1.35-1.12 5.05 5.05 0 0 1-1.35-3.09v-36.32c0-1.49 1.21-2 2.7-1.19a5.47 5.47 0 0 1 2.7 4.21V554l25.73-.47v-25.92c0-1.49 1.21-2 2.7-1.19a5.46 5.46 0 0 1 2.7 4.21v27.48c0 1-.52 1.57-1.35 1.58l-31.13.58a2.72 2.72 0 0 1-1.35-.39z" transform="translate(-234.04 -120.14)"/>
      <path class="cls-12" d="M376.67 523.56a5.74 5.74 0 0 1-1.35-1.12l-31.12-35.36a5 5 0 0 1-1.35-3.09c0-1 .51-1.57 1.35-1.58l31.12-.58a3.86 3.86 0 0 1 2.7 1.51l31.13 35.36a5 5 0 0 1 1.35 3.09c0 1-.52 1.57-1.35 1.58L378 524a2.72 2.72 0 0 1-1.33-.44zm-25.72-35l25.72 29.22 25.73-.48-25.73-29.3z" transform="translate(-234.04 -120.14)"/>
      <path class="cls-12" d="M375.89 512.45a5.48 5.48 0 0 1-2.69-4.21v-24.81c0-1.49 1.2-2 2.69-1.19a5.46 5.46 0 0 1 2.7 4.2v24.81c0 1.5-1.21 2.03-2.7 1.2zM376.67 559.88a5.29 5.29 0 0 1-1.35-1.12L344.2 523.4a5 5 0 0 1-1.35-3.09V484c0-1 .51-1.57 1.35-1.58a3.9 3.9 0 0 1 2.7 1.51l31.1 35.34a5 5 0 0 1 1.35 3.1v36.32c0 1-.51 1.57-1.35 1.58a2.72 2.72 0 0 1-1.33-.39zm-28.43-38.11L374 551v-30.09l-25.73-29.23z" transform="translate(-234.04 -120.14)"/>
      <path class="cls-12" d="M345.55 524.52a5.83 5.83 0 0 1-2.33-2.62c-.76-1.71-.33-3.13.95-3.17l21.34-.73c1.29 0 2.94 1.31 3.7 3s.34 3.12-.94 3.17l-21.35.72a2.66 2.66 0 0 1-1.37-.37zM407.8 559.3a5.46 5.46 0 0 1-1.38-1.14l-21.34-24.58c-1.28-1.48-1.71-3.37-.95-4.23s2.42-.36 3.7 1.12l21.35 24.58c1.28 1.48 1.7 3.37.94 4.23-.5.57-1.4.54-2.32.02zM495.93 765.13l-1.61-.92a1.92 1.92 0 0 1-.93-1.46v-1.29a15.7 15.7 0 0 1-2.09-2.07l-.91.39c-.35.15-1-.2-1.32-.75l-1.13-1.79c-.36-.57-.36-1.16 0-1.31l.91-.39A12.73 12.73 0 0 1 488 753l-1.28-.74a1.91 1.91 0 0 1-.94-1.46v-1.61c0-.51.42-.69.94-.39l1.28.73a3.78 3.78 0 0 1 .87-1.59l-.91-1.43a1.56 1.56 0 0 1-.27-.82.5.5 0 0 1 .27-.5l1.13-.48c.36-.15 1 .2 1.32.75l.91 1.43a6 6 0 0 1 2.09.34v-1.29c0-.51.42-.69.93-.4l1.61.92a1.94 1.94 0 0 1 .93 1.47v1.29a15.61 15.61 0 0 1 2.09 2.06l.91-.39c.35-.15 1 .2 1.31.75l1.14 1.79c.36.57.36 1.16 0 1.32l-.91.38a13.32 13.32 0 0 1 .86 2.59l1.29.74a1.94 1.94 0 0 1 .93 1.46v1.61c0 .51-.42.69-.93.4l-1.29-.74a3.88 3.88 0 0 1-.86 1.59l.91 1.44c.36.57.36 1.15 0 1.31l-1.14.48c-.35.15-1-.2-1.31-.75l-.91-1.43a6 6 0 0 1-2.09-.34v1.29c-.02.47-.44.64-.95.35zm-1.48-1.91l1.35.78v-1.27c0-.43.3-.63.73-.48a5.34 5.34 0 0 0 1.94.31 1.56 1.56 0 0 1 1.15.78l.89 1.41 1-.41-.89-1.4c-.31-.49-.36-1-.13-1.23a3.13 3.13 0 0 0 .8-1.48c.1-.37.47-.46.91-.21l1.26.72v-1.35l-1.26-.72a2 2 0 0 1-.91-1.25 10 10 0 0 0-.8-2.39c-.23-.51-.18-1 .13-1.09l.89-.38-1-1.51-.89.39c-.3.12-.79-.11-1.15-.54a13.44 13.44 0 0 0-1.94-1.91 1.9 1.9 0 0 1-.73-1.33v-1.26l-1.35-.78v1.27c0 .43-.3.63-.73.49a5.15 5.15 0 0 0-1.94-.32 1.56 1.56 0 0 1-1.16-.78l-.89-1.41-1 .41.89 1.41c.31.48.36 1 .12 1.22a3.2 3.2 0 0 0-.79 1.48c-.1.38-.48.46-.91.21l-1.27-.72v1.35l1.27.72a2 2 0 0 1 .9 1.25 11.27 11.27 0 0 0 .8 2.4c.24.51.19.95-.12 1.08l-.89.38 1 1.51.89-.39c.3-.12.8.11 1.16.54a13.44 13.44 0 0 0 1.94 1.91 1.92 1.92 0 0 1 .73 1.33z" transform="translate(-234.04 -120.14)"/>
      <path class="cls-37" d="M492.82 756.66l-2.15-3.51c-.19-.31-.19-.63 0-.72l2.14-1.11.78 1.16-1.81.94 1.81 3zM497.42 759.3l-.76-1.17 1.81-.88-1.81-3 .77-.26 2.15 3.57c.19.31.18.62 0 .71z" transform="translate(-234.04 -120.14)"/>
      <path class="cls-37" d="M260.72 637.38l-.98-.95 1.76-3.49.99.95-1.77 3.49z"/>
      <path class="cls-12" d="M248.56 634.59l-1.06-.61v-13.12l1.06.61v13.12z"/>
      <path class="cls-37" d="M482.07 741.72a3.91 3.91 0 0 1-1.89-3c0-1 .85-1.4 1.89-.8a3.91 3.91 0 0 1 1.89 3c.04 1.08-.85 1.39-1.89.8zm0-2.72c-.46-.27-.83-.11-.83.35a1.71 1.71 0 0 0 .83 1.31c.46.26.83.1.83-.36a1.71 1.71 0 0 0-.83-1.3z" transform="translate(-234.04 -120.14)"/>
      <path class="cls-12" d="M244.06 634.37l-1.05-.61v-10.05l1.05.6v10.06z"/>
      <path class="cls-37" d="M477.58 744.56a3.91 3.91 0 0 1-1.89-3c0-1 .85-1.41 1.89-.81a3.91 3.91 0 0 1 1.89 3c0 1.04-.85 1.41-1.89.81zm0-2.72c-.46-.26-.83-.1-.83.36a1.71 1.71 0 0 0 .83 1.3c.46.26.83.1.83-.35a1.71 1.71 0 0 0-.83-1.31z" transform="translate(-234.04 -120.14)"/>
      <path class="cls-12" d="M237.64 607.92l-10.99-6.3v-1.06l10.99 6.3v1.06z"/>
      <path class="cls-37" d="M473.17 730.28a3.91 3.91 0 0 1-1.89-3c0-1 .85-1.4 1.89-.8a3.88 3.88 0 0 1 1.88 3c0 1.03-.84 1.39-1.88.8zm0-2.73c-.46-.26-.84-.1-.84.36a1.72 1.72 0 0 0 .84 1.31c.45.26.83.1.83-.36a1.75 1.75 0 0 0-.83-1.31z" transform="translate(-234.04 -120.14)"/>
      <path class="cls-12" d="M479.14 730.49L474 725l-8.79-5v-1.06l8.91 5.11a1.33 1.33 0 0 1 .24.19l5.29 5.65z" transform="translate(-234.04 -120.14)"/>
      <path class="cls-37" d="M480.09 732.88a3.87 3.87 0 0 1-1.89-3c0-1 .84-1.4 1.89-.8a3.9 3.9 0 0 1 1.89 3c.02 1.04-.85 1.4-1.89.8zm0-2.72c-.46-.26-.83-.1-.83.36a1.71 1.71 0 0 0 .83 1.3c.45.27.83.11.83-.35a1.75 1.75 0 0 0-.83-1.31z" transform="translate(-234.04 -120.14)"/>
      <path class="cls-12" d="M492.1 744.4l-.44-.54a11.92 11.92 0 0 0-3.46-2.41 1.08 1.08 0 0 1-.49-.5.59.59 0 0 1 0-.57c.71-1 .14-4.52-1.85-8.22-1.29-2.39-4.16-6.65-9-8.32a7 7 0 0 0-1.38-.35l-.49-.09-.39-1.21.49.09a9.14 9.14 0 0 1 1.54.39c5.38 1.87 8.6 6.64 10 9.32 1.83 3.4 2.72 7 2.25 8.77a11.57 11.57 0 0 1 3.34 2.55l.44.54zM475.2 747.06l-7.55-4.33h-.07c-4.79-3.32-6.89-8.31-6.48-11.53a3.41 3.41 0 0 1 2.4-3.17c1.36-.36 3.12.11 5.1 1.35v-1.74l1.05.61v.53a14.43 14.43 0 0 0 .05 1.72.34.34 0 0 1-.14.37.48.48 0 0 1-.44-.1c-1.95-1.35-3.65-1.88-4.93-1.54a2.89 2.89 0 0 0-2 2.7 8.52 8.52 0 0 0 1.07 4.85 14 14 0 0 0 4.46 5l7.48 4.22z" transform="translate(-234.04 -120.14)"/>
      <path class="cls-8" d="M396.11 661.94v41.85a4.51 4.51 0 0 1-1.48 3.68h-.06a3.4 3.4 0 0 1-.69.41l-7.22 4.57h-.06l-4.37-4.59L356.32 693l-54-31c-4.28-2.47-7.74-7.94-7.74-12.21v-34.28l-2.41-9 .33-.19 7.45-4.58h.08l.1-.06c1.42-.8 3.5-.62 5.82.72l82.41 47.33c4.28 2.47 7.75 7.94 7.75 12.21z" transform="translate(-234.04 -120.14)"/>
      <path d="M388.45 666.65v41.86a4.3 4.3 0 0 1-1.85 3.94c-1.42.84-3.53.68-5.89-.69l-25.59-14.69-56.82-32.63c-4.28-2.48-7.74-8-7.74-12.22v-41.85a4.43 4.43 0 0 1 1.63-3.81l.32-.2c1.42-.77 3.48-.59 5.79.75l82.41 47.33c4.29 2.47 7.74 7.94 7.74 12.21z" transform="translate(-234.04 -120.14)" fill="url(#linear-gradient-27)"/>
      <path class="cls-12" d="M341 676.84l-2.91-1.72a2.61 2.61 0 0 1-1.24-2v-2.53a.48.48 0 0 0-.19-.32 28.72 28.72 0 0 1-4-4c-.07-.1-.17-.19-.28-.15l-1.78.74c-.47.19-1.29-.29-1.75-1l-2.06-3.27c-.49-.77-.49-1.56 0-1.76l1.78-.73c.07 0 .08-.14 0-.26a22.53 22.53 0 0 1-1.64-4.94.46.46 0 0 0-.21-.31l-2.53-1.49a2.62 2.62 0 0 1-1.24-2v-2.92c0-.68.56-.91 1.24-.51l2.53 1.5c.1.06.19 0 .21-.06a6.39 6.39 0 0 1 1.64-3c.06-.07.05-.18 0-.3l-1.79-2.81c-.49-.77-.49-1.56 0-1.76l2.06-.84c.47-.2 1.28.29 1.75 1l1.78 2.84c.11.17.21.19.28.18a10.51 10.51 0 0 1 4 .71c.11 0 .19 0 .19-.11v-2.53c0-.68.55-.91 1.24-.51l2.91 1.72a2.64 2.64 0 0 1 1.24 2v2.53a.46.46 0 0 0 .18.32 28.18 28.18 0 0 1 4 4c.08.1.18.19.28.15l1.79-.73c.47-.2 1.28.29 1.75 1l2.06 3.28a2.13 2.13 0 0 1 .36 1.09.66.66 0 0 1-.36.66l-1.78.73c-.08 0-.08.14 0 .27a22.33 22.33 0 0 1 1.65 4.93.46.46 0 0 0 .21.31l2.53 1.49a2.64 2.64 0 0 1 1.24 2v2.92c0 .68-.56.91-1.24.51l-2.53-1.49c-.1-.06-.19 0-.21.05a6.48 6.48 0 0 1-1.65 3 .25.25 0 0 0 0 .29l1.78 2.84a2.16 2.16 0 0 1 .36 1.09.66.66 0 0 1-.36.66l-2.06.84c-.47.19-1.28-.29-1.75-1l-1.79-2.84c-.1-.17-.2-.19-.28-.18a10.72 10.72 0 0 1-4-.7c-.11 0-.18 0-.18.1v2.53c-.03.65-.59.89-1.23.49zm-8.44-11.66a2.85 2.85 0 0 1 .68.59 25.85 25.85 0 0 0 3.65 3.67 2.55 2.55 0 0 1 1 1.78v2.53a.44.44 0 0 0 .22.35l2.91 1.72c.12.07.22 0 .22-.09v-2.53c0-.58.4-.84 1-.63a9.55 9.55 0 0 0 3.65.64 2.08 2.08 0 0 1 1.54 1.08l1.79 2.83c.11.18.2.23.31.18l2.06-.84c.06 0 .06-.08.06-.12a.32.32 0 0 0-.06-.19l-1.79-2.84c-.4-.65-.47-1.32-.16-1.64a5.89 5.89 0 0 0 1.51-2.76c.13-.5.63-.61 1.21-.26l2.53 1.49c.12.07.21 0 .21-.09v-2.92a.47.47 0 0 0-.21-.35l-2.53-1.49a2.72 2.72 0 0 1-1.21-1.68 20.23 20.23 0 0 0-1.51-4.55c-.31-.68-.24-1.28.16-1.45l1.79-.73c.06 0 .06-.08.06-.12a.32.32 0 0 0-.06-.19l-2.06-3.28c-.11-.17-.2-.22-.31-.18l-1.79.74c-.39.16-1.05-.16-1.54-.75a26.39 26.39 0 0 0-3.65-3.67 2.55 2.55 0 0 1-1-1.78v-2.53a.45.45 0 0 0-.22-.34l-2.91-1.73c-.13-.07-.22 0-.22.09v2.53c0 .58-.4.84-1 .63a9.77 9.77 0 0 0-3.65-.64 2.09 2.09 0 0 1-1.55-1.08l-1.78-2.83c-.11-.18-.2-.23-.31-.19l-2.06.85c-.09 0-.09.18 0 .31l1.78 2.84c.41.65.48 1.32.17 1.64a6 6 0 0 0-1.52 2.76c-.12.5-.62.61-1.2.27l-2.53-1.49c-.12-.08-.22 0-.22.09v2.91a.47.47 0 0 0 .22.35l2.53 1.49a2.69 2.69 0 0 1 1.2 1.69 20.89 20.89 0 0 0 1.52 4.54c.31.69.24 1.28-.17 1.45l-1.78.73c-.09 0-.09.17 0 .31l2.06 3.28c.11.17.2.22.31.18l1.78-.73a1 1 0 0 1 .83.15z" transform="translate(-234.04 -120.14)"/>
      <path class="cls-37" d="M111.06 547.71l-1.03-.6v-10.3l1.03.6v10.3zM100.89 541.71l-1.03-.6v-10.3l1.03.6v10.3z"/>
      <path class="cls-37" d="M344.46 662.83l-10-5.92a1.07 1.07 0 0 1-.51-.81c0-.28.23-.38.51-.21l10 5.92a1.09 1.09 0 0 1 .51.81c.03.29-.23.38-.51.21zM342.58 659.39l-6-3.52v-5.13l6 3.53zm-5-3.94l3.94 2.32v-3.08l-3.94-2.33z" transform="translate(-234.04 -120.14)"/>
      <path class="cls-37" d="M106.06 533.68l-1.02-.6v-4.93l1.02.6v4.93z"/>
      <path class="cls-37" d="M342.9 668.4l-6.62-3.9v-5.13l6.62 3.91zm-5.6-4.32l4.58 2.7v-3.08l-4.58-2.7z" transform="translate(-234.04 -120.14)"/>
      <path class="cls-37" d="M106.06 550.25l-1.02-.6v-4.66l1.02.6v4.66z"/>
      <text transform="matrix(1 .58 0 1 93.68 123.51)" font-size="43" font-family="Palanquin-Regular,Palanquin" fill="#fff">
        SaaS Factory
      </text>
    </g>
  </g>
</svg>
