<svg xmlns="http://www.w3.org/2000/svg" viewBox="0 0 537.1 412.93"><defs><style>.a{fill:#010101}.b{fill:#353535}.c{fill:#595959}.d{fill:#020202}.e{fill:#f8a719}.f{fill:#f7a719}.l{fill:#3f372c}.m{fill:#403013}.y{fill:#faa819}.z{fill:#fdedcb}.aa{fill:#f9a819}.ab{fill:#fcecca}.ad{fill:#343434}.ah{fill:#030203}.ai{fill:#030202}.aj{fill:#030303}.al{fill:#040303}.ap{fill:#fceccb}.aq{fill:#070605}</style></defs><path class="a" d="M172.12 84.91v-.2l1.2-.11v-.17l-44-17.65-62.14 26 6.75 2.77 45.4 18.54c4.36 1.78 8.71 3.57 13.08 5.29a2.45 2.45 0 0 0 1.69 0q17.08-7.09 34.15-14.27l15.25-6.36c.65-.27 1.29-.56 2-.89a21.6 21.6 0 0 1-4-10.08l-2.82-1.17-.72.64c.44-1.34.27-1.71-1-2.24l.05-.22 4.3 1.78c.14-12 7.87-18.49 15-20.33a20 20 0 0 1 21.8 8.08 19.41 19.41 0 0 1 3.5 12 20 20 0 0 1-6.13 13.93l52.1 20.92v-7.12l.77-.51q16.51-10.61 33-21.22a17.67 17.67 0 0 1 3.19-1.74q48.64-18.36 97.29-36.66l26.09-9.82 86.86 33.89-.7.47v128l23 9.25a11.14 11.14 0 0 0-.33 1.84v79.33c-.34.15-.62.29-.91.41-4 1.68-8.1 3.34-12.14 5q-15.69 6.57-31.4 13.14a1.61 1.61 0 0 1-1-.12c-.41-.14-.77-.4-1.17-.57q-21.4-9-42.81-18.09a3.18 3.18 0 0 0-2.51-.08c-11.09 4-22.2 8-33.28 12-6.28 2.28-12.51 4.66-18.77 7a1.17 1.17 0 0 1-.78-.07c-3-1.28-6-2.59-9-3.86s-6.23-2.58-9.37-3.88v-35.9l-60.13 24.44v11.3c.81.37 1.6.66 2.32 1.07 2.76 1.57 2.84 4.13 0 5.58a16.37 16.37 0 0 1-5.09 1.57 16.93 16.93 0 0 1-10.06-1.29 6.48 6.48 0 0 1-1.31-.84c-1.58-1.32-1.67-3.19 0-4.35a35.36 35.36 0 0 1 4.56-2.3v-6.86l-77.56 31.5v11.51a26.51 26.51 0 0 1 2.82 1.42c2.16 1.4 2.18 3.55.08 5.06a4.24 4.24 0 0 1-1.25.68 36.07 36.07 0 0 1-5.45 1.25 15.91 15.91 0 0 1-9.31-1.58 3.31 3.31 0 0 1-2.11-2.83 3.15 3.15 0 0 1 2.07-2.85c1.15-.59 2.41-1 3.7-1.51v-7.32l-84.77 34.43v10.44c.53.21 1 .38 1.48.6 1.45.68 2.94 1.45 2.94 3.28s-1.48 2.63-3 3.26a17.4 17.4 0 0 1-10.1 1 16.3 16.3 0 0 1-5.11-1.84c-2.12-1.22-2.05-3.46 0-4.85a15.76 15.76 0 0 1 2.68-1.29 15.5 15.5 0 0 1 1.57-.46v-6.26l-11.6 4.71-80.94 32.87c-1.16.47-2.28 1-3.41 1.55h-2.88c1.79-.77 3.56-1.57 5.36-2.3q13.41-5.47 26.83-10.91 15.54-6.29 30.96-12.49 19.18-7.79 38.34-15.63l21.63-8.76q17.24-7 34.47-14 10.75-4.38 21.52-8.73l31.62-12.88 30.38-12.32c8.87-3.61 17.73-7.25 26.6-10.85 10.24-4.16 20.49-8.27 30.73-12.42q19.84-8 39.69-16.12l10.5-4.29c.41-.16.79-.38 1.22-.59v-15.92c-1.63.64-3.18 1.22-4.72 1.84l-38.5 15.54-36.28 14.66-33.84 13.68-33.78 13.68-36.29 14.66-33.83 13.68-28.52 11.5-31.56 12.75-34.95 14.12-32.72 13.23q-13.59 5.49-27.18 11a8.54 8.54 0 0 0-1.39.88V357c0-.22 0-.45.05-.67l45.64-18.63c-.58-1.18-1-2.3-1.64-3.32a6.25 6.25 0 0 1-.47-5.41c2.67-8.56 5.35-17.11 7.95-25.69a14.67 14.67 0 0 0 .49-3.75c0-1.35-.11-2.71-.16-4.07a70.68 70.68 0 0 1 5.72-30.91 67.42 67.42 0 0 1 13.75-20.4c1.35-1.38 2.85-2.63 4.26-3.92.31.2.45.27.57.37.61.51 1.24 1 1.82 1.56a66.7 66.7 0 0 1 16.6 24.6 70.35 70.35 0 0 1 4.8 27.41c-.09 4.2-.66 8.41 1.14 12.5a71.7 71.7 0 0 1 2.45 7.64l56.85-23.2c-.68-1.4-1.26-2.77-2-4a6.1 6.1 0 0 1-.48-5.07l7.65-24.67a13.2 13.2 0 0 0 .88-4.77 85.93 85.93 0 0 1 .25-15.55 68.18 68.18 0 0 1 17.9-38.87c1.69-1.83 3.59-3.47 5.4-5.2.6.47 1 .78 1.41 1.11s.54.47.8.72a66.59 66.59 0 0 1 16.81 24.84 71.14 71.14 0 0 1 4.72 28.26c-.11 3.34-.63 6.71.71 10 1.27 3.17 2.08 6.52 3.1 9.81l50.54-20.63v-53.84l-28.9-11.68v8a27.19 27.19 0 0 1 3.47 2.07 2.5 2.5 0 0 1 0 4 5.29 5.29 0 0 1-1.48 1 18.28 18.28 0 0 1-14.54.1c-1.4-.56-2.7-1.45-2.66-3.19s1.39-2.51 2.76-3.13c1-.43 2-.72 3-1.08v-11.62l-54.06-21.86v9.65c.72.32 1.39.57 2 .9 1.23.64 2.38 1.4 2.38 3s-1.17 2.34-2.37 3a2.35 2.35 0 0 1-.42.21 18.9 18.9 0 0 1-14 0c-1.43-.56-2.83-1.44-2.82-3.22s1.42-2.59 2.84-3.22c.93-.42 1.93-.69 2.92-1v-13.16l-53.31-21.57v9.65a27.5 27.5 0 0 1 2.5 1.18c2.61 1.53 2.6 4 0 5.49a10.86 10.86 0 0 1-2.18 1 18.33 18.33 0 0 1-8.88.55 16.54 16.54 0 0 1-4.73-1.56c-2.66-1.43-2.61-4 0-5.46a20.38 20.38 0 0 1 3-1.2c.28-.12.59-.18.87-.27v-13.19l-53.7-21.72v10a27 27 0 0 1 3.31 1.93 2.53 2.53 0 0 1 0 4.2 9 9 0 0 1-2.81 1.52 18.61 18.61 0 0 1-11.89 0 9.17 9.17 0 0 1-2.9-1.61 2.48 2.48 0 0 1 .09-4.11 18 18 0 0 1 3.27-1.68 9.54 9.54 0 0 1 1.42-.42v-13.67L.04 85.02V83.9l37.06 15 33.72 13.63 41.71 16.89 30.17 12.2 32.61 13.19 32.72 13.24q16.88 6.81 33.73 13.63l24.72 10c.33.13.67.22 1.07.36v-16.33q-6-2.46-12-4.9l-33-13.45q-15.4-6.27-30.81-12.55-17.61-7.19-35.22-14.42c-8.12-3.32-16.25-6.61-24.38-9.93q-15.68-6.39-31.35-12.8-14.56-5.94-29.15-11.84L29.8 78.74 1.66 67.24c-.53-.21-1.14-.77-1.65.07v-3.55l.34.65 49.13-20.55a21.08 21.08 0 0 1-4.82-11.08c-.92-.37-1.76-.73-2.62-1-.15 0-.39.18-.59.28h-.22a1.52 1.52 0 0 0-.65-1.93h.43l3.54 1.49a20.14 20.14 0 1 1 34.09 13.63l1.1.48 51.4 20.64 29.28 11.75q8.21 3.28 16.43 6.54zM78.2 344.25c1.08-4.61 2.14-9.24 3-13.89a10 10 0 0 0-.18-4 14.74 14.74 0 0 0-4.52-7.54 5 5 0 0 0-.11.68v29.61a5.91 5.91 0 0 0 .13.94v.05a.44.44 0 1 0 0-.08c.58-1.92 1.22-3.77 1.68-5.77zM59.1 34.81c1.86.49 2.3 2.11 1.66 5.75 1.32.89 1.91.72 2.81-.85-.35-1.75-1.13-3.51-.36-5.35.11-.25.51-.39.85-.63 1.55 1.91 1.34 3.87.68 6l1.91 2.84 2.26-2.6-.41-.13c0-1.64-.09-3.28 0-4.92 0-.22.56-.43 1-.72a5.52 5.52 0 0 1 .79 4.15c-.42 1.66.37 2.75 1.33 4.08.36-1.15.67-2.16 1-3.26l.91.09c-1.38 5.45-2.74 10.78-4.11 16.17.28 0 .47.08.65.09 3 .08 3.1 0 3.66-2.93a16.21 16.21 0 0 1 4.45-8.44c5.15-5.36 7-11.73 4.86-18.87a18.13 18.13 0 0 0-14.35-13.31 18.93 18.93 0 0 0-22.82 16.35 18.5 18.5 0 0 0 5.19 15.47 16.21 16.21 0 0 1 4.42 8.72c.08.47.18.94.26 1.41a1.65 1.65 0 0 0 1.73 1.5h3.61c-.09-.39-.14-.68-.23-1q-2.19-6.9-4.39-13.79c-.15-.49-.51-1.1.58-1.3.32.9.64 1.8 1 2.87l1.27-1.4c-1.09-1.75-1-3.63-.94-5.51zm138.44 56.27a38.86 38.86 0 0 1 .45 4.72c.91.71 1.69.48 2.44-1.13-.93-4.64-.87-5.32.54-5.75 1.25 1.2 1.44 2.6.75 5.8.54.84.63 2.34 2 2.33s1.48-1.37 2-2.18c-1-3.82-.88-5.06.7-5.44a7.36 7.36 0 0 1 .43 5.46l1.49 2.58c.75-1.11.4-2.63 1.57-3.33l.45.18c-1.36 5.35-2.71 10.69-4.12 16.23h2.63c.82 0 1.18-.64 1.39-1.41a36.45 36.45 0 0 1 1.79-5.8 18.64 18.64 0 0 1 3.17-4.31c5.16-5.6 6.84-12.1 4.46-19.28s-7.65-11.69-15.27-12.89a18.93 18.93 0 0 0-21.81 17.79 18.1 18.1 0 0 0 5.09 14 17.47 17.47 0 0 1 4.79 9.83c.25 1.7.74 2.08 2.46 2.09h2.76a.75.75 0 0 0 .25-.1c-1.13-3.48-2.27-7-3.39-10.45-.45-1.4-.89-2.81-1.27-4.24a4.24 4.24 0 0 1 0-1.28l.54-.06 1 2.93 1.28-1.28a8.45 8.45 0 0 1-.8-5.93c1.25-.5 1.97-.31 2.23.92zM80.93 47.35l-3-1.2c-3.12 2.68-2.75 6.84-4.5 10.24a2.88 2.88 0 0 1-.23 3.68c1 1.78 1 2.55-.1 4a8.09 8.09 0 0 1 .72 1.32 2.41 2.41 0 0 1-2.3 3.17H69.3c-3.32 2.95-6.76 3-9.76 0h-1.69a2.8 2.8 0 0 1-2.71-1.43 2.93 2.93 0 0 1 .53-3.07c-.82-1.31-1.27-2.68.16-4a2.65 2.65 0 0 1-.44-3.57c-.44-1.69-.85-3.08-1.17-4.49a13.84 13.84 0 0 0-4-7.28L.36 65.57l65.47 26.68 62.12-26c-1-.41-1.73-.75-2.52-1.07q-19.77-7.94-39.56-15.85a5.84 5.84 0 0 0-1.4-.21l-2.38-1.94-1.26 1.26zm139.29 55.77a1.58 1.58 0 0 0-1.9-.47l-3.49-1.62a12.26 12.26 0 0 0-2.78 4.95c-.54 1.77-1 3.56-1.55 5.69a2.43 2.43 0 0 1-.51 3.4 2.67 2.67 0 0 1 0 4c1.14 1.71 1 3.35-.4 4.09a5.11 5.11 0 0 1-1.85.33c-.51.05-1 0-1.53 0-2.33 3-7.72 2.85-9.82 0h-1.47a2.75 2.75 0 0 1-2.87-1.32 2.49 2.49 0 0 1 .56-3.14c-1.15-1.84-1.15-2.3 0-4-1.09-1.67-1.09-2.22-.24-3.5a27.3 27.3 0 0 1-1.08-3.56 15.07 15.07 0 0 0-5.05-9.16l-51.56 21.5 64.67 26.39 63.22-26.45-41-16.47c.78 1 1.46 1.83 2.14 2.68-1.23-1.1-2.37-2.21-3.49-3.34zm225.26 192.13v-16.24a40.41 40.41 0 0 1-6.65-1.21c-6.46-2.3-12.83-4.84-19.22-7.32-1.79-.69-3.52-1.52-5.27-2.3a5.68 5.68 0 0 1-3.16-6.9c.92-3 3-4.18 6.43-3.24 3 .83 5.87 2 8.79 3.09 4.72 1.73 9.41 3.55 14.15 5.22a43.23 43.23 0 0 0 4.94 1.11v-5.74a40.23 40.23 0 0 1-6.55-1.17c-5.94-2.08-11.81-4.38-17.68-6.66-2.38-.92-4.63-2.2-7-3-2.63-.85-4-5.09-2.79-7.6s3.14-3.45 6.31-2.53c2.94.85 5.79 2 8.67 3.07 4.72 1.73 9.41 3.55 14.14 5.22a46.55 46.55 0 0 0 5 1.14v-1.53-31.92a12.4 12.4 0 0 0-.35-1.83l1.87-.67 36.31-13.6c2.54-1 5.06-1.93 7.63-2.82a2.72 2.72 0 0 1 1.78 0c6.5 2.56 13 5.18 19.44 7.78.18.08.37.14.68.25v-127l-120.03 48.4v186.93zM303.8 91.97l-35.16 22.61v132.09l7-2.84c-.46-.92-.82-1.81-1.31-2.62a6.18 6.18 0 0 1-.49-5.3c2.18-7 4.37-14 6.5-21a12.79 12.79 0 0 0 .56-3.63v-42.71c0-6.08 0-12.16.1-18.23a36.21 36.21 0 0 1 .9-8.06c1.3-5 5.37-8 10.57-8.45a28.36 28.36 0 0 1 13.07 2.3c16.72 6.73 33.48 13.36 50.21 20.05 5.75 2.3 10.75 5.65 14.36 10.78a24.51 24.51 0 0 1 4.63 15.44v124.64l17.17 7.07V127.25zm1.43-.59l87.25 34.92 119.66-48.26-84.17-32.85zm.63 55.62c.92.76 1.84 1.41 2.64 2.18a67.77 67.77 0 0 1 16.73 25.35 64.27 64.27 0 0 1 4 17.5c.27 3.4.37 6.82.43 10.24 0 2-.19 4.06-.24 6.09a4.6 4.6 0 0 0 .3 1.5c1.05 3.43 2.11 6.85 3.25 10.54l40.66-16.59v-1.34-20.63a24.19 24.19 0 0 0-7.91-18.2c-3.52-3.36-7.74-5.44-12.17-7.21l-35.78-14.29c-4.85-1.94-9.66-4-14.55-5.8-4.37-1.6-8.86-2.26-13.48-.94a9.72 9.72 0 0 0-7 7.3 22.06 22.06 0 0 0-.73 5.54c-.07 12.88 0 25.76 0 38.63v9.87c1.12-19.79 8.8-36.35 23.85-49.74zm140.86 120.19a21.67 21.67 0 0 0 6.87-1.65q9.24-3.32 18.49-6.58c.94-.34 1.86-.75 2.82-1a5.85 5.85 0 0 1 5.3 1c2.06 1.64 2 5.19.06 7.44a10 10 0 0 1-4.47 2.67c-6.52 2.37-13.06 4.69-19.59 7-1.17.42-2.31.91-3.49 1.26-1.94.58-3.9 1.08-6 1.64v16.28l44.51 18.78v-79.87l-44.52-18.09v34a50.08 50.08 0 0 0 5.1-1.22c6.41-2.22 12.78-4.55 19.16-6.83 1.31-.47 2.62-1 4-1.4a5.56 5.56 0 0 1 5.38 1.13c2 1.63 1.85 5.16-.05 7.35a10 10 0 0 1-4.48 2.66q-10.78 3.93-21.62 7.76c-2.39.85-4.85 1.49-7.43 2.28zm45.76 46.9l43.17-17.84v-79.48l-43.17 17.4zm-273.87-41c.92 2.93 1.86 5.85 2.76 8.79a6.51 6.51 0 0 1-.44 5.54c-.69 1.15-1.21 2.41-1.88 3.76l30.33 12.51 57.32-23.17-7.66-3.18-43.48-17.89c-2.25-.93-4.49-1.89-6.76-2.76a2.55 2.55 0 0 0-1.7 0q-14.65 5.89-29.28 11.89a3 3 0 0 0-.45.33c.43 1.39.84 2.8 1.27 4.2zm-85.87 30.16l-29.44 12c.68 2.23 1.32 4.35 2 6.47.86 2.83 1.74 5.64 2.57 8.47a5.08 5.08 0 0 1-.45 3.83c-.63 1.2-1.2 2.43-1.85 3.77l6.77 2.81q10.68 4.39 21.36 8.81a3 3 0 0 0 2.5 0c11.27-4.58 22.55-9.1 33.83-13.65l20.06-8.12c.22-.09.43-.21.89-.43zm115.29 1l-29.39-12.1-6.89 15.5c-1.33.14-1.73-.2-1.74-1.38 0-2.39.1-4.78 0-7.17a16.87 16.87 0 0 0-2.18-7.75 6.49 6.49 0 0 0-7.05-3.33c-.36 2.3-.91 2.76-3.32 2.76h-2.79c-1.33 5.35-2.64 10.58-3.94 15.8h-2.36c-1.3-5.17-2.62-10.41-4-15.8h-2.52c-2.21 0-2.83-.55-3.12-2.73-3.64-.56-5.59-.3-7.71 3.14a17.06 17.06 0 0 0-2.23 7.87 55.59 55.59 0 0 0 0 6.83c.05 1-.29 1.49-1.46 1.7a13.77 13.77 0 0 1-.88-1.52c-1.87-4.19-3.7-8.4-5.56-12.6-.19-.43-.42-.84-.7-1.4l-26.1 10.64 58.29 24zM.56 387.35l20.71 8.55 55.67-22.5c-.64-.3-1.08-.54-1.54-.73q-27.45-11.31-54.92-22.62a2.7 2.7 0 0 0-2.26 0c-5.68 2.35-11.38 4.65-17.08 7-.18.07-.35.17-.59.29zm283.51-125.79c-.35 0-.77-.61-1-1-2.18-4.84-4.33-9.7-6.49-14.55-.15-.36-.35-.7-.58-1.14l-26.74 10.85c1.46.63 2.6 1.13 3.75 1.61l42.62 17.54c3.62 1.49 7.24 3 10.85 4.47a10.11 10.11 0 0 1 1.31.79l55.26-22.34-27.83-11.54a6.26 6.26 0 0 0-.47.74c-2 4.53-4 9.06-6 13.58-.26.58-.39 1.44-1.33 1.21s-1-1.05-.94-1.91a28.52 28.52 0 0 0-1-11.83 9 9 0 0 0-3.82-5.33 7.29 7.29 0 0 0-4.36-.7c-.54 2.46-1 2.86-3.51 2.87h-2.71c-1.34 5.35-2.65 10.58-4 15.79h-2.32c-1.32-5.22-2.63-10.45-4-15.79h-2.1c-2.55 0-3.18-.52-3.63-2.94-4.61-.83-7.1 1.1-8.8 5.88a32.62 32.62 0 0 0-1 13c-.28.28-.75.77-1.16.74zM53.88 355.02a7.78 7.78 0 0 1-1-1.3c-2.15-4.77-4.27-9.55-6.4-14.32-.09-.21-.21-.41-.38-.72l-25.35 10.35 57.72 23.77 54.72-22.11.07-.29-28.12-11.59c-1 2.11-1.9 4.16-2.82 6.22-1.31 3-2.59 5.93-3.9 8.88a10.42 10.42 0 0 1-.84 1.29l-1.25-.64v-3.14a29 29 0 0 0-.85-9.17 16.63 16.63 0 0 0-1.64-3.83 6.25 6.25 0 0 0-6.86-3.21c0 .27-.08.57-.15.87a2.58 2.58 0 0 1-2.55 1.94h-3.47c-1.33 5.31-2.63 10.54-3.94 15.78h-2.19a139.48 139.48 0 0 1-4-15.78h-2.72c-2.08 0-2.78-.65-3-2.71a6.28 6.28 0 0 0-7.74 3 17.49 17.49 0 0 0-2.23 8c-.11 2.54 0 5.09 0 7.7zm15-25.42c-.3-3.7 1.25-6.82 3.38-9.71.45-.6 1-1.14 1.48-1.72a2.49 2.49 0 0 1 2.74-.92 18 18 0 0 1 5.32 7.5 12.12 12.12 0 0 1-.43 9.23h8.05c1-1.76 2.25-3.53 3.14-5.46a52.48 52.48 0 0 0 4.41-16.65c.44-4 .71-8 1-12 .21-3.1.51-6.21.42-9.31a65 65 0 0 0-3.08-18.65c-.62-1.88-1.28-3.75-2-5.81-11.78 5.29-23.43 5.1-35.24 0a56 56 0 0 0-2 5.73 122.22 122.22 0 0 0-2.63 12.35 63.23 63.23 0 0 0-.15 16.09c.24 1.94.14 3.91.31 5.85.73 8.12 2 16.13 5.76 23.49.79 1.54 1.85 2.95 2.73 4.32h7.76a35.54 35.54 0 0 1-.94-4.33zm219.39-156.68c-.82 2.43-1.8 4.75-2.39 7.17a84.47 84.47 0 0 0-2.32 11.92c-.41 4.54-.14 9.15-.13 13.73 0 1.56.16 3.11.24 4.66.47 8.22 1.61 16.31 4.86 24a20.78 20.78 0 0 0 4 6.4h7.73c-2.79-6.94.11-12.1 4.82-16.69h1.83c4.68 4.56 7.42 9.75 4.79 16.66h8c.89-1.49 2-3.13 2.89-4.9a49.65 49.65 0 0 0 4.56-16.37c.49-4.34.91-8.7 1.17-13.06a102.85 102.85 0 0 0 .22-11.24 64.93 64.93 0 0 0-4.77-21.58c-.08-.18-.19-.35-.33-.6-11.7 5.23-23.36 5.04-35.17-.1zm-118.39 51.53c-.95 3.73-1.9 7.48-2.54 11.28-.84 5-.62 10-.52 15.06.05 2.58.2 5.17.49 7.74.38 3.47.85 6.94 1.43 10.38a45.66 45.66 0 0 0 3.54 11.75 24.25 24.25 0 0 0 3.67 6h7.9a11.85 11.85 0 0 1 .24-10.73 18.88 18.88 0 0 1 4.67-5.95h1.47a17.44 17.44 0 0 1 5.34 7.55c1.22 3.11.8 6.16-.38 9.32h7.85a48.1 48.1 0 0 0 2.76-4.32 47.61 47.61 0 0 0 4.68-15.52c.63-5 1.09-9.95 1.43-14.95a92.2 92.2 0 0 0 .23-10.77 65.19 65.19 0 0 0-4.66-21.36c-.12-.3-.28-.57-.5-1-11.63 5.29-23.28 5.07-35.08-.06-.73 1.93-1.54 3.71-2.02 5.58zm30.84-77.2l66.76 27.27v-52.27l-3.58-1.45zm334.13 68.66l-43-17.34-44.37 16.68 44.36 18zm-198.29 16a48.52 48.52 0 0 1 1.59 6 6.6 6.6 0 0 1-.59 3.2c-.54 1.4-1.32 2.72-2.05 4.18l28.97 11.96 9.1-3.7v-48.58l-40.27 16.44c1.17 3.57 2.17 7.03 3.25 10.49zm78.56 18.22c7.28 2.85 14.5 5.86 21.76 8.77a22.48 22.48 0 0 0 8.05 1.58 20.42 20.42 0 0 0 7.38-1.31c8-3 16.06-5.79 24-8.77a8.79 8.79 0 0 0 3.28-2.28 4.17 4.17 0 0 0 .51-5 4.84 4.84 0 0 0-5.13-1.35q-7.12 2.46-14.23 5c-2.59.92-5.19 1.83-7.76 2.82a19.51 19.51 0 0 1-14.91-.22c-6.06-2.46-12.23-4.65-18.37-6.9a13 13 0 0 0-3.47-.84c-2.67-.23-4.25 1.35-4.25 4.45a4.46 4.46 0 0 0 3.14 4.04zm-.2 17.19c7.62 3 15.13 6.22 22.78 9.1a21.21 21.21 0 0 0 15.53-.27c7.67-2.95 15.45-5.63 23.17-8.44a6.49 6.49 0 0 0 3.43-2.49 4.33 4.33 0 0 0 .24-4.93 4.89 4.89 0 0 0-5-1.27c-5.35 1.85-10.69 3.77-16 5.61-3.51 1.2-7 2.54-10.58 3.39a14.68 14.68 0 0 1-8.59-.75q-10.23-3.88-20.51-7.68a13.33 13.33 0 0 0-2.78-.7c-2.82-.38-4.6 1.23-4.59 4.47a4.38 4.38 0 0 0 2.9 3.95zm-130.44-15.9a15.44 15.44 0 0 1 2.36-7.09 8.07 8.07 0 0 1 4.29-3.39c-6.07-8.81-7.55-18.9-8.5-29.44-.23.6-.4 1-.52 1.36q-3.65 11.7-7.26 23.42a5.78 5.78 0 0 0 .38 4.38c2.84 6 5.54 12.12 8.3 18.18.16.36.33.71.52 1.12.08-2.9.12-5.71.43-8.54zm36.26-10.3c4.8 2 6 6.25 6.63 10.8.34 2.68.29 5.41.41 8.16.16-.3.36-.62.52-1 2.87-6.27 5.78-12.53 8.55-18.84a5.08 5.08 0 0 0 .21-3.24c-2.45-8.25-5-16.47-7.59-24.69a2.48 2.48 0 0 0-.28-.53c-.98 10.37-2.44 20.47-8.5 29.34zm-110 55.46c.48 3.09.5 6.25.72 9.3.06-.12.2-.37.33-.64q4.35-9.51 8.7-19a4.88 4.88 0 0 0 .12-3.62q-3.78-12.22-7.6-24.43c0-.11-.09-.21 0-.26-.87 5-1.55 10.1-2.64 15.08a35.78 35.78 0 0 1-6.17 14.07c4.33 1.7 5.84 5.39 6.46 9.5zm-42.36-.82a17.85 17.85 0 0 1 1.81-5 7.57 7.57 0 0 1 4.52-3.86c-6.06-8.81-7.55-18.91-8.63-29.22-.45 1.42-.91 2.83-1.35 4.25l-6.27 20.22a5.9 5.9 0 0 0 .37 4.5c2.83 6 5.54 12.1 8.29 18.17.18.38.35.77.41.89.17-3.22.29-6.61.77-9.95zm-77.97 38.49c5.16 2.25 6.23 6.91 6.74 11.76a76.55 76.55 0 0 1 0 7.76c.32-.61.5-.92.65-1.24q4.36-9.56 8.75-19.13a4.74 4.74 0 0 0 .14-3.51c-2.55-8.26-5.14-16.5-7.71-24.75-1.06 10.24-2.5 20.31-8.57 29.11zm-38.26-29.39l-3.18 10.24q-2.22 7.15-4.49 14.28a5.83 5.83 0 0 0 .4 4.49c2.85 6.06 5.58 12.18 8.35 18.27.18.38.37.76.69 1.41a35 35 0 0 1 .75-11.85c1-3.93 2.52-5.83 6-7.69-5.96-8.76-7.41-18.87-8.52-29.14zm137.58-110.25l-.28-.15a65.82 65.82 0 0 0-17.09 23.33c3.37 2.2 13.46 4.42 17.37 3.84zm116.43-18.86v-27.5a66.32 66.32 0 0 0-17.36 23.58c3.4 2.19 12.57 4.24 17.36 3.92zM58.48 265.04c3.86 2.28 13.06 4.29 17.33 3.82v-27.42a66.51 66.51 0 0 0-17.33 23.6zM323 171.9a66.89 66.89 0 0 0-15.74-22.28v26.17a39.78 39.78 0 0 0 15.78-3.89zm-116.48 45.9a67.36 67.36 0 0 0-15.66-22.25v26.06c3.84.3 11.36-1.51 15.7-3.81zM77.04 268.94a39.74 39.74 0 0 0 15.72-3.87 67.71 67.71 0 0 0-15.72-22.31zM.59 388.5v15.75l19.32-7.8zm67.6-333c1-3.84 2-7.76 3-11.7l-1.79-2.55c-2.48 2.61-3.41 2.58-5.24-.22a2.86 2.86 0 0 1-3.8.71l-1.93 2.2c1.19 3.53 2.51 7.48 3.87 11.5zm136.9 55l3-11.72-1.8-2.53c-2.18 2.75-3.3 2.62-5.26-.11-1.54 1.23-2.11 1.32-4 .57l-1.77 2.09c1.22 3.66 2.56 7.65 3.91 11.7zm-21 173.63c1.13 4.66 2.08 9.35 3.16 14 .55 2.36 1.23 4.69 2 7v-34.06c-3.87 2.6-6.21 8.81-5.19 13.05zm116.55-45.55c1.13 4.4 2 8.87 3 13.31.45 2 1 3.94 1.54 5.9.12.44.3.87.56 1.61v-34.27c-4.08 2.71-6.26 8.98-5.13 13.44zM75.35 318.25a8.52 8.52 0 0 0-.8.64 15.26 15.26 0 0 0-4.49 8.29 9.58 9.58 0 0 0 .06 3.54c1.05 5 2.18 10 3.34 14.94.49 2.12 1.11 4.22 1.67 6.32h.22zm231.39-61.11h.2c.7-2.84 1.44-5.66 2.1-8.51.86-3.72 1.62-7.47 2.48-11.2a9.81 9.81 0 0 0-.73-6.07 15.89 15.89 0 0 0-4-5.92zm-116.37 45.79l.16.05c.51-2 1.05-4.07 1.53-6.12 1-4.51 2-9 3-13.53a9.4 9.4 0 0 0-.54-5.4 16.37 16.37 0 0 0-4.2-6.44zm4.29-13.14c1.3 0 2.53.07 3.74 0 .88-.06 1.19-.63 1.16-1.8h-4.58zM81.21 335.25l-.41 1.84c1.36 0 2.51.07 3.64 0 .91-.08 1.23-.65 1.15-1.82zm229.94-91.49h4.53l.46-1.66h-4.75c-.08.52-.16 1.09-.24 1.63zM70.48 336.9l-.32-1.79h-4.24c.16.62.3 1.14.46 1.79zm113.81-47.23l-.3-1.68h-4c-.46 1.92 1.25 2.02 4.32 1.68zm113.56-45.92h2.89l-.34-1.86h-3.92c-.16 1.5.09 1.83 1.37 1.86zM59.72 36.34h-.45l.27 2.69h.5zm136.9 55.16h-.36l.23 2.49h.4z"/><path class="b" d="M0 412.93v-7a8.54 8.54 0 0 1 1.39-.88q13.57-5.52 27.18-11l32.72-13.23 34.95-14.12 31.51-12.75 28.52-11.5 33.83-13.68 36.38-14.63 33.83-13.68 33.84-13.68 36.28-14.66 38.5-15.54c1.54-.62 3.09-1.2 4.72-1.84v15.91c-.43.21-.81.43-1.22.59l-10.52 4.3q-19.85 8.06-39.69 16.12c-10.24 4.15-20.49 8.26-30.73 12.42-8.87 3.6-17.73 7.24-26.6 10.85l-30.41 12.32-31.6 12.82q-10.75 4.37-21.52 8.73-17.24 7-34.47 14l-21.63 8.76q-19.17 7.81-38.34 15.63-15.46 6.29-30.95 12.52-13.41 5.44-26.83 10.91c-1.8.73-3.57 1.53-5.36 2.3zm266.93-103.44a4.7 4.7 0 0 0 4.73-4.58 4.91 4.91 0 0 0-4.65-4.74 4.62 4.62 0 0 0-4.68 4.63 4.67 4.67 0 0 0 4.6 4.69zM93.12 376.92a4.78 4.78 0 0 0-4.54-4.78 5 5 0 0 0-4.79 4.62 4.8 4.8 0 0 0 4.73 4.72 4.68 4.68 0 0 0 4.6-4.56zm119-48.35a4.72 4.72 0 0 0-4.79-4.48c-2.33.14-4.57 2.1-4.54 4.35a4.59 4.59 0 0 0 4.69 4.81 4.64 4.64 0 0 0 4.67-4.68zM58.68 384.38a4.34 4.34 0 0 0-4.56 4.42 4.62078186 4.62078186 0 1 0 9.24.17 4.63 4.63 0 0 0-4.68-4.59zm183.21-67.68a4.68 4.68 0 0 0-4.8-4.61 4.73 4.73 0 0 0-4.52 4.77c0 2.06 2 4.66 4.74 4.4a4.58 4.58 0 0 0 4.58-4.56zm-68.9 24a4.6 4.6 0 1 0 4.57-4.61 4.47 4.47 0 0 0-4.57 4.64zm-29.68 11.95a4.6 4.6 0 0 0 4.78 4.59 4.58 4.58 0 1 0-.23-9.15 4.58 4.58 0 0 0-4.55 4.59zM28.96 405.63a4.63045624 4.63045624 0 0 0-.13-9.26 4.57 4.57 0 0 0-4.59 4.63 4.49 4.49 0 0 0 4.72 4.63zm268.07-117.94a4.6 4.6 0 0 0-4.73 4.78 4.68 4.68 0 0 0 4.62 4.53 4.63 4.63 0 0 0 4.56-4.75 4.58 4.58 0 0 0-4.45-4.56zm34.57-7.24a4.49 4.49 0 0 0-4.68-4.34 4.58 4.58 0 1 0 .14 9.15 4.44 4.44 0 0 0 4.54-4.81zm25.32-7.2a4.66068664 4.66068664 0 0 0-.16-9.32 4.5 4.5 0 0 0-4.45 4.65 4.58 4.58 0 0 0 4.61 4.67zm-234.35 91.29a4.56 4.56 0 0 0-4.59-4.42 4.48 4.48 0 0 0-4.7 4.5 4.61 4.61 0 0 0 4.62 4.63 4.52 4.52 0 0 0 4.67-4.71zM.04 67.31c.51-.84 1.12-.28 1.65-.07q14.07 5.73 28.14 11.5l41.84 17.08q14.56 5.93 29.15 11.84 15.69 6.39 31.35 12.8c8.13 3.32 16.26 6.61 24.38 9.93q17.63 7.2 35.22 14.42 15.39 6.3 30.81 12.55l33 13.45q6 2.43 12 4.9v16.33c-.4-.14-.74-.23-1.07-.36l-24.72-10q-16.86-6.84-33.73-13.63l-32.72-13.24-32.61-13.19-30.17-12.2-41.71-16.89L37.13 98.9.07 83.9zm193.5 91.2c3-.11 4.64-2.18 4.61-4.39 0-3.28-2-4.78-4.75-4.9a4.65 4.65 0 0 0 .14 9.29zm-31-22a4.5 4.5 0 0 0-4.72 4.31c0 3.09 1.74 4.87 4.78 5a4.61 4.61 0 0 0 4.49-4.67 4.68 4.68 0 0 0-4.61-4.69zm-35.5-7.64a4.44 4.44 0 0 0 4.62 4.64 4.63 4.63 0 1 0 0-9.25 4.58 4.58 0 0 0-4.67 4.56zm128.06 45.09a4.66 4.66 0 0 0-.06 9.31 4.57 4.57 0 0 0 4.69-4.68 4.63 4.63 0 0 0-4.68-4.68zm-191-71.13a4.67 4.67 0 1 0 4.64-4.5c-2.61-.29-4.66 2.33-4.65 4.45zM7.27 82.97a4.67026766 4.67026766 0 0 0-.1-9.34 4.67026766 4.67026766 0 0 0 .1 9.34zm216.83 78.1a4.58 4.58 0 0 0-4.74 4.75 4.66 4.66 0 0 0 4.57 4.54c2.09.08 4.81-1.82 4.57-4.6a4.59 4.59 0 0 0-4.41-4.74zM96.33 116.75a4.49 4.49 0 0 0 4.72 4.61 4.58078869 4.58078869 0 1 0-.17-9.16 4.44 4.44 0 0 0-4.55 4.55zM37.48 95.04a4.47 4.47 0 0 0 4.8-4.57 4.62 4.62 0 0 0-4.6-4.66 4.62 4.62 0 0 0-.2 9.23z"/><path class="c" d="M176.85 84.66l-4.73.25v-.2l1.2-.11v-.17l-44-17.65-62.14 26 6.75 2.77 45.4 18.54c4.36 1.78 8.71 3.57 13.08 5.29a2.45 2.45 0 0 0 1.69 0q17.08-7.09 34.15-14.27l15.25-6.36c.65-.27 1.29-.56 2-.89a21.6 21.6 0 0 1-4-10.08l-2.82-1.17-.72.64-.26.26c-.28.17-.56.47-.85.47q-2.61.08-5.22 0c-.31 0-.6-.38-.89-.58-.67-1.59-.2-2.28 1.55-2.3l4.64-.05.05-.22zM.04 63.76l.34.65 49.1-20.55a21.08 21.08 0 0 1-4.82-11.08c-.92-.37-1.76-.73-2.62-1-.15 0-.39.18-.59.28-.38.32-.75.88-1.15.9a45.33 45.33 0 0 1-5.71 0c-.44 0-1-.73-1.2-1.24-.12-.32.35-.87.55-1.31a6.28 6.28 0 0 1 1.26-.26h5.81l-1.22-.45a8 8 0 0 1-2.88 0c-9-3.55-18-7.2-27-10.84-3.33-1.34-6.64-2.72-9.95-4.08v43.25c.04 1.89.07 3.81.08 5.73z"/><path class="d" d="M.03 14.76c3.31 1.36 6.62 2.74 9.95 4.08 9 3.64 17.95 7.29 27 10.84a8 8 0 0 0 2.88 0l-39.79-16z"/><path class="e" d="M179.27 66.25l3.75 3.82 1.8.13c.22-.39.43-.79.65-1.17-.06-.36-.11-.69-.16-1-1.08-1-2.23-2-3.23-3.05a2.21 2.21 0 0 0-2.57-.8z"/><path class="f" d="M48.36 12.74l-2.65-2.64-1.68-.92-.11-.36c-.51.33-1.26.57-1.44 1a2 2 0 0 0 .5 1.62 25 25 0 0 0 2.86 2.87 8.67 8.67 0 0 0 1.94.92c.85-.64.7-1.58.58-2.49z"/><path class="e" d="M220.21 69.97l3.47-3.47a2.19 2.19 0 0 0-.48-2.55h-1.21c-1.12 1.16-2.3 2.28-3.34 3.51a9 9 0 0 0-1 2.05 2.19 2.19 0 0 0 2.56.46z"/><path d="M231.86 87.75a1.1 1.1 0 0 0 1-1.47c-.14-.53-.62-1.36-1-1.38a44 44 0 0 0-6.18 0 1.27 1.27 0 0 0-1 1.73c.18.54.8 1.28 1.26 1.31 1.94.14 3.9 0 5.85 0 0 0 .08-.12.12-.19-1.83 0-3.66 0-5.48-.05-.81 0-1.54-.39-1.43-1.22.07-.51.72-1.29 1.17-1.32a38.21 38.21 0 0 1 5.35 0 1.22 1.22 0 0 1 .83 2c-.18.17-.34.37-.49.59z" fill="#4e3c1f"/><path d="M80.86 13.07c-.77.68-.41 1.36.09 1.94a1.36 1.36 0 0 0 2 .24c1.42-1.28 2.79-2.64 4.08-4a1.6 1.6 0 0 0-2.25-2.21c-1.38 1.29-2.64 2.71-3.95 4.08 1.21-1.12 2.42-2.24 3.61-3.37s2.07-.91 2.67 1c-1.41 1.38-2.88 2.92-4.47 4.33-.62.56-1.64 0-1.79-.89a9.29 9.29 0 0 1 .01-1.12z" fill="#4e4537"/><path d="M95.42 32.55c.17-.6.62-1.34.42-1.75a2.26 2.26 0 0 0-1.62-1.06 47.41 47.41 0 0 0-4.77 0 1.69 1.69 0 0 0-1.79 1.42 1.49 1.49 0 0 0 1.16 1.81l.27-.19c-.69-.4-1.29-.85-1-1.77s1-.85 1.76-.85h4.16a1.42 1.42 0 0 1 1.67 1.41l-.67 1z" fill="#685128"/><path d="M202.41 63.08c.28-.52.76-1 .8-1.57.11-1.55.06-3.12 0-4.67a1.61 1.61 0 0 0-1.53-1.8 1.48 1.48 0 0 0-1.76 1.49.38.38 0 0 1 .21 0c.36-.69.78-1.36 1.71-1.12s1 1 1 1.81v4.15a5.79 5.79 0 0 1-.51 1.5z" fill="#69532a"/><path d="M47.78 15.25a8.67 8.67 0 0 1-1.94-.92 25 25 0 0 1-2.86-2.87 2 2 0 0 1-.5-1.62c.18-.46.93-.7 1.44-1l.11.36 1.68.92-.23-.27-.24-.25-.24-.25-.24-.25c-1.07-.61-1.88-.56-2.45.17s-.45 1.56.4 2.43c1 1 2.08 2.11 3.14 3.13.54.55 1.13 1.06 1.93.42z" fill="#413724"/><path class="l" d="M179.48 64.19a2.21 2.21 0 0 1 2.57.8c1 1.09 2.15 2 3.23 3.05-1.35-1.4-2.65-2.85-4.08-4.15a1.11 1.11 0 0 0-1.72.3z"/><path class="m" d="M217.67 69.51a9 9 0 0 1 1-2.05c1-1.23 2.22-2.35 3.34-3.51-.51.4-1.06.76-1.53 1.2-.86.81-1.69 1.66-2.52 2.52-.48.58-.84 1.13-.29 1.84z"/><path d="M63.53.53c-.15.31-.43.61-.43.92q-.06 2.76 0 5.52c0 .31.28.61.43.92a1.34 1.34 0 0 1 .11-.14c-.09-1.75-.22-3.5-.26-5.25a9.63 9.63 0 0 1 .27-1.83z" fill="#3c2808"/><path d="M95.42 32.55h-.39l-5.94.22-.27.19c1.89 0 3.79.08 5.68.07.31-.05.62-.33.92-.48z" fill="#3d3623"/><path d="M66.06 7.37c0-2.08.1-4.16.12-6.24 0-.19-.26-.37-.39-.56l-.05.07a10.84 10.84 0 0 1 .24 1.6v5.09z" fill="#080606"/><path d="M200.16 56.53a.37.37 0 0 0-.21 0v5.28h.18c.02-1.77.02-3.56.03-5.28z" fill="#060404"/><path d="M200.14 61.8h-.18c.3 1.46 1 1.83 2.45 1.27l-.13-.21a1.45 1.45 0 0 1-2.14-1.06z" fill="#402d12"/><path d="M48.36 12.74c.08.91.27 1.85-.6 2.53 1.17-.52 1.34-1.26.6-2.53z" fill="#372b15"/><path d="M223.2 63.95a2.19 2.19 0 0 1 .48 2.55c.89-1.15.74-2.01-.48-2.55z" fill="#372b18"/><path d="M63.53 7.89c1.14.77 1.89.62 2.53-.52h-.05a1.78 1.78 0 0 1-2.37.42 1.34 1.34 0 0 0-.11.1z" fill="#342c17"/><path d="M220.21 69.97a2.19 2.19 0 0 1-2.55-.48q.82 1.82 2.55.48z" fill="#372c18"/><path class="l" d="M185.3 68.03c0 .34.1.67.16 1-.22.38-.43.78-.65 1.17 1.08-.56 1.22-1.23.49-2.17z"/><path d="M65.79.57a1.43 1.43 0 0 0-2.26 0l.12.14h2.09z" fill="#3b2b11"/><path class="l" d="M179.27 66.25l.24-2.08c-.89.62-.84 1.33-.24 2.08z"/><path d="M184.82 70.25l-1.8-.13z" fill="#2f220e"/><path class="m" d="M221.98 63.96z"/><path class="f" d="M45.48 9.86zM45.24 9.62zM45 9.38z"/><path class="y" d="M392.92 127.25l120-48.38v127c-.31-.11-.5-.17-.68-.25-6.47-2.6-12.94-5.22-19.44-7.78a2.72 2.72 0 0 0-1.78 0c-2.57.89-5.09 1.87-7.63 2.82l-36.33 13.59-1.87.67a12.4 12.4 0 0 1 .35 1.83v33.5a46.55 46.55 0 0 1-5-1.14c-4.73-1.67-9.42-3.49-14.14-5.22-2.88-1.06-5.73-2.22-8.67-3.07-3.17-.92-5.06 0-6.31 2.53s.16 6.75 2.79 7.6c2.42.78 4.67 2.06 7 3 5.87 2.28 11.74 4.58 17.68 6.66a40.23 40.23 0 0 0 6.55 1.17v5.74a43.23 43.23 0 0 1-4.94-1.11c-4.74-1.67-9.43-3.49-14.15-5.22-2.92-1.07-5.81-2.26-8.79-3.09-3.38-.94-5.51.27-6.43 3.24a5.68 5.68 0 0 0 3.16 6.9c1.75.78 3.48 1.61 5.27 2.3 6.39 2.48 12.76 5 19.22 7.32a40.41 40.41 0 0 0 6.65 1.21v16.18l-52.57 18.93zm57.25 48.07c16.58-6.77 33.21-13.43 49.82-20.13l1.06-.43v-53.69a3.8 3.8 0 0 1-.93.09c-3.28-.49-6.16.79-9.09 2q-22.92 9.38-45.87 18.69c-.55.22-1.12.42-1.76.67v53.46c2.27-.27 4.49.27 6.77-.64zM391.81 314.11l-17.17-7.07V184.25v-1.91a24.51 24.51 0 0 0-4.63-15.44c-3.61-5.13-8.61-8.48-14.36-10.78-16.73-6.69-33.49-13.32-50.21-20.05a28.36 28.36 0 0 0-13.07-2.3c-5.2.41-9.27 3.42-10.57 8.45a36.21 36.21 0 0 0-.9 8.06c-.14 6.07-.1 12.15-.1 18.23 0 14.24.06 28.47 0 42.71a12.79 12.79 0 0 1-.56 3.63c-2.13 7-4.32 14-6.5 21a6.18 6.18 0 0 0 .49 5.3c.49.81.85 1.7 1.31 2.62l-7 2.84V114.58l35.16-22.61 88 35.23zM380.1 132.37a4 4 0 0 0-4 4 4 4 0 0 0 4.06 4 4.0002 4.0002 0 0 0-.08-8zm-12.49 3.8a4.06 4.06 0 0 0 4.11-4 4.00015312 4.00015312 0 0 0-8-.07 4 4 0 0 0 3.89 4.07zm-9.53-7.45a4 4 0 1 0-7.92.06 3.83 3.83 0 0 0 4 3.87 3.87 3.87 0 0 0 3.92-3.93zM427.94 45.19L305.23 91.38l87.25 34.92 119.66-48.26z"/><path class="b" d="M281.98 196.74c1.15-19.79 8.83-36.35 23.88-49.74.92.76 1.84 1.41 2.64 2.18a67.77 67.77 0 0 1 16.73 25.35 64.27 64.27 0 0 1 4 17.5c.27 3.4.37 6.82.43 10.24 0 2-.19 4.06-.24 6.09a4.6 4.6 0 0 0 .3 1.5c1.05 3.43 2.11 6.85 3.25 10.54l40.66-16.59v-1.34-20.63a24.19 24.19 0 0 0-7.91-18.2c-3.52-3.36-7.74-5.44-12.17-7.21l-35.78-14.29c-4.85-1.94-9.66-4-14.55-5.8-4.37-1.6-8.86-2.26-13.48-.94a9.72 9.72 0 0 0-7 7.3 22.06 22.06 0 0 0-.73 5.54c-.07 12.88 0 25.76 0 38.63zM446.72 261.84v5.35a21.67 21.67 0 0 0 6.87-1.65q9.24-3.32 18.49-6.58c.94-.34 1.86-.75 2.82-1a5.85 5.85 0 0 1 5.3 1c2.06 1.64 2 5.19.06 7.44a10 10 0 0 1-4.47 2.67c-6.52 2.37-13.06 4.69-19.59 7-1.17.42-2.31.91-3.49 1.26-1.94.58-3.9 1.08-6 1.64v16.28l44.51 18.78v-79.87l-44.52-18.09v34a50.08 50.08 0 0 0 5.1-1.22c6.41-2.22 12.78-4.55 19.16-6.83 1.31-.47 2.62-1 4-1.4a5.56 5.56 0 0 1 5.38 1.13c2 1.63 1.85 5.16-.05 7.35a10 10 0 0 1-4.48 2.66q-10.78 3.93-21.62 7.76c-2.43.89-4.89 1.53-7.47 2.32z"/><path class="c" d="M218.53 105.18c.93.94 1.85 1.87 2.79 2.79s1.48 1 2.58 0v-1.26l-.26-.26c-.68-.85-1.36-1.69-2.14-2.68l41 16.47-63.22 26.44-64.6-26.37 51.59-21.57a15.07 15.07 0 0 1 5.05 9.16 27.3 27.3 0 0 0 1.08 3.56c-.85 1.28-.85 1.83.24 3.5-1.14 1.75-1.14 2.21 0 4a2.49 2.49 0 0 0-.56 3.14 2.75 2.75 0 0 0 2.87 1.32h1.47c2.1 2.89 7.49 3 9.82 0h1.53a5.11 5.11 0 0 0 1.85-.33c1.4-.74 1.54-2.38.4-4.09a2.67 2.67 0 0 0 0-4 2.43 2.43 0 0 0 .51-3.4c.58-2.13 1-3.92 1.55-5.69a12.26 12.26 0 0 1 2.78-4.95l3.49 1.62c-.87 1.25-.87 1.53.18 2.6zm-33.53-.36c.73-.29.91-.65.7-1.36a1.73 1.73 0 0 0-1.91-1.27 1.76 1.76 0 0 0-.73.38c-1.29 1.26-2.57 2.51-3.81 3.81a1.63 1.63 0 0 0 2.11 2.42c.1-.08.09-.31.13-.47zM80.8 49.08c0 .18-.15.45-.08.53 1.41 1.36 2.83 2.7 4.26 4l.5.09h.94l.56-.74a6.47 6.47 0 0 0-.55-1.57 15.51 15.51 0 0 0-1.61-1.74l.11-.19-.2-.08-.26-.26a5.84 5.84 0 0 1 1.4.21q19.78 7.92 39.61 15.85c.79.32 1.56.66 2.52 1.07l-62.12 26L.45 65.55 50.31 44.7a13.84 13.84 0 0 1 4 7.28c.32 1.41.73 2.8 1.17 4.49a2.65 2.65 0 0 0 .44 3.57c-1.43 1.29-1 2.66-.16 4a2.93 2.93 0 0 0-.53 3.07 2.8 2.8 0 0 0 2.71 1.43h1.69c3 3 6.44 3 9.76 0h2.22a2.41 2.41 0 0 0 2.3-3.17 8.09 8.09 0 0 0-.72-1.32c1.11-1.41 1.13-2.18.1-4a2.88 2.88 0 0 0 .23-3.68c1.75-3.4 1.38-7.56 4.5-10.24l3 1.2-.1 1.09zm-33.74-1.66a10.78 10.78 0 0 0-1.11.82c-1 .9-1.86 1.84-2.78 2.77-.5.5-1.13 1-.8 1.82s1.12.89 1.9.82a4.4 4.4 0 0 0 1-.55c.93-.87 1.83-1.78 2.71-2.71a2.42 2.42 0 0 0 .33-.84c.41-1.09.03-1.76-1.25-2.13zM535.65 216.77v79.48l-43.17 17.84v-79.92zm-3.75 47c-.28-.65-.28-.65.94-2.73q-.86-1.4-1.83-3l-2.31 1 .18-3-2.95-1.53-1.62 2.24c-.38-1-.65-1.76-1-2.67l-3.18.53-.66 3-1.87-1.75-2.61 2.37.64 2.85-2.47-.16-1.3 3.55 1.45 1.39v.93l-1.68.87-.32.94-1.44-1.14-1.53 1.2-.42-2-2.44-.41-.82 2-1.31-1.5-2.19 1.27v2.19l-1.68-.53-1.41 2.32 1 1.62-1.48.94-.27-.14-.3 2.66 1.8 1.54-1.59 1.09 1 2.79 1.8-.22-.45 2.27 1.9 1.6 1.48-1.21.52 2.06 2.39.28.79-1.94c.47.54.84.95 1.31 1.47l2.23-1.22v-2.25l1.66.58c.47-.77.94-1.53 1.4-2.26-.33-.6-.59-1.09-1-1.79l1.73-.89.36-1.28 2.51-1-.23 3 3 1.45 1.65-2.2.94 2.63 3.25-.5.58-2.88 1.89 1.71 2.52-2.26c.21-1.25-1.05-2.11-.06-3.09l1.94.31c.44-1.17.88-2.31 1.25-3.29-.26-1.1-1.76-1.28-1.36-2.59l1.87-1-.24-3.75zm.27-29.63l-35.29 13.85v6.15l35.29-14.95zm-.67-7.25l-35.52 15 .46.94 35.49-15zM217.37 268.87c.43 1.43.84 2.84 1.27 4.24.92 2.93 1.86 5.85 2.76 8.79a6.51 6.51 0 0 1-.44 5.54c-.69 1.15-1.21 2.41-1.88 3.76l30.33 12.51 57.32-23.17-7.66-3.18-43.51-17.91c-2.25-.93-4.49-1.89-6.76-2.76a2.55 2.55 0 0 0-1.7 0q-14.65 5.89-29.28 11.89a3 3 0 0 0-.45.29zM190.95 327.25l-58.21-24-29.44 12c.68 2.23 1.32 4.35 2 6.47.86 2.83 1.74 5.64 2.57 8.47a5.08 5.08 0 0 1-.45 3.83c-.63 1.2-1.2 2.43-1.85 3.77l6.77 2.81q10.68 4.39 21.36 8.81a3 3 0 0 0 2.5 0c11.27-4.58 22.55-9.1 33.83-13.65l20.06-8.12c.19-.03.39-.15.86-.39zM192.4 326.74l55.63-22.49-29.39-12.1-6.89 15.5c-1.33.14-1.73-.2-1.74-1.38 0-2.39.1-4.78 0-7.17a16.87 16.87 0 0 0-2.18-7.75 6.49 6.49 0 0 0-7.05-3.33c-.36 2.3-.91 2.76-3.32 2.76h-2.79c-1.33 5.35-2.64 10.58-3.94 15.8h-2.36c-1.3-5.17-2.62-10.41-4-15.8h-2.52c-2.21 0-2.83-.55-3.12-2.73-3.64-.56-5.59-.3-7.71 3.14a17.06 17.06 0 0 0-2.23 7.87 55.59 55.59 0 0 0 0 6.83c.05 1-.29 1.49-1.46 1.7a13.77 13.77 0 0 1-.88-1.52c-1.87-4.19-3.7-8.4-5.56-12.6-.19-.43-.42-.84-.7-1.4l-26.1 10.64zM.56 357.25v30.1l20.71 8.55 55.67-22.5c-.64-.3-1.08-.54-1.54-.73q-27.45-11.31-54.92-22.62a2.7 2.7 0 0 0-2.26 0c-5.68 2.35-11.38 4.65-17.08 7-.17.02-.34.12-.58.2zM285.3 260.89c-.35.21-.81.7-1.23.67s-.77-.61-1-1c-2.18-4.84-4.33-9.7-6.49-14.55-.15-.36-.35-.7-.58-1.14l-26.74 10.85c1.46.63 2.6 1.13 3.75 1.61l42.62 17.54c3.62 1.49 7.24 3 10.85 4.47a10.11 10.11 0 0 1 1.31.79l55.26-22.34-27.83-11.54a6.26 6.26 0 0 0-.47.74c-2 4.53-4 9.06-6 13.58-.26.58-.39 1.44-1.33 1.21s-1-1.05-.94-1.91a28.52 28.52 0 0 0-1-11.83 9 9 0 0 0-3.82-5.33 7.29 7.29 0 0 0-4.36-.7c-.54 2.46-1 2.86-3.51 2.87h-2.71c-1.34 5.35-2.65 10.58-4 15.79h-2.32c-1.32-5.22-2.63-10.45-4-15.79h-2.1c-2.55 0-3.18-.52-3.63-2.94-4.61-.83-7.1 1.1-8.8 5.88a32.62 32.62 0 0 0-.93 13.07zM54.96 354.04l-1.08 1a7.78 7.78 0 0 1-1-1.3c-2.15-4.77-4.27-9.55-6.4-14.32-.09-.21-.21-.41-.38-.72l-25.35 10.35 57.72 23.77 54.72-22.11.07-.29-28.12-11.59c-1 2.11-1.9 4.16-2.82 6.22-1.31 3-2.59 5.93-3.9 8.88a10.42 10.42 0 0 1-.84 1.29l-1.25-.64v-3.14a29 29 0 0 0-.85-9.19 16.63 16.63 0 0 0-1.64-3.83 6.25 6.25 0 0 0-6.86-3.21c0 .27-.08.57-.15.87a2.58 2.58 0 0 1-2.55 1.94h-3.47c-1.33 5.31-2.63 10.54-3.94 15.78h-2.19a139.48 139.48 0 0 1-4-15.78h-2.72c-2.08 0-2.78-.65-3-2.71a6.28 6.28 0 0 0-7.74 3 17.49 17.49 0 0 0-2.23 8c-.12 2.57-.03 5.12-.03 7.73z"/><path class="b" d="M62.02 333.92c-.88-1.37-1.94-2.78-2.73-4.32-3.8-7.36-5-15.37-5.76-23.49-.17-1.94-.07-3.91-.31-5.85a63.23 63.23 0 0 1 .15-16.09A122.22 122.22 0 0 1 56 271.82a56 56 0 0 1 2-5.73c11.81 5.11 23.46 5.3 35.24 0 .72 2.06 1.38 3.93 2 5.81a65 65 0 0 1 3.08 18.65c.09 3.1-.21 6.21-.42 9.31-.27 4-.54 8-1 12a52.48 52.48 0 0 1-4.41 16.65c-.89 1.93-2.12 3.7-3.14 5.46H81.3a12.12 12.12 0 0 0 .43-9.23 18 18 0 0 0-5.25-7.49 2.49 2.49 0 0 0-2.69.92c-.49.58-1 1.12-1.48 1.72-2.13 2.89-3.68 6-3.38 9.71a35.54 35.54 0 0 0 .87 4.32zm26.6-45.87a12.83028156 12.83028156 0 1 0-25.66.17 12.56 12.56 0 0 0 12.87 12.64c6.75.3 12.88-5.67 12.79-12.81zM323.74 173.59a64.93 64.93 0 0 1 4.74 21.58 102.85 102.85 0 0 1-.22 11.24c-.26 4.36-.68 8.72-1.17 13.06a49.65 49.65 0 0 1-4.56 16.37c-.86 1.77-2 3.41-2.89 4.9h-8c2.63-6.91-.11-12.1-4.79-16.66h-1.83c-4.71 4.59-7.61 9.75-4.82 16.69h-7.72a20.78 20.78 0 0 1-4-6.4c-3.25-7.66-4.39-15.75-4.86-24-.08-1.55-.23-3.1-.24-4.66 0-4.58-.28-9.19.13-13.73a84.47 84.47 0 0 1 2.32-11.92c.59-2.42 1.57-4.74 2.39-7.17 11.81 5.14 23.47 5.3 35.14.07.19.29.3.45.38.63zm-4.79 21.1a12.85 12.85 0 1 0-12.75 13.05 12.76 12.76 0 0 0 12.75-13.05zM206.95 218.93c.22.43.38.7.5 1a65.19 65.19 0 0 1 4.66 21.32 92.2 92.2 0 0 1-.23 10.77c-.34 5-.8 10-1.43 14.95a47.61 47.61 0 0 1-4.65 15.49 48.1 48.1 0 0 1-2.76 4.32h-7.85c1.18-3.16 1.6-6.21.38-9.32a17.44 17.44 0 0 0-5.34-7.55h-1.47a18.88 18.88 0 0 0-4.67 5.95 11.85 11.85 0 0 0-.24 10.73h-7.9a24.25 24.25 0 0 1-3.67-6 45.66 45.66 0 0 1-3.54-11.75c-.58-3.44-1.05-6.91-1.43-10.38-.29-2.57-.44-5.16-.49-7.74-.1-5-.32-10.08.52-15.06.64-3.8 1.59-7.55 2.54-11.28.48-1.87 1.29-3.65 2-5.58 11.79 5.2 23.44 5.45 35.07.13zm-17.36 34.8a12.82 12.82 0 1 0-12.72-12.81 12.68 12.68 0 0 0 12.72 12.81z"/><path class="c" d="M263.94 120.82l-63.22 26.43 66.76 27.27v-52.27zM491.88 233.25l43-17.32-43-17.34-44.4 16.66zM333.32 221.41c1.11 3.57 2.2 7 3.24 10.49a48.52 48.52 0 0 1 1.59 6 6.6 6.6 0 0 1-.59 3.2c-.54 1.4-1.32 2.72-2.05 4.18l28.97 11.97 9.1-3.7v-48.58z"/><path class="y" d="M195.36 90.13c1.2-.47 1.92-.28 2.18 1a38.86 38.86 0 0 1 .45 4.72c.91.71 1.69.48 2.44-1.13-.93-4.64-.87-5.32.54-5.75 1.25 1.2 1.44 2.6.75 5.8.54.84.63 2.34 2 2.33s1.48-1.37 2-2.18c-1-3.82-.88-5.06.7-5.44a7.36 7.36 0 0 1 .43 5.46l1.49 2.58c.75-1.11.4-2.63 1.57-3.33l.45.18c-1.36 5.35-2.71 10.69-4.12 16.23h2.63c.82 0 1.18-.64 1.39-1.41a36.45 36.45 0 0 1 1.79-5.8 18.64 18.64 0 0 1 3.17-4.31c5.16-5.6 6.84-12.1 4.46-19.28s-7.65-11.69-15.27-12.89A18.93 18.93 0 0 0 182.6 84.7a18.1 18.1 0 0 0 5.09 14 17.47 17.47 0 0 1 4.79 9.83c.25 1.7.74 2.08 2.46 2.09h2.76a.75.75 0 0 0 .25-.1c-1.13-3.48-2.27-7-3.39-10.45-.45-1.4-.89-2.81-1.27-4.24a4.24 4.24 0 0 1 0-1.28l.54-.06 1 2.93 1.28-1.28a8.45 8.45 0 0 1-.8-5.93 33.64 33.64 0 0 1-2.47 2.85 4.12 4.12 0 0 1-5.67.25 7.67 7.67 0 0 1-2.91-4.55c-1.53-6.15 1.87-14.33 7.49-17.79 3.87-2.38 8-3.52 12.59-2.39 2.64.65 2.92 1.75 1 3.64-2.38 2.33-4.77 4.68-6.09 7.78-1.38 3.25-2.58 6.72-3.89 10.13zM58.31 35.42l.79-.61c1.86.49 2.3 2.11 1.66 5.75 1.32.89 1.91.72 2.81-.85-.35-1.75-1.13-3.51-.36-5.35.11-.25.51-.39.85-.63 1.55 1.91 1.34 3.87.68 6l1.91 2.84 2.26-2.6-.41-.13c0-1.64-.09-3.28 0-4.92 0-.22.56-.43 1-.72a5.52 5.52 0 0 1 .79 4.15c-.42 1.66.37 2.75 1.33 4.08.36-1.15.67-2.16 1-3.26l.91.09c-1.38 5.45-2.74 10.78-4.11 16.17.28 0 .47.08.65.09 3 .08 3.1 0 3.66-2.93a16.21 16.21 0 0 1 4.45-8.44c5.15-5.36 7-11.73 4.86-18.87a18.13 18.13 0 0 0-14.35-13.31 18.93 18.93 0 0 0-22.82 16.35 18.5 18.5 0 0 0 5.19 15.47 16.21 16.21 0 0 1 4.42 8.72c.08.47.18.94.26 1.41a1.65 1.65 0 0 0 1.73 1.5h3.61c-.09-.39-.14-.68-.23-1q-2.19-6.9-4.39-13.79c-.15-.49-.51-1.1.58-1.3.32.9.64 1.8 1 2.87l1.27-1.4c-1.09-1.75-1-3.63-.94-5.51-.67.77-1.3 1.58-2 2.29a4.25 4.25 0 0 1-6.22.33 8.15 8.15 0 0 1-3-6.43c-.23-7.28 3.55-16 13.82-18.17a13.22 13.22 0 0 1 7.22.24c1.8.62 2.06 1.62.81 3-.48.54-1 1-1.52 1.54a22.82 22.82 0 0 0-6.42 10.2c-.77 2.52-1.84 4.8-2.75 7.13z"/><path class="c" d="M412.03 246.05a4.46 4.46 0 0 0 3.09 4.07c7.28 2.85 14.5 5.86 21.76 8.77a22.48 22.48 0 0 0 8.05 1.58 20.42 20.42 0 0 0 7.38-1.31c8-3 16.06-5.79 24-8.77a8.79 8.79 0 0 0 3.28-2.28 4.17 4.17 0 0 0 .51-5 4.84 4.84 0 0 0-5.13-1.35q-7.12 2.46-14.23 5c-2.59.92-5.19 1.83-7.76 2.82a19.51 19.51 0 0 1-14.91-.22c-6.06-2.46-12.23-4.65-18.37-6.9a13 13 0 0 0-3.47-.84c-2.62-.25-4.2 1.33-4.2 4.43z"/><path class="c" d="M412.03 263.35a4.38 4.38 0 0 0 2.89 4c7.62 3 15.13 6.22 22.78 9.1a21.21 21.21 0 0 0 15.53-.27c7.67-2.95 15.45-5.63 23.17-8.44a6.49 6.49 0 0 0 3.43-2.49 4.33 4.33 0 0 0 .24-4.93 4.89 4.89 0 0 0-5-1.27c-5.35 1.85-10.69 3.77-16 5.61-3.51 1.2-7 2.54-10.58 3.39a14.68 14.68 0 0 1-8.59-.75q-10.23-3.88-20.51-7.68a13.33 13.33 0 0 0-2.78-.7c-2.81-.42-4.59 1.19-4.58 4.43z"/><path class="y" d="M284 259.96c.13-2.9.17-5.73.43-8.54a15.44 15.44 0 0 1 2.36-7.09 8.07 8.07 0 0 1 4.29-3.39c-6.07-8.81-7.55-18.9-8.5-29.44-.23.6-.4 1-.52 1.36q-3.65 11.7-7.26 23.42a5.78 5.78 0 0 0 .38 4.38c2.84 6 5.54 12.12 8.3 18.18.16.41.33.71.52 1.12zM329.14 211.81c-.93 10.34-2.39 20.46-8.45 29.31 4.8 2 6 6.25 6.63 10.8.34 2.68.29 5.41.41 8.16.16-.3.36-.62.52-1 2.87-6.27 5.78-12.53 8.55-18.84a5.08 5.08 0 0 0 .21-3.24c-2.45-8.25-5-16.47-7.59-24.69a2.48 2.48 0 0 0-.28-.5zM204.17 287.05c4.36 1.73 5.87 5.42 6.49 9.53.48 3.09.5 6.25.72 9.3.06-.12.2-.37.33-.64q4.35-9.51 8.7-19a4.88 4.88 0 0 0 .12-3.62q-3.78-12.22-7.6-24.43c0-.11-.09-.21 0-.26-.87 5-1.55 10.1-2.64 15.08a35.78 35.78 0 0 1-6.12 14.04zM167.48 305.68c.25-3.19.37-6.58.85-9.92a17.85 17.85 0 0 1 1.81-5 7.57 7.57 0 0 1 4.52-3.86c-6.06-8.81-7.55-18.91-8.63-29.22-.45 1.42-.91 2.83-1.35 4.25l-6.27 20.22a5.9 5.9 0 0 0 .37 4.5c2.83 6 5.54 12.1 8.29 18.17.15.35.32.74.41.86zM99.02 305.15c-1.1 10.23-2.57 20.3-8.61 29.11 5.16 2.25 6.23 6.91 6.74 11.76a76.55 76.55 0 0 1 0 7.76c.32-.61.5-.92.65-1.24q4.36-9.56 8.75-19.13a4.74 4.74 0 0 0 .14-3.51c-2.51-8.26-5.1-16.5-7.67-24.75zM60.74 334.01c-6-8.77-7.48-18.87-8.59-29.14l-3.18 10.24q-2.22 7.14-4.49 14.27a5.83 5.83 0 0 0 .4 4.49c2.85 6.06 5.58 12.18 8.35 18.27.18.38.37.76.69 1.41a35 35 0 0 1 .75-11.85c1.07-3.93 2.56-5.83 6.07-7.69zM189.73 221.63v-27l-.28-.15a65.82 65.82 0 0 0-17.09 23.33c3.37 2.18 13.46 4.44 17.37 3.82zM288.8 171.86c3.4 2.16 12.57 4.21 17.36 3.89v-27.5a66.32 66.32 0 0 0-17.36 23.61zM75.85 241.44a66.51 66.51 0 0 0-17.37 23.6c3.86 2.28 13.06 4.29 17.33 3.82z"/><path class="z" d="M307.3 175.79a39.78 39.78 0 0 0 15.74-3.89 66.89 66.89 0 0 0-15.74-22.28zM190.9 221.61c3.8.3 11.32-1.51 15.66-3.81a67.36 67.36 0 0 0-15.66-22.25zM77.04 242.76v26.18a39.74 39.74 0 0 0 15.72-3.87 67.71 67.71 0 0 0-15.72-22.31z"/><path class="c" d="M19.91 396.45L.59 388.5v15.75z"/><path class="y" d="M62.3 55.46h5.89c1-3.84 2-7.76 3-11.7l-1.79-2.51c-2.48 2.61-3.41 2.58-5.24-.22a2.86 2.86 0 0 1-3.8.71l-1.93 2.2c1.19 3.55 2.51 7.5 3.87 11.52zM199.2 110.49h5.89l3-11.72-1.8-2.52c-2.18 2.75-3.3 2.62-5.26-.11-1.54 1.23-2.11 1.32-4 .57l-1.77 2.09c1.22 3.65 2.59 7.64 3.94 11.69z"/><path class="aa" d="M189.23 271.07c-3.85 2.6-6.19 8.81-5.17 13.05 1.13 4.66 2.08 9.35 3.16 14 .55 2.36 1.23 4.69 2 7zM305.69 225.13c-4 2.71-6.23 9-5.08 13.44s2 8.87 3 13.31c.45 2 1 3.94 1.54 5.9.12.44.3.87.56 1.61z"/><path class="y" d="M75.35 351.99v-33.74a8.52 8.52 0 0 0-.8.64 15.26 15.26 0 0 0-4.49 8.29 9.58 9.58 0 0 0 .06 3.54c1.05 5 2.18 10 3.34 14.94.49 2.12 1.11 4.22 1.67 6.32z"/><path class="ab" d="M76.54 350.02c.56-1.92 1.2-3.82 1.66-5.77 1.08-4.61 2.14-9.24 3-13.89a10 10 0 0 0-.18-4 14.74 14.74 0 0 0-4.52-7.54 5 5 0 0 0-.11.68v29.61a5.91 5.91 0 0 0 .13.94z"/><path class="z" d="M306.74 225.51v31.65h.2c.7-2.84 1.44-5.66 2.1-8.51.86-3.72 1.62-7.47 2.48-11.2a9.81 9.81 0 0 0-.73-6.07 15.89 15.89 0 0 0-4.05-5.87zM190.37 271.49v31.44l.16.05c.51-2 1.05-4.07 1.53-6.12 1-4.51 2-9 3-13.53a9.4 9.4 0 0 0-.54-5.4 16.37 16.37 0 0 0-4.15-6.44z"/><path class="aa" d="M218.32 102.65c-.86 1.18-.84 1.46.21 2.53s1.85 1.87 2.79 2.79 1.48 1 2.58 0v-1.26l-.26-.26c-1.16-1.11-2.34-2.21-3.46-3.35a1.58 1.58 0 0 0-1.86-.45z"/><path class="y" d="M177.07 85.01l-4.64.05c-1.75 0-2.22.71-1.55 2.3a16 16 0 0 0 7 .11l.26-.26c.34-1.3.19-1.67-1.07-2.2z"/><path d="M40.61 30.12h-5.38a6.28 6.28 0 0 0-1.26.26c-.68 1.49-.19 2.32 1.41 2.35 1.32 0 2.63.08 3.94 0a8.86 8.86 0 0 0 1.94-.65 1.52 1.52 0 0 0-.65-1.96z" fill="#f9a718"/><path class="aa" d="M86.95 52.91a6.47 6.47 0 0 0-.55-1.57 15.51 15.51 0 0 0-1.61-1.74l-.09-.27-.26-.26-2.38-1.94-1.26 1.26v.64a10.05 10.05 0 0 0 .82 1.12c1.1 1.16 2.23 2.3 3.36 3.45l.5.09h.94z"/><path class="b" d="M194.98 287.97l-.32 1.82c1.3 0 2.53.07 3.74 0 .88-.06 1.19-.63 1.16-1.8z"/><path class="ad" d="M85.59 335.25h-4.38l-.41 1.84c1.36 0 2.51.07 3.64 0 .91-.13 1.23-.7 1.15-1.84z"/><path class="b" d="M311.39 242.07c-.08.55-.16 1.12-.24 1.66h4.53l.46-1.66z"/><path class="ad" d="M66.4 336.9h4.08l-.32-1.79h-4.24c.18.62.32 1.14.48 1.79zM179.97 287.99c-.44 1.92 1.27 2 4.34 1.68l-.3-1.68zM296.48 241.89c-.18 1.5.07 1.83 1.35 1.86h2.89l-.34-1.86z"/><path d="M41.26 32.05a8.86 8.86 0 0 1-1.94.65c-1.31.1-2.62 0-3.94 0-1.6 0-2.09-.86-1.41-2.35-.2.44-.67 1-.55 1.31.19.51.76 1.21 1.2 1.24a45.33 45.33 0 0 0 5.71 0c.4 0 .77-.58 1.15-.9z" fill="#28200e"/><path d="M60.04 39.05l-.32-2.71h-.45l.27 2.69z" fill="#a36d11"/><path d="M196.89 94.01l-.27-2.51h-.36l.23 2.49z" fill="#eb9d17"/><path class="ab" d="M76.57 350.05v.05a.44.44 0 1 0 0-.08z"/><path class="ah" d="M267.01 300.17a4.91 4.91 0 0 1 4.65 4.74 4.67 4.67 0 0 1-9.33-.11 4.62 4.62 0 0 1 4.68-4.63zm0 1.12a3.55 3.55 0 0 0-3.57 3.57 3.67 3.67 0 0 0 3.59 3.62 3.62 3.62 0 0 0 3.54-3.64 3.48 3.48 0 0 0-3.61-3.59z"/><path class="ai" d="M83.79 376.76a5 5 0 0 1 4.79-4.62 4.78 4.78 0 0 1 4.54 4.78 4.68 4.68 0 0 1-4.6 4.56 4.8 4.8 0 0 1-4.73-4.72zm4.77 3.66a3.59 3.59 0 1 0-.08-7.17 3.59050136 3.59050136 0 0 0 .12 7.18zM202.82 328.44c0-2.25 2.21-4.21 4.54-4.35a4.72 4.72 0 0 1 4.79 4.48 4.64 4.64 0 0 1-4.67 4.68 4.59 4.59 0 0 1-4.66-4.81zm8.24.25a3.58 3.58 0 1 0-3.58 3.56 3.65 3.65 0 0 0 3.58-3.56zM58.68 393.63a4.42 4.42 0 0 1-4.56-4.83 4.34 4.34 0 0 1 4.56-4.42 4.63 4.63 0 0 1 4.68 4.59 4.41 4.41 0 0 1-4.68 4.66zm3.68-4.57a3.75 3.75 0 0 0-3.63-3.69 3.67 3.67 0 0 0-3.56 3.61 3.58 3.58 0 0 0 3.54 3.59 3.63 3.63 0 0 0 3.65-3.51z"/><path class="ah" d="M232.57 316.86a4.73 4.73 0 0 1 4.52-4.77 4.68 4.68 0 0 1 4.8 4.61 4.58 4.58 0 0 1-4.58 4.56c-2.73.26-4.69-2.34-4.74-4.4zm4.69 3.43a3.60017013 3.60017013 0 0 0-.07-7.2 3.60017013 3.60017013 0 0 0 .07 7.2z"/><path class="d" d="M182.18 340.69a4.6 4.6 0 1 1-4.62-4.57 4.49 4.49 0 0 1 4.62 4.57zm-4.7 3.56a3.68 3.68 0 0 0 3.66-3.64 3.58 3.58 0 1 0-3.66 3.64z"/><path class="ah" d="M152.63 352.57a4.66 4.66 0 0 1-4.54 4.7 4.58 4.58 0 1 1 4.54-4.7zm-4.67 3.68a3.67 3.67 0 0 0 3.61-3.59 3.6 3.6 0 0 0-3.56-3.61 3.55 3.55 0 0 0-3.53 3.6 3.63 3.63 0 0 0 3.48 3.6zM28.83 396.37a4.63 4.63 0 1 1-4.59 4.63 4.52 4.52 0 0 1 4.59-4.63zm3.59 4.45a3.68 3.68 0 0 0-3.74-3.45 3.71 3.71 0 0 0-3.44 3.77 3.5935637 3.5935637 0 0 0 7.18-.32z"/><path class="d" d="M296.92 297a4.68 4.68 0 0 1-4.62-4.53 4.58 4.58 0 1 1 4.62 4.53zm3.56-4.68a3.6 3.6 0 1 0-3.55 3.59 3.57 3.57 0 0 0 3.55-3.59z"/><path class="ai" d="M322.32 280.63a4.61 4.61 0 0 1 4.6-4.52 4.49 4.49 0 0 1 4.68 4.34 4.44 4.44 0 0 1-4.54 4.81 4.57 4.57 0 0 1-4.74-4.63zm4.66-3.54a3.6 3.6 0 1 0 0 7.2 3.6 3.6 0 0 0 0-7.2z"/><path class="ah" d="M356.76 263.89a4.66068664 4.66068664 0 0 1 .16 9.32 4.58 4.58 0 0 1-4.61-4.67 4.5 4.5 0 0 1 4.45-4.65zm3.72 4.63a3.74 3.74 0 0 0-3.59-3.61 3.68 3.68 0 0 0-3.61 3.69 3.60022222 3.60022222 0 0 0 7.2-.08z"/><path class="d" d="M113.28 364.62a4.48 4.48 0 0 1 4.7-4.5 4.57 4.57 0 1 1-.08 9.13 4.61 4.61 0 0 1-4.62-4.63zm4.62-3.53a3.68 3.68 0 0 0-3.61 3.59 3.78 3.78 0 0 0 3.63 3.61 3.61 3.61 0 0 0 3.56-3.62 3.57 3.57 0 0 0-3.58-3.58z"/><path class="ah" d="M193.4 149.25c2.76.12 4.71 1.62 4.75 4.9 0 2.21-1.62 4.28-4.61 4.39a4.65 4.65 0 0 1-.14-9.29zm.16 8.21a3.47 3.47 0 0 0 3.52-3.58 3.55008803 3.55008803 0 1 0-7.1.05 3.47 3.47 0 0 0 3.58 3.5z"/><path class="aj" d="M162.55 145.76c-3-.12-4.81-1.9-4.78-5a4.5 4.5 0 0 1 4.72-4.31 4.68 4.68 0 0 1 4.55 4.63 4.61 4.61 0 0 1-4.49 4.68zm-.11-1a3.72 3.72 0 0 0 3.58-3.64 3.61 3.61 0 0 0-3.66-3.52 3.49 3.49 0 0 0-3.51 3.6 3.57 3.57 0 0 0 3.63 3.51z"/><path class="ai" d="M136.26 128.71a4.5 4.5 0 0 1-4.65 4.75 4.44 4.44 0 0 1-4.62-4.64 4.58 4.58 0 0 1 4.65-4.61 4.48 4.48 0 0 1 4.62 4.5zm-1 .15a3.58017109 3.58017109 0 1 0-7.16-.07 3.55 3.55 0 0 0 3.53 3.61 3.6 3.6 0 0 0 3.59-3.54z"/><path class="aj" d="M254.99 183.25a4.66 4.66 0 1 1 4.69-4.68 4.57 4.57 0 0 1-4.69 4.68zm.23-1.05a3.69 3.69 0 0 0 3.46-3.74 3.64 3.64 0 0 0-3.75-3.44 3.58 3.58 0 0 0-3.43 3.72 3.65 3.65 0 0 0 3.72 3.43z"/><path class="ah" d="M73.48 102.83a4.67006692 4.67006692 0 0 1-9.34-.05c0-2.12 2-4.74 4.64-4.5a4.63 4.63 0 0 1 4.7 4.55zm-8.25 0a3.58042246 3.58042246 0 1 0 7.16-.11 3.58042246 3.58042246 0 0 0-7.16.11zM7.16 73.58a4.67026766 4.67026766 0 0 1 .1 9.34 4.67026766 4.67026766 0 0 1-.1-9.34zm-3.55 4.67a3.68 3.68 0 0 0 3.58 3.62 3.6000868 3.6000868 0 0 0 .05-7.2 3.69 3.69 0 0 0-3.63 3.58z"/><path class="d" d="M223.92 170.31a4.66 4.66 0 0 1-4.57-4.54 4.57009847 4.57009847 0 1 1 9.14-.06c.24 2.78-2.48 4.68-4.57 4.6zm-3.58-4.69a3.69 3.69 0 0 0 3.63 3.67 3.63 3.63 0 0 0 3.55-3.6 3.58 3.58 0 0 0-3.54-3.59 3.66 3.66 0 0 0-3.64 3.52z"/><path class="ai" d="M105.6 116.7a4.54 4.54 0 0 1-4.55 4.66 4.49 4.49 0 0 1-4.72-4.61 4.44 4.44 0 0 1 4.55-4.5 4.58 4.58 0 0 1 4.72 4.45zm-4.6 3.67a3.60042011 3.60042011 0 1 0-.11-7.2 3.60042011 3.60042011 0 0 0 .11 7.2z"/><path class="d" d="M37.64 85.81a4.62 4.62 0 0 1 4.6 4.66 4.47 4.47 0 0 1-4.8 4.57 4.62 4.62 0 0 1 .2-9.23zm3.6 4.63a3.73 3.73 0 0 0-3.56-3.63 3.67 3.67 0 0 0-3.64 3.65 3.6 3.6 0 0 0 7.2 0z"/><path class="a" d="M177.84 87.47a16 16 0 0 1-7-.11c.29.2.58.57.89.58q2.61.08 5.22 0c.33 0 .61-.3.89-.47zM178.08 87.25l-.26.26z"/><path class="y" d="M231.86 87.75c.15-.22.31-.42.45-.64a1.22 1.22 0 0 0-.83-2 38.21 38.21 0 0 0-5.35 0c-.45 0-1.1.81-1.17 1.32-.11.83.62 1.2 1.43 1.22 1.82 0 3.65 0 5.48.05z"/><path class="e" d="M80.86 13.07a9.29 9.29 0 0 0 0 1.06c.15.87 1.17 1.45 1.79.89 1.59-1.41 3.06-3 4.47-4.33-.6-1.9-1.47-2.12-2.67-1s-2.4 2.25-3.61 3.37z"/><path d="M89.09 32.73l5.94-.22.67-1a1.42 1.42 0 0 0-1.67-1.41h-4.16c-.73 0-1.46 0-1.76.85s.29 1.38.98 1.78z" fill="#f9a719"/><path class="y" d="M200.14 61.8a1.45 1.45 0 0 0 2.14 1.07 5.79 5.79 0 0 0 .51-1.5c.07-1.38 0-2.77 0-4.15 0-.79 0-1.57-1-1.81s-1.35.43-1.71 1.12c.07 1.72.07 3.51.06 5.27zM65.74.64h-2.09a9.63 9.63 0 0 0-.27 1.83c0 1.75.17 3.5.26 5.25a1.78 1.78 0 0 0 2.37-.42V2.21a10.84 10.84 0 0 0-.27-1.57z"/><path class="a" d="M443.4 122.5c.64-.25 1.21-.45 1.76-.67q22.94-9.33 45.87-18.69c2.93-1.19 5.81-2.47 9.09-2a3.8 3.8 0 0 0 .93-.09v53.71l-1.06.43c-16.61 6.7-33.24 13.36-49.82 20.13-2.28.93-4.5.37-6.77.62zm56.68 31.58v-1.17V102.49l-17.19 7.09-2.73 1.13c-4 1.62-8 3.22-12.05 4.85l-18.44 7.49c-.21.09-.42.2-.63.3V174.6l9.51-3.84 17.53-7c.3-.12.57-.29.86-.43l6-2.41 15.54-6.26zm-52.11 20.71v-51.31h-3.4v51.31zm5.29-54.41c6.33-2.51 12.62-5.12 18.93-7.69l25.12-10.24c.07 0 .12-.09.13-.4a16.34 16.34 0 0 0-2.22.54c-9.78 4-19.53 8-29.34 11.95-6.47 2.58-13 5-19.55 7.42l-.53.21c2.92.67 5.13-.86 7.46-1.79z"/><path class="al" d="M380.18 140.33a4 4 0 0 1-4.06-4 4 4 0 0 1 4-4 4.0002 4.0002 0 0 1 .08 8zm-3-4a3.06 3.06 0 0 0 3 3 3 3 0 0 0 2.93-3 3 3 0 0 0-2.92-2.92 3.1 3.1 0 0 0-3.03 2.84zM367.87 128.25a3.94 3.94 0 0 1 3.85 3.94 4.06 4.06 0 0 1-4.11 4 4 4 0 0 1-3.89-4 3.91 3.91 0 0 1 4.15-3.94zm-3.1 4a3 3 0 0 0 2.94 2.87 2.94 2.94 0 1 0-2.94-2.87zM350.16 128.78a4 4 0 1 1 7.92-.06 3.87 3.87 0 0 1-3.94 3.93 3.83 3.83 0 0 1-3.98-3.87zm6.92-.06a3.07 3.07 0 0 0-2.88-2.94 3 3 0 0 0-3 2.89 3 3 0 0 0 5.92.05z"/><path class="aa" d="M181.48 108.33l3.51-3.51.47-.89c-.59-1.58-1.46-1.83-2.57-.76s-2 2-3 3-.84 2 .73 2.58z"/><path d="M181.48 108.33l-.9.46c-1.57-.59-1.81-1.46-.73-2.58s2-2 3-3 2-.82 2.57.76l-.47.89c.73-.29.91-.65.7-1.36a1.73 1.73 0 0 0-1.91-1.27 1.76 1.76 0 0 0-.73.38c-1.29 1.26-2.57 2.51-3.81 3.81a1.63 1.63 0 0 0 2.11 2.42c.17-.12.17-.35.17-.51z" fill="#3c2c0f"/><path class="a" d="M223.9 106.68zM223.66 106.45l.26.26z"/><path class="aa" d="M48.31 49.55c.41-1.09 0-1.76-1.25-2.13a10.78 10.78 0 0 0-1.11.82c-1 .9-1.86 1.84-2.78 2.77-.5.5-1.13 1-.8 1.82s1.12.89 1.9.82z"/><path class="a" d="M84.98 53.65c-1.13-1.15-2.26-2.29-3.36-3.45a10.05 10.05 0 0 1-.82-1.12c0 .18-.15.45-.08.53 1.41 1.36 2.83 2.7 4.26 4.04z"/><path d="M48.31 49.55l-4 4.1a4.4 4.4 0 0 0 1-.55c.93-.87 1.83-1.78 2.71-2.71a2.42 2.42 0 0 0 .29-.84z" fill="#171613"/><path class="a" d="M86.95 52.91l-.56.74zM85.48 53.72l-.5-.09zM84.48 49.09l.26.26zM84.7 49.33l.09.27.11-.19zM86.4 53.64h-.29zM534.06 267.91l-1.87 1c-.4 1.31 1.1 1.49 1.36 2.59-.37 1-.81 2.12-1.25 3.29l-1.94-.31c-1 1 .27 1.84.06 3.09l-2.52 2.26-1.89-1.71-.58 2.88-3.25.5-.94-2.63-1.65 2.2-3-1.45.23-3-2.51 1-.36 1.28-1.73.89c.39.7.65 1.19 1 1.79-.46.73-.93 1.49-1.4 2.26l-1.66-.58v2.25l-2.23 1.22c-.47-.52-.84-.93-1.31-1.47l-.79 1.94-2.39-.28-.52-2.06-1.44 1.25-1.9-1.6.45-2.27-1.8.22-1-2.79 1.59-1.09-1.8-1.54.3-2.66.27.14 1.48-.94-1-1.62 1.41-2.32 1.68.53v-2.19l2.19-1.27 1.31 1.5.82-2 2.42.34.42 2 1.53-1.2 1.44 1.14.32-.94 1.68-.87v-.93l-1.45-1.39 1.3-3.55 2.47.16-.64-2.85 2.61-2.37 1.87 1.75.66-3 3.18-.53c.34.91.61 1.66 1 2.67l1.62-2.24 2.95 1.53-.18 3 2.31-1q1 1.64 1.83 3c-1.22 2.08-1.22 2.08-.94 2.73l1.92.38zm-11.14 12.57l1.58-.35.43-2.31 1.54-.8 1.64 1.4 1.18-1.59-.57-1.87 1-1.42h2l.72-1.92-1.46-1.54.24-1.86 1.86-1-.27-2.11-1.79-.46-.59-1.74 1.19-1.9-1-1.72-1.83.94-1-1.47-.28.17.25-2.38-1.48-.72-1.23 1.72-1.72-.25-.72-2.13-1.65.28c-.4 2.45-.4 2.45-2 3.1l-1.4-1.33-1.34 1.62.5 1.84-1.04 1.57-1.73-.28-.87 2.06 1.52 1.32-.37 2.14-1.51.77v2.27l1.8.48.6 1.64-1.2 2 1 1.65 1.81-.83 1.22 1.6-.14 2 1.36.81 1.32-1.83 1.73.31zm-11.09-6l1-1.08-.31-1.08-1.44.11-.88-1.42.44-1.63-.66-.64-1.22 1-1.56-.68-.16-1.47h-.86l-.57 1.28-1.6.39-.86-1.1c-1.28.29-.68 1.28-.76 2l-1.15 1.25-1.28-.42-.66.94.81 1.32-.57 1.77-1.21.31-.28 1.22 1.35.82v1.78l-.92 1 .32 1 1.5.08.86 1.23-.41 1.61.71.67 1.11-.95 1.58.74.15 1.47c.78.17.78.17 1.47-1.34l1.58-.37.85 1.18c1.21-.38.75-1.26.67-2.07l1.21-1.23 1.35.4.57-.92-.77-1.35.57-1.7 1.26-.43.16-1.21-1.24-.71z"/><path class="d" d="M496.88 254.14v-6.15l35.29-13.84v5zm1.19-1.64l33-14v-2.83l-33 12.95zM531.93 227.84l-.43-.94-35.52 15 .46.94zM62.96 288.25a12.83028156 12.83028156 0 1 1 25.66-.17c.09 7.14-6 13.11-12.79 12.81a12.56 12.56 0 0 1-12.87-12.64zm12.74 11.67a11.78 11.78 0 1 0-11.66-11.8 11.76 11.76 0 0 0 11.66 11.77zM293.26 195.38a12.85 12.85 0 1 1 12.94 12.36 12.8 12.8 0 0 1-12.94-12.36zm1 .07a11.81 11.81 0 1 0 11.69-12.31 11.92 11.92 0 0 0-11.67 12.31zM189.54 228.09a12.82002438 12.82002438 0 1 1 .05 25.64 12.6 12.6 0 0 1-12.72-12.81 12.75 12.75 0 0 1 12.67-12.83zm11.94 12.77a11.82 11.82 0 0 0-23.64 0 11.82 11.82 0 0 0 23.64 0z"/><path class="a" d="M195.38 90.11a33.64 33.64 0 0 1-2.47 2.85 4.12 4.12 0 0 1-5.67.25 7.67 7.67 0 0 1-2.91-4.55c-1.53-6.15 1.87-14.33 7.49-17.79 3.87-2.38 8-3.52 12.59-2.39 2.64.65 2.92 1.75 1 3.64-2.38 2.33-4.77 4.68-6.09 7.78-1.44 3.36-2.64 6.82-4 10.23zm3.1-20.78c-10.46 2-13.78 10.9-13.46 17.35a7.39 7.39 0 0 0 2.47 5.41 3.26 3.26 0 0 0 4.89-.07 15.72 15.72 0 0 0 3.66-6.24c.49-1.3.86-2.65 1.31-4a23.33 23.33 0 0 1 6.32-9.45c.68-.65 1.31-1.35 2.11-2.17a10.56 10.56 0 0 0-7.3-.83z"/><path class="ah" d="M58.33 35.39c-.67.77-1.3 1.58-2 2.29a4.25 4.25 0 0 1-6.22.33 8.15 8.15 0 0 1-3-6.43c-.23-7.28 3.55-16 13.82-18.17a13.22 13.22 0 0 1 7.22.24c1.8.62 2.06 1.62.81 3-.48.54-1 1-1.52 1.54a22.82 22.82 0 0 0-6.42 10.2c-.73 2.39-1.8 4.67-2.71 7zm5.28-21.3a16.39 16.39 0 0 0-15.37 18.33 6.86 6.86 0 0 0 2.78 5 3.06 3.06 0 0 0 4.16-.09 12.26 12.26 0 0 0 3.37-5 39.38 39.38 0 0 0 1.58-4.38 22.17 22.17 0 0 1 5.69-9.55c1-1 2-2 3.07-3.16a8.92 8.92 0 0 0-5.28-1.15z"/><path class="y" d="M270.48 304.84a3.48 3.48 0 0 0-3.56-3.55 3.55 3.55 0 0 0-3.57 3.57 3.67 3.67 0 0 0 3.59 3.62 3.62 3.62 0 0 0 3.54-3.64zM84.93 376.89a3.59 3.59 0 0 0 3.63 3.53 3.59 3.59 0 1 0-.08-7.17 3.58 3.58 0 0 0-3.55 3.64zM207.48 332.25a3.65 3.65 0 0 0 3.59-3.6 3.58 3.58 0 1 0-3.59 3.6zM58.71 392.57a3.63 3.63 0 0 0 3.65-3.51 3.75 3.75 0 0 0-3.63-3.69 3.67 3.67 0 0 0-3.56 3.61 3.58 3.58 0 0 0 3.54 3.59zM233.65 316.72a3.63 3.63 0 0 0 3.61 3.57 3.60017013 3.60017013 0 0 0-.07-7.2 3.6 3.6 0 0 0-3.54 3.63zM174 340.64a3.63 3.63 0 0 0 3.48 3.61 3.68 3.68 0 0 0 3.66-3.64 3.58 3.58 0 0 0-7.16 0zM144.48 352.65a3.63 3.63 0 0 0 3.53 3.64 3.67 3.67 0 0 0 3.61-3.59 3.6 3.6 0 0 0-3.56-3.61 3.55 3.55 0 0 0-3.58 3.56zM29 404.56a3.59 3.59 0 0 0 3.42-3.74 3.68 3.68 0 0 0-3.74-3.45 3.71 3.71 0 0 0-3.44 3.77 3.63 3.63 0 0 0 3.76 3.42zM296.93 295.91a3.55 3.55 0 1 0-3.65-3.51 3.57 3.57 0 0 0 3.65 3.51zM330.48 280.72a3.6 3.6 0 0 0-3.54-3.63 3.6 3.6 0 1 0 0 7.2 3.58 3.58 0 0 0 3.54-3.57zM356.91 272.09a3.6 3.6 0 0 0 3.57-3.57 3.74 3.74 0 0 0-3.59-3.61 3.68 3.68 0 0 0-3.61 3.69 3.57 3.57 0 0 0 3.63 3.49zM121.48 364.67a3.57 3.57 0 0 0-3.58-3.58 3.68 3.68 0 0 0-3.61 3.59 3.78 3.78 0 0 0 3.63 3.61 3.61 3.61 0 0 0 3.56-3.62zM189.98 153.9a3.55008803 3.55008803 0 1 0 7.1-.05 3.55008803 3.55008803 0 1 0-7.1.05zM158.85 141.15a3.57 3.57 0 0 0 3.59 3.56 3.72 3.72 0 0 0 3.58-3.64 3.61 3.61 0 0 0-3.66-3.52 3.49 3.49 0 0 0-3.51 3.6zM131.59 132.4a3.6 3.6 0 0 0 3.63-3.54 3.58017109 3.58017109 0 1 0-7.16-.07 3.55 3.55 0 0 0 3.53 3.61zM251.48 178.71a3.65 3.65 0 0 0 3.72 3.46 3.69 3.69 0 0 0 3.46-3.74 3.64 3.64 0 0 0-3.75-3.44 3.58 3.58 0 0 0-3.43 3.72zM68.71 99.25a3.6 3.6 0 0 0-3.53 3.63 3.58042246 3.58042246 0 1 0 7.16-.11 3.57 3.57 0 0 0-3.63-3.52zM7.24 74.65a3.6000868 3.6000868 0 1 0-.05 7.2 3.6000868 3.6000868 0 0 0 .05-7.2zM223.98 162.1a3.6 3.6 0 1 0 3.54 3.59 3.58 3.58 0 0 0-3.54-3.59zM97.41 116.83a3.57 3.57 0 0 0 3.59 3.54 3.60042011 3.60042011 0 1 0-.11-7.2 3.59 3.59 0 0 0-3.48 3.66zM37.64 94a3.64 3.64 0 0 0 3.6-3.56 3.73 3.73 0 0 0-3.56-3.63 3.67 3.67 0 0 0-3.64 3.65 3.61 3.61 0 0 0 3.6 3.54z"/><path class="b" d="M444.57 174.79h3.4v-51.31h-3.4z"/><path d="M445.8 122.17c2.92.67 5.13-.86 7.46-1.79 6.33-2.51 12.62-5.12 18.93-7.69l25.12-10.24c.07 0 .12-.09.13-.4a16.34 16.34 0 0 0-2.22.54c-9.78 4-19.53 8-29.34 11.95-6.47 2.58-13 5-19.55 7.42z" fill="#353434"/><path class="ap" d="M380.12 133.38a3.1 3.1 0 0 0-3 2.91 3.06 3.06 0 0 0 3 3 3 3 0 0 0 2.93-3 3 3 0 0 0-2.93-2.91z"/><path class="z" d="M367.7 129.25a2.94 2.94 0 1 0 3 3 3 3 0 0 0-3-3z"/><path class="ap" d="M354.08 131.65a3 3 0 0 0 3-2.93 3.07 3.07 0 0 0-2.88-2.94 3 3 0 0 0-3 2.89 3 3 0 0 0 2.88 2.98z"/><path class="b" d="M520.48 278.02l-1.32 1.83-1.36-.81.14-2-1.22-1.6-1.81.83-1-1.65 1.2-2-.6-1.64-1.8-.48v-2.25l1.51-.77.37-2.14-1.52-1.32.87-2.06 1.73.28 1.08-1.53-.5-1.84 1.34-1.62 1.4 1.33c1.56-.65 1.56-.65 2-3.1l1.65-.28.72 2.13 1.72.25 1.23-1.72 1.48.72-.25 2.38.28-.17 1 1.47 1.83-.94 1 1.72-1.19 1.9.59 1.74 1.79.46.27 2.11-1.86 1-.24 1.86 1.46 1.54-.72 1.92h-2l-1 1.42.57 1.87-1.18 1.59-1.64-1.4-1.54.8-.43 2.31-1.58.35-.72-2.15zm-1.44-3.1c2.48 2 6.45 1.32 8.59-1.44a9.35 9.35 0 0 0 .18-11.42c-2.3-3.14-6.77-3.53-9.76 0a8.2 8.2 0 0 0-2 6 7.9 7.9 0 0 0 2.98 6.86z"/><path class="ad" d="M513.22 276.93l-.16 1.21-1.26.43-.57 1.7.77 1.35-.57.92-1.35-.4-1.21 1.23c.08.81.54 1.69-.67 2.07l-.85-1.18-1.58.37c-.69 1.51-.69 1.51-1.47 1.34l-.15-1.47-1.58-.74-1.11.95-.71-.67.41-1.61-.86-1.23-1.5-.08-.32-1 .92-1v-1.78l-1.35-.82.28-1.22 1.21-.31.57-1.77-.81-1.32.66-.94 1.28.42 1.15-1.25c.08-.73-.52-1.72.76-2l.86 1.1 1.6-.39.57-1.28h.86l.16 1.47 1.56.68 1.22-1 .66.64-.44 1.63.88 1.42 1.44-.11.31 1.08-1 1.08.15 1.78zm-8.34 6.74a5.38 5.38 0 0 0 4-1.26c3.2-2.51 3.46-8.1.62-11a5.2 5.2 0 0 0-7.72.45 7.41 7.41 0 0 0-1.83 5.29c-.31 2.58 1.98 6.23 4.93 6.52z"/><path class="b" d="M498.07 248.65v3.85l33-14v-2.83z"/><path class="z" d="M75.88 276.33a11.78 11.78 0 1 1-11.84 11.76 11.79 11.79 0 0 1 11.84-11.76zm-9.64 12.07a9.58 9.58 0 1 0 9.44-9.86 9.6 9.6 0 0 0-9.44 9.86zM317.88 194.34a11.81 11.81 0 1 1-11.91-11.2 11.87 11.87 0 0 1 11.91 11.2zm-11.78-8.93a9.55 9.55 0 1 0 9.54 9.58 9.54 9.54 0 0 0-9.54-9.58zM177.84 240.87a11.82 11.82 0 1 1 11.82 11.78 11.75 11.75 0 0 1-11.82-11.78zm21.36 0a9.55 9.55 0 1 0-9.55 9.58 9.57 9.57 0 0 0 9.55-9.58zM205.81 70.19a10.56 10.56 0 0 0-7.3-.86c-10.46 2-13.78 10.9-13.46 17.35a7.39 7.39 0 0 0 2.47 5.41 3.26 3.26 0 0 0 4.89-.07 15.72 15.72 0 0 0 3.66-6.24c.49-1.3.86-2.65 1.31-4a23.33 23.33 0 0 1 6.32-9.45c.68-.62 1.31-1.32 2.11-2.14zM68.89 15.19a8.92 8.92 0 0 0-5.28-1.1 16.39 16.39 0 0 0-15.37 18.33 6.86 6.86 0 0 0 2.78 5 3.06 3.06 0 0 0 4.16-.09 12.26 12.26 0 0 0 3.37-5 39.38 39.38 0 0 0 1.58-4.38 22.17 22.17 0 0 1 5.69-9.55c1-1.06 1.98-2.09 3.07-3.21z"/><path class="aq" d="M518.04 262.03c3-3.5 7.46-3.11 9.76 0a9.35 9.35 0 0 1-.18 11.42c-2.14 2.76-6.11 3.46-8.59 1.44a7.9 7.9 0 0 1-3-6.86 8.2 8.2 0 0 1 2.01-6zm.33 11.59a5.42 5.42 0 0 0 7.72.67 9 9 0 0 0 1.08-12.28 5.49 5.49 0 0 0-8.09-.33c-1.86 1.73-2.65 3.92-2.65 7a7.45 7.45 0 0 0 1.94 4.94z"/><path d="M501.75 271.82a5.2 5.2 0 0 1 7.72-.45c2.84 2.94 2.58 8.53-.62 11a5.38 5.38 0 0 1-4 1.26c-2.95-.29-5.24-3.94-5-6.56a7.41 7.41 0 0 1 1.9-5.25zm.14 9.65a4.61 4.61 0 0 0 6.71.56 7.51 7.51 0 0 0 1.29-9.41 4.68 4.68 0 0 0-7.66-.63 7.21 7.21 0 0 0-1.86 5.07 6.83 6.83 0 0 0 1.52 4.41z" fill="#060504"/><path class="ah" d="M85.4 287.89a9.58 9.58 0 1 1-9.72-9.35 9.63 9.63 0 0 1 9.72 9.35zm-1.06.25a8.6 8.6 0 0 0-8.51-8.58 8.7 8.7 0 0 0-8.59 8.54 8.6 8.6 0 0 0 8.55 8.53 8.51 8.51 0 0 0 8.55-8.49zM305.9 204.5a9.55 9.55 0 1 1 9.74-9.51 9.54 9.54 0 0 1-9.74 9.51zm8.74-9.57a8.54 8.54 0 1 0-17.08 0 8.54 8.54 0 0 0 17.08 0zM180.11 240.87a9.55 9.55 0 1 1 9.54 9.58 9.48 9.48 0 0 1-9.54-9.58zm9.54 8.58a8.63 8.63 0 0 0 8.55-8.55 8.54 8.54 0 0 0-8.54-8.51 8.44 8.44 0 0 0-8.5 8.51 8.53 8.53 0 0 0 8.49 8.55z"/><path d="M519.08 261.68a5.49 5.49 0 0 1 8.09.33 9 9 0 0 1-1.08 12.24 5.42 5.42 0 0 1-7.72-.67 7.45 7.45 0 0 1-1.94-4.9c.05-3.08.79-5.27 2.65-7zm-.6 11.17a5 5 0 0 0 7.49.78 8.23 8.23 0 0 0 1.11-10.78 5.12 5.12 0 0 0-8.18-.2 8.24 8.24 0 0 0-2 5.39 7.62 7.62 0 0 0 1.58 4.81z" fill="#f5a518"/><path d="M502.23 271.99a4.68 4.68 0 0 1 7.66.63 7.51 7.51 0 0 1-1.29 9.41 4.61 4.61 0 0 1-6.71-.56 6.83 6.83 0 0 1-1.52-4.41 7.21 7.21 0 0 1 1.86-5.07zm0 9.23a4.22 4.22 0 0 0 6.08.6 7 7 0 0 0 1-9.48c-2-2.34-5.15-2.19-7.09.33a7.41 7.41 0 0 0-1.46 4.35 6.71 6.71 0 0 0 1.42 4.23z" fill="#cc8914"/><path class="y" d="M67.24 288.1a8.7 8.7 0 0 1 8.59-8.54 8.54 8.54 0 1 1-8.59 8.54zm7.61-4.46a2.51 2.51 0 0 0 2.63 2.61 2.57039394 2.57039394 0 1 0-.09-5.14 2.45 2.45 0 0 0-2.54 2.53zm5.3 2.4a1.31 1.31 0 1 0 2.62 0 1.27 1.27 0 0 0-1.3-1.31c-.9.08-1.34.52-1.32 1.31zM297.56 194.98a8.54 8.54 0 1 1 17.08 0 8.54 8.54 0 0 1-17.08 0zm12.77-4.59a2.64 2.64 0 0 0-2.65-2.54 2.76 2.76 0 0 0-2.61 2.76 2.65 2.65 0 0 0 2.7 2.51 2.59 2.59 0 0 0 2.56-2.73zm2.68 2.5a1.24 1.24 0 0 0-1.23-1.36 1.37 1.37 0 0 0-1.39 1.36 1.16 1.16 0 0 0 1.26 1.23c.88.01 1.33-.4 1.36-1.23zM189.66 232.39a8.54 8.54 0 0 1 8.54 8.51 8.63 8.63 0 0 1-8.55 8.55 8.53 8.53 0 0 1-8.49-8.55 8.44 8.44 0 0 1 8.5-8.51zm-1 4.12a2.64 2.64 0 0 0 5.27-.12 2.64 2.64 0 0 0-5.27.12zm6.54 1a1.19 1.19 0 0 0-1.22 1.33 1.21 1.21 0 0 0 1.28 1.28 1.31 1.31 0 1 0-.06-2.61z"/><path class="aq" d="M518.9 262.65a5.12 5.12 0 0 1 8.18.2 8.23 8.23 0 0 1-1.11 10.78 5 5 0 0 1-7.49-.78 7.62 7.62 0 0 1-1.56-4.81 8.24 8.24 0 0 1 1.98-5.39zm7.74.48a4.49 4.49 0 0 0-6.83-.7 7.65 7.65 0 0 0-.74 10.39 4.76 4.76 0 0 0 7.8-.92 7.18 7.18 0 0 0 1.13-4.43 5.86 5.86 0 0 0-1.36-4.34zM502.13 272.67c1.94-2.52 5.13-2.67 7.09-.33a7 7 0 0 1-1 9.48 4.22 4.22 0 0 1-6.08-.6 6.71 6.71 0 0 1-1.51-4.2 7.41 7.41 0 0 1 1.5-4.35zm1.57 9.2c1.94 1 3.92.49 5.37-1.62a6.28 6.28 0 0 0-.55-7.91 3.67 3.67 0 0 0-5.25-.17 6.83 6.83 0 0 0-2.16 5c.26 1.81.66 3.67 2.59 4.7z"/><path d="M77.41 281.1a2.45 2.45 0 0 0-2.56 2.54 2.51 2.51 0 0 0 2.63 2.61 2.57039394 2.57039394 0 1 0-.09-5.14z" fill="#f3ead9"/><path d="M81.48 284.72c-.9.09-1.34.5-1.32 1.32a1.31 1.31 0 1 0 2.62 0 1.27 1.27 0 0 0-1.3-1.32z" fill="#f4e8d6"/><path d="M307.77 193.12a2.59 2.59 0 0 0 2.56-2.73 2.64 2.64 0 0 0-2.65-2.54 2.76 2.76 0 0 0-2.61 2.76 2.65 2.65 0 0 0 2.7 2.51z" fill="#f3ead8"/><path d="M311.65 194.12c.88 0 1.33-.4 1.36-1.23a1.24 1.24 0 0 0-1.23-1.36 1.37 1.37 0 0 0-1.39 1.36 1.16 1.16 0 0 0 1.26 1.23z" fill="#f4e9d7"/><path d="M191.29 233.86a2.58 2.58 0 0 0-2.64 2.65 2.64 2.64 0 0 0 5.27-.12 2.58 2.58 0 0 0-2.63-2.53z" fill="#f4ead9"/><path d="M196.59 238.79a1.22 1.22 0 0 0-1.4-1.28 1.19 1.19 0 0 0-1.22 1.33 1.21 1.21 0 0 0 1.28 1.28 1.23 1.23 0 0 0 1.34-1.33z" fill="#f4e9d6"/><path d="M526.87 271.9a4.76 4.76 0 0 1-7.8.92 7.65 7.65 0 0 1 .74-10.39 4.49 4.49 0 0 1 6.83.7 5.86 5.86 0 0 1 1.36 4.34 7.18 7.18 0 0 1-1.13 4.43zm-7.81 0a4.47 4.47 0 0 0 7.21.06 7.35 7.35 0 0 0 .76-7.33 4.46 4.46 0 0 0-4.67-2.65 4.76 4.76 0 0 0-3.88 3.27 18 18 0 0 0-.75 3 6.69 6.69 0 0 0 1.33 3.64z" fill="#313231"/><path class="ad" d="M503.27 272.17a3.67 3.67 0 0 1 5.25.17 6.28 6.28 0 0 1 .55 7.91c-1.45 2.11-3.43 2.65-5.37 1.62s-2.33-2.89-2.59-4.66a6.83 6.83 0 0 1 2.16-5.04zm-.33 7.29a3.05 3.05 0 0 0 4 1.17 4.8 4.8 0 0 0 2.3-4.76c-.36-2-1.42-3.23-2.89-3.36a3.9 3.9 0 0 0-4.25 3.81 3.85 3.85 0 0 0 0 .48l-.2.08a11.84 11.84 0 0 0 1.04 2.58z"/><path class="d" d="M518.48 265.25a4.76 4.76 0 0 1 3.93-3.24 4.46 4.46 0 0 1 4.67 2.65 7.35 7.35 0 0 1-.76 7.33 4.47 4.47 0 0 1-7.21-.06 6.69 6.69 0 0 1-1.38-3.73 18 18 0 0 1 .75-2.95zm.9 5.09a3.45 3.45 0 0 0 6.33.62 5.64 5.64 0 0 0 .25-6.11 3.32 3.32 0 0 0-5.6-.64 6.15 6.15 0 0 0-1.57 4 17.33 17.33 0 0 0 .54 2.09zM502.08 276.8a3.85 3.85 0 0 1 0-.48 3.9 3.9 0 0 1 4.25-3.81c1.47.13 2.53 1.37 2.89 3.36a4.8 4.8 0 0 1-2.3 4.76 3.05 3.05 0 0 1-4-1.17 11.84 11.84 0 0 1-1.06-2.58zm5.51-2.36a2.11 2.11 0 0 0-3.14-.52 3.52 3.52 0 0 0-1.31 3.41 2.79 2.79 0 0 0 2.41 2.6c2.85-.44 3.13-3.87 2.04-5.49z"/><path class="c" d="M518.74 268.13a17.33 17.33 0 0 0 .59 2.17 3.45 3.45 0 0 0 6.33.62 5.64 5.64 0 0 0 .25-6.11 3.32 3.32 0 0 0-5.6-.64 6.15 6.15 0 0 0-1.57 3.96z"/><path d="M505.55 279.93c2.85-.44 3.13-3.87 2-5.49a2.11 2.11 0 0 0-3.14-.52 3.52 3.52 0 0 0-1.31 3.41 2.79 2.79 0 0 0 2.45 2.6z" fill="#585858"/><path d="M497.66 156.01l-46.19 18a1.45 1.45 0 0 1-2.16-1.37v-48.3a3.55 3.55 0 0 1 2.16-3l46.19-18a1.44 1.44 0 0 1 2.15 1.36v48.29a3.54 3.54 0 0 1-2.15 3.02z" fill="#fdfdfd"/><path class="y" d="M466.12 152.11l1.17 1.5a.16.16 0 0 0 .2 0 .29.29 0 0 0 .14-.11.39.39 0 0 0 .06-.44l-.89-1.12 13-4.74c.13 3.67 2.67 5.72 5.78 4.59s5.79-5.24 5.79-9.1-2.6-6.05-5.79-4.89-5.65 5-5.78 8.8l-13 4.74.89-1.77c.08-.17 0-.35-.06-.4s-.26 0-.34.19l-1.17 2.35V151.86zm16.52-5.71l.5-.18c.12 1.49 1.2 2.31 2.5 1.83a4.4 4.4 0 0 0 2.52-4c0-1.67-1.13-2.63-2.52-2.12a4.37 4.37 0 0 0-2.5 3.65l-.5.18a5.25 5.25 0 0 1 3-4.43c1.66-.61 3 .53 3 2.54a5.28 5.28 0 0 1-3 4.74c-1.58.64-2.87-.36-3-2.21zm3.25-1.48c0-.17-.11-.26-.25-.21.14-.05.25 0 .25.21a.44.44 0 0 1-.25.39.44.44 0 0 0 .25-.39zM464.34 152.9l1.18 1.5a.18.18 0 0 0 .2 0 .48.48 0 0 0 .15-.11.39.39 0 0 0 .05-.44l-1.07-1.36 1.07-2.14c.08-.16.06-.34-.05-.4s-.27 0-.35.19l-1.18 2.36v.28zM462.48 153.42v.16l1.18 1.5a.15.15 0 0 0 .2 0 .24.24 0 0 0 .14-.11.36.36 0 0 0 0-.43l-.93-1.29 1.06-2.13c.09-.17.06-.34 0-.4s-.26 0-.34.19l-1.23 2.34v.18zM460.71 154.08v.17l1.17 1.5a.17.17 0 0 0 .2 0 .48.48 0 0 0 .15-.11.39.39 0 0 0 .05-.44l-1.06-1.36 1.06-2.14c.08-.16.06-.34-.05-.4a.3.3 0 0 0-.35.19l-1.17 2.36v.15zM458.94 154.87l1.17 1.5a.17.17 0 0 0 .2 0 .36.36 0 0 0 .14-.11.39.39 0 0 0 .06-.44l-1.03-1.28 1.07-2.14a.3.3 0 0 0-.06-.4c-.11-.06-.26 0-.34.19l-1.17 2.35v.33zM484.71 122.25l-1.17-1.5c-.08-.1-.23-.07-.34.07a.37.37 0 0 0-.06.43l.88 1.13-13 4.74c-.13-3.68-2.67-5.74-5.78-4.61s-5.79 5.25-5.79 9.11 2.6 6.06 5.79 4.89 5.65-5 5.78-8.8l13-4.73-.88 1.77a.3.3 0 0 0 .06.4.22.22 0 0 0 .14 0 .39.39 0 0 0 .2-.2l1.17-2.35zm-16.52 5.72l-.5.18c-.12-1.5-1.2-2.32-2.5-1.84a4.4 4.4 0 0 0-2.52 4c0 1.68 1.13 2.64 2.52 2.13a4.37 4.37 0 0 0 2.5-3.65l.5-.18a5.25 5.25 0 0 1-3 4.43c-1.66.6-3-.54-3-2.55a5.27 5.27 0 0 1 3-4.74c1.58-.66 2.87.34 3 2.17zM486.48 121.55v-.13l-1.17-1.5c-.08-.11-.24-.08-.35.06a.39.39 0 0 0-.05.44l1.06 1.36-1.06 2.13c-.08.17-.06.35.05.4a.16.16 0 0 0 .15 0 .43.43 0 0 0 .2-.2l1.17-2.35v-.11-.1zM488.29 120.76l-1.18-1.5c-.08-.1-.23-.07-.34.07a.35.35 0 0 0 0 .43l1.06 1.36-1.13 2.13a.29.29 0 0 0 0 .4.17.17 0 0 0 .14 0 .33.33 0 0 0 .2-.19l1.18-2.35v-.33zM490.12 120.25v-.13l-1.17-1.5c-.08-.11-.24-.08-.35.06a.39.39 0 0 0-.05.44l1.06 1.36-1.13 2.09c-.08.17-.06.34.05.4a.16.16 0 0 0 .15 0 .43.43 0 0 0 .2-.2l1.17-2.35v-.17h.07zM491.92 119.64v-.21l-1.17-1.5c-.08-.1-.23-.08-.34.06a.39.39 0 0 0-.06.44l1.07 1.36-1.07 2.14a.3.3 0 0 0 .06.4.17.17 0 0 0 .14 0 .41.41 0 0 0 .2-.19l1.17-2.36v-.12zM489.9 133.47l1.59-2.65a.33.33 0 0 0 0-.42c-.1-.07-.26 0-.35.15l-1.16 1.93v-7.14c0-.17-.11-.26-.25-.21a.43.43 0 0 0-.25.39v7.14l-1.16-1.09c-.1-.08-.25 0-.35.12a.35.35 0 0 0 0 .42l1.6 1.5h.18zM488.31 128.25a.33.33 0 0 0 0-.42l-1.59-1.51h-.24l-1.6 2.66a.34.34 0 0 0 0 .42.15.15 0 0 0 .16 0 .36.36 0 0 0 .19-.16l1.16-1.94v7.14c0 .17.11.26.25.21a.43.43 0 0 0 .24-.39v-7.01l1.17 1.09a.15.15 0 0 0 .18 0 .37.37 0 0 0 .08-.09z"/><path class="y" d="M467.86 140.65l1.68-.62a.17.17 0 0 1 .2.06.29.29 0 0 1 0 .26 2.39 2.39 0 0 0-.09.63c0 .91.61 1.43 1.36 1.16a2.41 2.41 0 0 0 1.37-2.15 1.69 1.69 0 0 0-.09-.56v-.18a.09.09 0 0 1 0-.05V139.08a.09.09 0 0 1 .06 0l1.72-.63v-1.69a1.93 1.93 0 0 1-.49.26c-1 .37-1.85-.36-1.85-1.62a3.31 3.31 0 0 1 1.85-3 1.35 1.35 0 0 1 .47-.09h.05v-1.67c-3.29 1.29-6.12 5.73-6.24 10.01zM481.24 136.37l-1.7.62c-.14 0-.25 0-.25-.21a.5.5 0 0 1 0-.12 2.22 2.22 0 0 0 .07-.59c0-.9-.61-1.42-1.36-1.15a2.41 2.41 0 0 0-1.37 2.15 1.59 1.59 0 0 0 .09.55.4.4 0 0 1-.19.47l-1.71.63v1.69a2.3 2.3 0 0 1 .32-.15c1-.38 1.87.33 1.87 1.57a3.26 3.26 0 0 1-1.87 2.93 1.92 1.92 0 0 1-.32.09v1.67c3.48-1.43 6.3-5.87 6.42-10.15z"/><path class="y" d="M474.3 146.7v-2.07a.45.45 0 0 1 .11-.28.31.31 0 0 1 .23-.12 1 1 0 0 0 .48-.07 2.38 2.38 0 0 0 1.37-2.15c0-.91-.61-1.43-1.37-1.16a1.76 1.76 0 0 0-.48.29h-.19v-2.15l-1.4.51a2.38 2.38 0 0 1 0 .39 3.24 3.24 0 0 1-1.86 2.92c-1 .38-1.86-.33-1.86-1.57a2.93 2.93 0 0 1 0-.41l-1.38.5c.12 4.19 3 6.58 6.44 5.46zM474.8 130.33v2.13a.49.49 0 0 1-.12.3.24.24 0 0 1-.25.09 1 1 0 0 0-.65 0 2.44 2.44 0 0 0-1.36 2.21c0 .93.61 1.47 1.36 1.2a2 2 0 0 0 .36-.18 2.17 2.17 0 0 0 .29-.24.24.24 0 0 1 .25-.09.21.21 0 0 1 .12.21v2.14l1.4-.51a2.34 2.34 0 0 1 0-.38 3.26 3.26 0 0 1 1.86-2.93c1-.37 1.86.34 1.86 1.57a2.73 2.73 0 0 1 0 .41l1.38-.51V135.03c0-.11 0-.22-.05-.32l-.06-.32c0-.11-.05-.22-.07-.32a2.81 2.81 0 0 0-.08-.31c0-.09-.06-.19-.1-.28 0-.09-.07-.18-.1-.26v-.05a2.56 2.56 0 0 1-.11-.24v-.05l-.12-.23v-.05a1.59 1.59 0 0 0-.13-.22v-.05a1.43 1.43 0 0 0-.14-.2v-.05l-.15-.19c0-.07-.11-.13-.16-.19l-.55-.45-.18-.17-.19-.15-.21-.14-.2-.12-.21-.1-.21-.1-.22-.08h-.05l-.23-.06h-1.35a2.85 2.85 0 0 0-.29 0l-.28.05-.28.06-.29.09z"/></svg>